<svg width="171" height="171" viewBox="0 0 171 171" fill="none" xmlns="http://www.w3.org/2000/svg">
<path fill-rule="evenodd" clip-rule="evenodd" d="M69.6106 15.7807C68.2538 16.0641 67.3174 17.2745 68.4565 17.2745C69.7438 17.2745 71.566 16.5201 71.566 15.9871C71.566 15.6625 71.4609 15.4148 71.3314 15.4354C71.202 15.456 70.4288 15.6118 69.6106 15.7807ZM99.7148 15.9796C99.7148 16.6102 102.879 17.6554 103.352 17.1825C103.798 16.7359 103.123 16.0885 102.008 15.8895C101.349 15.7732 100.563 15.6043 100.263 15.5161C99.8706 15.4016 99.7148 15.533 99.7148 15.9796ZM60.9746 18.3591C58.7283 19.1923 58.1465 19.6183 58.6157 20.0875C59.0379 20.5097 64.373 18.5862 64.373 18.012C64.373 17.3983 63.2509 17.5128 60.9746 18.3591ZM107.268 18.0476C107.381 18.6106 112.384 20.6617 112.75 20.2939C113.388 19.6577 110.832 18.2315 108.058 17.6761C107.315 17.5278 107.178 17.5935 107.268 18.0476ZM52.2259 22.2624C49.5161 23.6999 49.5424 23.6774 49.7826 24.306C49.9421 24.7189 50.3231 24.6194 52.2466 23.6567C55.0145 22.2718 55.3129 22.0429 55.0933 21.4743C54.8625 20.87 54.8362 20.8756 52.2259 22.2624ZM116.291 21.8064C116.291 22.4951 121.269 24.9347 121.725 24.4712C122.159 24.032 121.568 23.5441 119.036 22.253C117.043 21.2359 116.291 21.114 116.291 21.8064ZM43.6874 27.5732C41.3379 29.3053 40.9908 29.7144 41.6513 29.9677C42.2556 30.1985 46.5511 27.2654 46.4592 26.6837C46.3278 25.858 45.7686 26.0381 43.6874 27.5732ZM124.906 26.6367C124.668 27.0214 129.322 30.5138 129.733 30.2586C130.397 29.8476 129.978 29.2715 127.967 27.8303C125.891 26.344 125.242 26.0907 124.906 26.6367ZM35.8227 34.0943C34.0455 35.8921 33.7434 36.4494 34.3514 36.8247C34.7342 37.0612 38.7257 33.3043 38.7257 32.7075C38.7257 31.7992 37.5285 32.3716 35.8227 34.0943ZM132.692 32.6306C132.454 33.0153 136.224 36.9786 136.828 36.9786C137.798 36.9786 137.449 36.1848 135.655 34.3157C133.732 32.3134 133.109 31.9587 132.692 32.6306ZM82.2006 36.8285C65.8368 39.3825 54.7011 50.3174 48.925 69.5055C44.5863 83.9158 44.5188 85.9256 48.0899 94.0588C54.2808 108.152 55.3842 109.407 62.6522 110.616C69.4811 111.749 71.3389 114.24 71.3033 122.208C71.2714 129.1 71.9375 132.407 73.5758 133.48C74.6248 134.167 98.8422 134.004 100.807 133.296C104.245 132.058 105.356 129.324 104.53 124.135C103.385 116.955 104.937 113.421 112.977 104.909C120.16 97.3034 122.872 92.6494 124.923 84.4225C131.517 57.9739 108.807 32.6756 82.2006 36.8285ZM95.9185 39.1498C119.577 45.0329 131.063 70.9786 119.727 92.929C117.754 96.7441 116.039 98.9961 111.228 104.083C103.213 112.554 101.537 116.405 102.624 123.853C103.331 128.706 102.944 130.07 100.497 131.371C99.4239 131.941 77.7062 132.596 75.4374 132.127C73.7072 131.769 73.4163 130.688 73.2381 123.926C72.9434 112.768 71.1175 110.074 62.9656 108.767C56.497 107.73 55.874 107.024 50.248 94.3703C46.3353 85.5672 46.4742 82.8105 51.6029 67.3868C56.9962 51.1656 67.52 41.1521 81.5738 38.8665C82.8649 38.6582 84.1316 38.4349 84.3887 38.3729C85.8018 38.0333 93.5202 38.555 95.9185 39.1498ZM29.2527 41.4092C27.7327 43.3834 27.3161 44.485 28.0892 44.485C28.5903 44.485 31.895 40.0637 31.7261 39.6209C31.4202 38.8271 31.0186 39.1179 29.2527 41.4092ZM139.604 39.7766C139.33 40.2176 142.634 44.4474 143.267 44.4681C144.147 44.4962 143.918 43.892 142.189 41.6175C140.638 39.5758 140.005 39.1254 139.604 39.7766ZM23.7262 49.5405C22.5045 51.6592 22.2305 52.7513 22.9305 52.71C23.3546 52.6856 25.8824 48.5346 25.8936 47.8478C25.9124 46.6618 24.9554 47.4087 23.7262 49.5405ZM145.378 47.9323C145.378 48.5365 148.037 52.909 148.408 52.9202C149.238 52.9427 149.092 52.2127 147.814 49.9721C146.614 47.8685 145.378 46.8326 145.378 47.9323ZM88.3277 48.4183C86.6331 49.0376 85.2632 50.1485 84.5445 51.4846C83.8088 52.8508 83.6043 52.8827 83.0038 51.7211C80.3615 46.613 70.4513 51.1262 72.4968 56.5064C72.7876 57.272 72.752 57.3077 71.7049 57.3077C67.2048 57.3077 65.2869 62.4477 68.6291 65.5478C69.3084 66.1764 69.3854 66.4035 69.0964 66.944C67.3624 70.1848 71.4459 74.7693 74.6455 73.1742C75.5575 72.7182 75.5875 72.7276 75.7864 73.5308C76.5539 76.6384 81.0991 77.5654 83.6137 75.1296C84.5557 74.2176 84.6552 74.1838 84.8316 74.7374C85.2726 76.128 86.7626 77.0794 88.8325 77.2933C91.7993 77.6011 94.3665 79.5152 95.9353 82.5891C96.9693 84.6176 98.4988 84.5238 99.0711 82.3995L99.3976 81.1854L100.891 81.4913C104.098 82.1499 106.773 79.9037 106.484 76.796C106.371 75.5856 106.484 74.8725 106.932 73.9924C107.264 73.345 107.535 72.6431 107.535 72.433C107.535 72.2228 107.79 71.9695 108.105 71.87C111.473 70.8003 111.475 64.9022 108.105 62.6822C107.047 61.986 107.018 61.9147 107.317 60.7944C108.321 57.0337 105.281 54.08 100.936 54.5941C99.4614 54.7705 99.4014 54.7461 99.4014 53.9993C99.4014 49.6231 93.355 46.5755 88.3277 48.4183ZM94.3271 48.7148C97.1964 49.5668 98.7765 51.4396 98.7765 53.9899V55.3917L97.6862 55.2153C96.5734 55.0351 94.7099 55.5925 94.7099 56.1067C94.7099 56.2662 94.9783 56.2493 95.3161 56.0691C97.2302 55.0426 99.347 56.0335 99.9737 58.246L100.283 59.3419L100.312 58.3661C100.328 57.8162 100.056 57.0318 99.6885 56.5646L99.0355 55.7351L100.148 55.2697C103.622 53.8191 107.816 56.9286 107.007 60.3553C106.733 61.5131 106.703 61.5338 104.919 61.727C102.306 62.0085 102.094 62.5133 104.646 62.3745C108.098 62.1849 110.586 64.6395 110.246 67.8991C109.828 71.9169 105.658 72.4311 105.658 68.4677C105.658 67.8541 105.508 67.2611 105.324 67.1485C105.101 67.0096 105.057 67.2892 105.191 67.9986C105.47 69.4924 104.455 70.7572 102.976 70.7572C102.387 70.7572 101.905 70.8979 101.905 71.0706C101.905 71.7931 104.526 71.2 105.078 70.3518C105.196 70.1717 105.626 70.3837 106.095 70.8529C107.812 72.5718 106.701 75.0452 104.354 74.7299C103.32 74.5929 103.183 74.6361 103.49 75.0076C103.693 75.2497 104.266 75.4486 104.765 75.4486C106.823 75.4486 106.57 78.926 104.406 80.3916C102.74 81.5213 99.9738 81.2698 98.7296 79.8774C97.6055 78.6182 97.6224 78.2579 98.8534 77.481C99.8499 76.8523 100.343 75.762 100.09 74.7449C99.863 73.831 99.5008 74.1332 99.6453 75.1165C99.8368 76.4151 98.5795 77.6386 97.0557 77.6386C94.8526 77.6386 93.1467 76.1749 93.1467 74.2852C93.1467 73.7203 93.006 73.2587 92.8333 73.2587C92.6626 73.2587 92.5219 73.6096 92.5219 74.0356C92.5219 76.2856 89.0989 77.7456 86.9671 76.4076C85.8656 75.7151 84.7058 74.0618 84.704 73.1817C84.7021 72.8796 84.5613 72.6338 84.3887 72.6338C84.2179 72.6338 84.0772 72.9134 84.0772 73.2549C84.0772 76.5408 77.7681 76.9912 76.4207 73.801L75.9947 72.7895L77.4041 72.4255C78.8941 72.0389 79.2919 71.8099 78.9954 71.5134C78.894 71.414 78.5281 71.4834 78.181 71.6692C76.5164 72.5625 74.1726 71.4628 74.4672 69.9277C74.546 69.5168 74.4878 69.1039 74.3396 69.012C73.7804 68.6667 74.075 71.0762 74.6624 71.6636C75.9591 72.9603 72.9941 73.4932 71.0762 72.3091C68.8112 70.9073 68.4209 66.0469 70.609 66.4842C71.6974 66.7019 73.2005 66.3209 73.3806 65.7842C73.4876 65.4596 73.375 65.4539 72.8083 65.7579C71.0161 66.7169 68.13 65.2306 67.5238 63.0331C66.7037 60.0681 69.6838 57.0018 72.6582 57.7487C73.5233 57.9664 73.6452 57.6473 73.0935 56.6152C71.5735 53.7741 74.1163 50.4169 77.9745 50.171C81.6245 49.9383 83.5592 51.5428 81.9022 53.4288C81.3786 54.0274 80.9602 54.8268 80.9752 55.2078C80.9959 55.7952 81.0653 55.7501 81.435 54.9075C82.4896 52.498 85.1881 52.2353 86.4211 54.4234L86.9014 55.2753L86.8189 54.4984C86.7664 54.018 86.3516 53.4813 85.7305 53.091C84.5351 52.3404 84.5088 52.2015 85.3533 51.0155C86.9615 48.758 90.9905 47.724 94.3271 48.7148ZM19.3631 58.3811C18.2766 60.9914 18.1602 61.7815 18.8846 61.6313C19.3556 61.5338 21.2116 57.4447 21.2116 56.5045C21.2116 55.2941 20.2376 56.2831 19.3631 58.3811ZM150.069 56.6396C150.069 57.4428 152.09 61.9991 152.447 61.9991C153.203 61.9991 153.154 61.5 152.16 59.0173C151.289 56.8404 150.069 55.4555 150.069 56.6396ZM88.9244 57.1576C87.7553 57.7843 87.3443 58.1784 87.5996 58.4336C87.7084 58.5425 88.1757 58.3323 88.6373 57.9701C90.4857 56.5158 93.4601 57.8294 93.4601 60.1C93.4601 60.6292 93.6009 61.0609 93.7716 61.0609C94.5298 61.0609 93.676 58.4843 92.6026 57.5291C91.6999 56.7259 90.0448 56.557 88.9244 57.1576ZM80.7331 59.4883C79.9018 59.8373 78.9579 61.2016 79.1624 61.7552C79.2506 61.9916 79.4476 61.8115 79.6447 61.3142C80.6224 58.8634 84.6983 59.751 84.3193 62.3313C84.2461 62.8361 84.3005 63.2508 84.4431 63.2508C84.5858 63.2508 84.7021 62.7667 84.7021 62.1737C84.7021 60.1864 82.5459 58.7264 80.7331 59.4883ZM89.2021 62.9956C89.311 63.5436 89.6413 64.2567 89.934 64.5813C90.2681 64.9491 90.435 65.5647 90.3787 66.2177C90.1648 68.7098 92.5218 70.5996 94.8319 69.787C95.5131 69.5468 96.1361 69.1527 96.2149 68.9125C96.3257 68.5747 96.1887 68.5916 95.62 68.9894C93.7716 70.2862 90.9567 68.9238 90.9567 66.7338C90.9567 65.5891 90.9662 65.5816 92.1334 65.6923C93.5352 65.8255 95.0252 64.8365 95.0196 63.7763C95.014 63.1289 94.9952 63.1326 94.618 63.8757C93.4376 66.2102 89.707 65.2757 89.707 62.6466C89.707 62.29 89.5475 61.9991 89.3542 61.9991C89.1252 61.9991 89.0726 62.3482 89.2021 62.9956ZM97.8795 64.8685C101.578 65.8555 101.62 71.3821 97.9264 71.3821C97.4084 71.3821 97.2002 71.4928 97.3841 71.6711C97.9227 72.1946 99.3845 71.6411 100.34 70.5526C102.417 68.1881 100.715 64.4199 97.6186 64.5344C96.8117 64.5644 96.8324 64.5907 97.8795 64.8685ZM16.4 67.0828C15.518 70.1266 15.4091 71.4628 16.0528 71.337C16.5801 71.2338 17.7174 67.6627 17.7568 65.9869C17.7868 64.7577 16.856 65.5084 16.4 67.0828ZM153.644 65.8574C153.468 66.3134 154.566 71.292 154.92 71.6467C155.613 72.3373 155.759 70.8829 155.232 68.5728C154.646 66.0113 154.004 64.9135 153.644 65.8574ZM81.5738 68.0905C81.5738 69.3516 83.9083 70.4231 85.4058 69.8508C85.8787 69.6706 86.2653 69.3723 86.2653 69.1902C86.2653 68.9594 86.0814 68.9575 85.661 69.1827C84.6533 69.7213 83.5517 69.5505 82.5365 68.6967C82.0073 68.2519 81.5738 67.978 81.5738 68.0905ZM95.8171 77.9539C96.7648 78.2185 97.3522 78.5863 97.5154 79.016C97.6543 79.3763 98.0484 79.9243 98.3918 80.2339C98.8929 80.6862 98.9698 81.0033 98.7821 81.8384C98.2511 84.1935 97.3222 84.2236 96.0273 81.9304C95.0571 80.2114 93.0454 78.1753 91.7149 77.5711L90.9436 77.2183L91.79 76.3325L92.6382 75.4486L93.5033 76.4995C94.0775 77.1939 94.8601 77.6855 95.8171 77.9539ZM15.8502 99.7411C15.5161 99.8293 15.3923 100.092 15.4955 100.486C15.7282 101.377 16.5201 101.244 16.5201 100.313C16.5201 99.8837 16.4844 99.5478 16.4413 99.5684C16.3981 99.5872 16.1316 99.666 15.8502 99.7411ZM154.659 100.283C154.567 100.524 154.575 100.805 154.678 100.908C155.067 101.297 155.633 101.073 155.791 100.469C155.982 99.7317 154.937 99.559 154.659 100.283ZM16.8316 105.414C16.8316 106.611 18.301 110.323 18.8152 110.423C19.5132 110.56 19.4738 110.117 18.5262 107.274C17.7718 105.005 16.8316 103.973 16.8316 105.414ZM152.725 107.362C151.871 109.925 151.859 111.353 152.7 110.456C153.173 109.95 154.449 106.273 154.449 105.414C154.449 103.95 153.507 105.014 152.725 107.362ZM20.1344 114.202C19.8398 114.679 22.3901 119.548 22.9343 119.548C23.6136 119.548 23.4916 119.034 22.2062 116.446C21.0765 114.17 20.5247 113.572 20.1344 114.202ZM150.178 114.305C148.568 116.889 147.508 120.322 148.512 119.7C148.938 119.438 151.008 115.313 151.008 114.727C151.008 114.093 150.478 113.823 150.178 114.305ZM24.7977 123.003C24.4918 123.501 27.5225 127.984 28.1699 127.989C29.0069 127.995 28.8493 127.535 27.1434 125.007C25.5878 122.703 25.1937 122.365 24.7977 123.003ZM144.15 124.989C143.278 126.282 142.563 127.486 142.563 127.667C142.563 128.458 143.599 127.875 144.524 126.559C146.583 123.641 146.684 123.424 146.187 123.011C145.815 122.701 145.462 123.045 144.15 124.989ZM30.5945 131.273C30.5945 132.135 34.5804 136.049 34.8243 135.426C34.9744 135.04 34.5241 134.302 33.2461 132.846C31.5046 130.864 30.5945 130.324 30.5945 131.273ZM138.031 132.823C136.732 134.302 136.297 135.019 136.453 135.417C136.699 136.047 140.827 132.009 140.607 131.352C140.339 130.545 139.725 130.894 138.031 132.823ZM37.474 138.433C37.474 138.669 38.2134 139.482 39.1161 140.236C41.8859 142.55 41.8371 142.522 42.2575 142.101C42.5521 141.807 42.188 141.319 40.6023 139.877C38.6281 138.083 37.474 137.551 37.474 138.433ZM130.678 139.877C128.432 141.919 128.231 143.379 130.429 141.681C132.81 139.84 133.906 138.727 133.685 138.371C133.283 137.723 132.758 137.986 130.678 139.877ZM45.412 144.4C45.3051 144.68 45.2694 144.961 45.3332 145.023C45.9056 145.586 50.1391 147.952 50.3456 147.825C50.9874 147.427 50.4619 146.81 48.362 145.502C45.5621 143.756 45.6466 143.788 45.412 144.4ZM123.328 145.231C122.296 145.911 121.254 146.586 121.012 146.731C120.753 146.887 120.658 147.215 120.779 147.53C121.087 148.333 126.18 145.305 125.906 144.483C125.694 143.85 125.216 143.989 123.328 145.231ZM53.866 149.309C53.4513 149.979 58.2197 152.344 59.2143 151.961C59.995 151.662 59.5746 151.304 56.9943 150.08C54.3652 148.831 54.1869 148.788 53.866 149.309ZM114.028 150.15C111.695 151.251 110.924 152.075 112.222 152.075C113.446 152.075 117.229 150.154 117.229 149.533C117.229 148.744 116.848 148.818 114.028 150.15ZM63.172 153.207C63.3691 154.23 68.6479 155.583 68.9669 154.691C69.0777 154.376 66.8107 153.537 63.9508 152.837C63.1889 152.65 63.0763 152.704 63.172 153.207ZM104.641 153.528C101.954 154.382 101.087 155.466 103.389 155.093C105.583 154.738 108.004 153.813 108.004 153.331C108.004 152.638 107.319 152.678 104.641 153.528Z" fill="#481B8B"/>
<path fill-rule="evenodd" clip-rule="evenodd" d="M82.8593 1.0364C75.7095 2.44008 70.5057 9.98021 71.8194 17.0381C73.9005 28.2319 87.8022 32.6137 95.5732 24.5275C105.087 14.6248 96.3032 -1.60396 82.8593 1.0364ZM87.8717 6.19701C88.0199 6.28896 88.1419 7.6889 88.1419 9.30652V12.2471L91.1914 12.3372L94.2408 12.4273V14.773V17.1187L91.2026 17.2069L88.1644 17.297L88.0762 20.3352L87.9861 23.3734H85.6404H83.2946L83.2046 20.3352L83.1164 17.297L80.0782 17.2069L77.04 17.1187V14.773V12.4273L80.0895 12.3372L83.1389 12.2471V9.30276C83.1389 5.81606 83.3209 5.589 85.9181 5.85735C86.8433 5.95305 87.7234 6.10506 87.8717 6.19701ZM89.5493 48.5309C85.8956 49.4261 83.8257 51.8956 85.7305 53.091C86.3516 53.4814 86.7664 54.0181 86.8189 54.4985L86.9015 55.2754L86.4211 54.4234C85.1882 52.2353 82.4896 52.498 81.435 54.9076C81.0653 55.7502 80.9959 55.7952 80.9752 55.2078C80.9602 54.8269 81.3787 54.0275 81.9022 53.4288C83.5592 51.5428 81.6245 49.9384 77.9745 50.1711C74.1163 50.4169 71.5735 53.7741 73.0935 56.6153C73.6452 57.6474 73.5233 57.9664 72.6582 57.7487C69.6838 57.0018 66.7038 60.0682 67.5238 63.0332C68.13 65.2307 71.0162 66.7169 72.8083 65.758C73.375 65.454 73.4876 65.4596 73.3807 65.7843C73.2005 66.321 71.6974 66.7019 70.609 66.4842C68.4209 66.047 68.8112 70.9073 71.0762 72.3092C72.9941 73.4933 75.9591 72.9603 74.6623 71.6636C74.075 71.0762 73.7804 68.6667 74.3396 69.012C74.4878 69.1039 74.546 69.5168 74.4672 69.9278C74.1726 71.4628 76.5164 72.5625 78.181 71.6692C78.5281 71.4835 78.8941 71.414 78.9954 71.5135C79.2919 71.81 78.894 72.0389 77.404 72.4255L75.9948 72.7896L76.4207 73.801C77.7681 76.9912 84.0772 76.5409 84.0772 73.255C84.0772 72.9134 84.218 72.6338 84.3887 72.6338C84.5614 72.6338 84.7021 72.8796 84.704 73.1818C84.7059 74.0619 85.8656 75.7152 86.9672 76.4076C89.099 77.7456 92.5219 76.2856 92.5219 74.0356C92.5219 73.6096 92.6626 73.2587 92.8334 73.2587C93.006 73.2587 93.1467 73.7203 93.1467 74.2852C93.1467 76.1749 94.8526 77.6387 97.0557 77.6387C98.5795 77.6387 99.8368 76.4151 99.6454 75.1165C99.5009 74.1332 99.8631 73.8311 100.09 74.745C100.343 75.7621 99.8499 76.8524 98.8535 77.481C97.6224 78.2579 97.6055 78.6182 98.7296 79.8774C99.9738 81.2699 102.74 81.5213 104.406 80.3916C106.57 78.926 106.823 75.4487 104.765 75.4487C104.266 75.4487 103.693 75.2498 103.49 75.0077C103.183 74.6361 103.32 74.593 104.354 74.7299C106.701 75.0452 107.812 72.5719 106.095 70.8529C105.626 70.3838 105.196 70.1717 105.078 70.3519C104.526 71.2001 101.905 71.7931 101.905 71.0706C101.905 70.898 102.387 70.7572 102.976 70.7572C104.455 70.7572 105.47 69.4924 105.191 67.9986C105.057 67.2893 105.101 67.0097 105.324 67.1485C105.508 67.2611 105.658 67.8541 105.658 68.4678C105.658 72.4311 109.828 71.9169 110.246 67.8992C110.586 64.6395 108.098 62.185 104.646 62.3745C102.094 62.5134 102.306 62.0086 104.919 61.7271C106.703 61.5338 106.733 61.5132 107.007 60.3553C107.816 56.9287 103.622 53.8192 100.148 55.2698L99.0355 55.7351L99.6885 56.5646C100.056 57.0319 100.328 57.8163 100.312 58.3661L100.283 59.3419L99.9738 58.246C99.347 56.0335 97.2302 55.0427 95.3161 56.0692C94.9783 56.2493 94.71 56.2662 94.71 56.1067C94.71 55.5925 96.5734 55.0352 97.6862 55.2153L98.7765 55.3917V53.9899C98.7765 50.0697 94.2371 47.3862 89.5493 48.5309ZM92.6026 57.5292C93.676 58.4843 94.5298 61.0609 93.7716 61.0609C93.6009 61.0609 93.4602 60.6293 93.4602 60.1001C93.4602 57.8294 90.4858 56.5158 88.6373 57.9702C87.8473 58.5913 87.061 58.5725 87.6934 57.9476C89.0257 56.634 91.3715 56.4332 92.6026 57.5292ZM83.9984 60.2971C84.6833 61.0759 85.0117 63.2509 84.4431 63.2509C84.3005 63.2509 84.2461 62.8361 84.3193 62.3313C84.6984 59.751 80.6224 58.8634 79.6447 61.3142C79.4476 61.8115 79.2506 61.9917 79.1624 61.7552C78.4155 59.7398 82.4408 58.5256 83.9984 60.2971ZM89.707 62.6466C89.707 65.2757 93.4376 66.2103 94.618 63.8758C94.9952 63.1326 95.014 63.1289 95.0196 63.7763C95.0252 64.8366 93.5352 65.8255 92.1334 65.6923C90.9662 65.5816 90.9568 65.5891 90.9568 66.7338C90.9568 68.9238 93.7716 70.2862 95.6201 68.9895C96.1887 68.5916 96.3257 68.5747 96.215 68.9125C96.1362 69.1527 95.5131 69.5468 94.8319 69.787C92.5218 70.5996 90.1648 68.7099 90.3788 66.2178C90.4351 65.5647 90.268 64.9492 89.934 64.5814C89.2697 63.8476 88.855 61.9992 89.3542 61.9992C89.5475 61.9992 89.707 62.2901 89.707 62.6466ZM99.4127 64.9754C101.424 66.017 101.886 68.7924 100.34 70.5527C99.3845 71.6411 97.9226 72.1947 97.384 71.6711C97.2001 71.4928 97.4085 71.3821 97.9264 71.3821C101.62 71.3821 101.578 65.8556 97.8795 64.8685C96.8324 64.5908 96.8117 64.5645 97.6186 64.5345C98.1009 64.5157 98.9079 64.7146 99.4127 64.9754ZM84.278 69.5055C84.7059 69.5055 85.3289 69.361 85.6611 69.1828C86.0814 68.9576 86.2653 68.9594 86.2653 69.1903C86.2653 70.3782 82.5534 70.1248 81.8929 68.89C81.3618 67.8992 81.5288 67.8485 82.5365 68.6967C83.0657 69.1415 83.8502 69.5055 84.278 69.5055ZM155.388 71.7086C155.388 71.8288 154.718 72.0164 153.901 72.1252C139.337 74.0581 139.189 95.9917 153.715 99.4165C169.017 103.025 177.366 80.523 163.337 73.4895C160.89 72.2641 155.388 71.0293 155.388 71.7086ZM12.0519 72.0202C4.91153 73.2212 -0.425478 80.7031 0.79055 87.8079C2.74783 99.2344 16.4807 103.723 24.5125 95.5619C34.0624 85.86 25.5371 69.7532 12.0519 72.0202ZM158.261 77.6743C158.396 79.0198 160.374 79.9112 161.319 79.0536C161.884 78.5432 161.967 78.5601 163.018 79.3989L164.123 80.279L163.468 80.9752C162.494 82.013 163.286 84.0022 164.733 84.1485C165.679 84.2424 165.709 84.293 165.709 85.7699C165.709 87.2468 165.679 87.2975 164.733 87.3913C163.361 87.5302 162.498 89.5062 163.384 90.4858C164.251 91.4428 162.336 93.4057 161.381 92.5406C160.345 91.6042 158.202 92.4675 158.202 93.8223C158.202 94.8357 158.195 94.8395 156.637 94.8395H155.074V93.7942C155.074 92.4149 152.963 91.5742 151.905 92.5331C151.319 93.0623 151.259 93.0454 150.308 92.094L149.319 91.105L149.985 90.3919C150.578 89.7577 150.6 89.6132 150.204 89.0727C149.959 88.7387 149.758 88.2114 149.758 87.8998C149.758 87.4607 149.51 87.3331 148.662 87.3331H147.568V85.7699C147.568 84.2142 147.573 84.2067 148.587 84.2067C149.94 84.2067 150.805 82.0618 149.867 81.0278C149.001 80.0707 150.964 78.1566 151.923 79.0236C152.901 79.9093 154.877 79.048 155.016 77.6743C155.11 76.7304 155.16 76.7004 156.637 76.7004C158.114 76.7004 158.165 76.7304 158.261 77.6743ZM13.5513 79.3801C14.4934 79.8268 14.6735 79.8268 15.5386 79.3801C19.7685 77.1939 24.6889 80.9077 24.2704 85.9726C24.0471 88.6524 22.9117 89.9997 19.4269 91.7131C17.8543 92.4862 16.263 93.5071 15.8952 93.98C15.0188 95.1022 14.2232 95.0665 13.1591 93.8636C12.6844 93.3251 11.2431 92.4036 9.95391 91.8125C5.98681 89.9979 4.80271 88.3277 5.00163 84.8241C5.25872 80.2546 9.58612 77.4998 13.5513 79.3801ZM153.785 81.5288C152.246 82.5741 151.529 84.1842 151.696 86.2165C152.227 92.6082 161.713 92.1803 161.713 85.7662C161.713 81.6827 157.148 79.2431 153.785 81.5288ZM158.752 82.0149C160.944 83.351 161.633 86.0045 160.306 87.9918C158.364 90.8986 154.41 90.7053 152.79 87.624C150.884 83.9984 155.256 79.8849 158.752 82.0149ZM154.425 83.5574C152.409 85.571 153.789 88.8982 156.637 88.8982C157.656 88.8982 158.135 88.7011 158.852 87.9824C160.865 85.9688 159.488 82.6416 156.637 82.6416C155.618 82.6416 155.142 82.8387 154.425 83.5574ZM73.2324 121.894C73.2343 123.099 73.2906 123.553 73.3582 122.904C73.4257 122.255 73.4238 121.269 73.3563 120.714C73.2868 120.158 73.2305 120.689 73.2324 121.894ZM71.3258 121.738C71.3258 122.339 71.3896 122.587 71.4684 122.285C71.5472 121.984 71.5472 121.491 71.4684 121.19C71.3896 120.89 71.3258 121.136 71.3258 121.738ZM77.7438 132.29C78.819 132.352 80.5773 132.352 81.6526 132.29C82.7279 132.23 81.8478 132.18 79.6973 132.18C77.5486 132.18 76.6685 132.23 77.7438 132.29ZM77.8995 134.169C79.2318 134.227 81.4143 134.227 82.7467 134.169C84.0809 134.109 82.9907 134.062 80.3241 134.062C77.6574 134.062 76.5671 134.109 77.8995 134.169ZM83.1389 143.034C75.9253 144.248 70.624 151.642 71.8137 158.825C73.6903 170.141 87.4363 174.729 95.438 166.711C105.093 157.037 96.6372 140.761 83.1389 143.034ZM89.3936 150.225C95.575 151.824 97.6318 158.204 93.0267 161.498C91.197 162.806 90.9267 163.05 89.7482 164.44L88.6973 165.681L88.8587 164.573L89.0201 163.466L87.0722 163.757C82.8743 164.384 77.9614 162.34 76.3588 159.298C73.2925 153.479 81.0615 148.071 89.3936 150.225ZM81.8872 156.767C81.8872 157.238 82.0505 157.407 82.4352 157.334C82.7355 157.275 82.9813 157.02 82.9813 156.767C82.9813 156.513 82.7355 156.26 82.4352 156.202C82.0505 156.127 81.8872 156.296 81.8872 156.767ZM85.2294 156.345C84.7997 156.774 85.023 157.437 85.5616 157.334C85.8637 157.275 86.1095 157.031 86.1095 156.789C86.1095 156.296 85.5578 156.016 85.2294 156.345ZM88.2995 156.455C88.0368 156.878 88.3896 157.394 88.9432 157.394C89.1909 157.394 89.3936 157.112 89.3936 156.767C89.3936 156.119 88.6392 155.904 88.2995 156.455Z" fill="#F6A532"/>
<path fill-rule="evenodd" clip-rule="evenodd" d="M84.6271 5.92306C85.0174 5.99812 85.5804 5.99625 85.8788 5.91743C86.1771 5.83861 85.86 5.77856 85.1713 5.78044C84.4826 5.78419 84.2386 5.848 84.6271 5.92306ZM85.8788 38.4518C86.2672 38.525 86.8302 38.5231 87.1305 38.4443C87.4288 38.3655 87.1098 38.3054 86.423 38.3092C85.7343 38.3129 85.4903 38.3767 85.8788 38.4518ZM89.3186 38.4518C89.7089 38.525 90.2718 38.5231 90.5702 38.4443C90.8686 38.3655 90.5515 38.3054 89.8628 38.3092C89.1741 38.3129 88.9301 38.3767 89.3186 38.4518ZM60.603 47.5345L59.524 48.7073L60.6968 47.6302C61.3424 47.0372 61.8697 46.508 61.8697 46.4573C61.8697 46.2171 61.6051 46.4423 60.603 47.5345ZM90.7222 47.8366C91.1951 47.9079 91.9702 47.9079 92.4431 47.8366C92.916 47.7653 92.5294 47.7071 91.5836 47.7071C90.6359 47.7071 90.2493 47.7653 90.7222 47.8366ZM113.164 49.0207C113.748 49.6212 114.296 50.1148 114.38 50.1148C114.467 50.1148 114.059 49.6212 113.476 49.0207C112.892 48.4184 112.344 47.9248 112.26 47.9248C112.173 47.9248 112.581 48.4184 113.164 49.0207ZM126.096 74.8238C126.096 76.2857 126.15 76.8843 126.216 76.1524C126.282 75.4206 126.282 74.2252 126.216 73.4933C126.15 72.7633 126.096 73.3601 126.096 74.8238ZM155.05 77.7156C154.956 78.3874 155.005 78.7721 155.162 78.6145C155.312 78.4625 155.386 77.9352 155.324 77.4416C155.221 76.6141 155.198 76.6366 155.05 77.7156ZM156.091 80.6694C156.391 80.7463 156.885 80.7463 157.185 80.6694C157.486 80.5906 157.24 80.5249 156.637 80.5249C156.035 80.5249 155.789 80.5906 156.091 80.6694ZM45.0592 85.6142C45.063 86.301 45.1268 86.5468 45.2019 86.1565C45.2769 85.7681 45.275 85.2051 45.1962 84.9067C45.1174 84.6064 45.0574 84.9255 45.0592 85.6142ZM156.091 90.9906C156.391 91.0675 156.885 91.0675 157.185 90.9906C157.486 90.9118 157.24 90.8461 156.637 90.8461C156.035 90.8461 155.789 90.9118 156.091 90.9906ZM155.147 93.9012C155.147 94.5036 155.211 94.7494 155.29 94.4491C155.369 94.1489 155.369 93.6553 155.29 93.3551C155.211 93.053 155.147 93.2988 155.147 93.9012ZM113.309 104.615L111.757 106.257L113.399 104.705C114.302 103.851 115.041 103.111 115.041 103.063C115.041 102.828 114.75 103.089 113.309 104.615ZM110.349 104.692C109.589 105.467 109.038 106.099 109.124 106.099C109.21 106.099 109.901 105.467 110.661 104.692C111.421 103.918 111.973 103.284 111.886 103.284C111.8 103.284 111.109 103.918 110.349 104.692ZM73.2156 125.178C73.2156 125.951 73.2756 126.269 73.3507 125.882C73.4258 125.495 73.4258 124.861 73.3507 124.475C73.2756 124.088 73.2156 124.403 73.2156 125.178ZM86.0308 134.163C86.6763 134.231 87.7328 134.231 88.3765 134.163C89.022 134.096 88.4947 134.041 87.2036 134.041C85.9144 134.041 85.3871 134.096 86.0308 134.163ZM88.7687 164.761C88.7687 165.202 88.8963 165.484 89.0521 165.386C89.2078 165.29 89.2623 164.93 89.1722 164.587C88.947 163.725 88.7687 163.802 88.7687 164.761Z" fill="#CCD3DB"/>
</svg>
