<svg width="694" height="335" viewBox="0 0 694 335" fill="none" xmlns="http://www.w3.org/2000/svg">
<path d="M415.493 188.193C415.493 188.193 390.334 206.903 385.428 205.767C380.523 204.631 403.814 185.572 403.814 185.572C395.05 181.358 367.805 184.001 367.805 184.001C367.805 184.001 358.729 213.266 354.255 210.957C349.778 208.651 363.613 185.455 363.613 185.455C353.851 184.867 341.878 192.115 341.878 192.115C325.486 205.059 342.956 225.438 342.956 225.438C342.956 225.438 339.59 235.513 329.24 244.687C329.24 244.687 314.456 255.619 313.43 275.153L316.113 275.395C316.113 275.395 320.366 257.199 328.098 248.594C328.398 248.282 328.833 247.838 329.369 247.296C330.634 246.126 331.515 245.247 332.109 244.595C335.956 240.902 341.271 236.196 343.831 235.739C343.831 235.739 343.703 235.268 343.721 234.45C343.758 234.864 343.795 235.286 343.831 235.739C344.71 246.037 364.691 255.034 376.983 256.884C389.277 258.733 385.477 253.681 381.242 246.188C377.004 238.694 363.601 235.341 360.542 231.89C357.486 228.442 363.809 228.433 371.214 231.817C378.621 235.197 379.635 244.219 391.516 249.908C403.397 255.598 421.277 235.883 421.277 235.883C411.806 235.403 398.283 225.12 398.773 221.972C399.263 218.824 421.727 227.401 425.567 227.811C429.407 228.225 438.147 223.448 439.497 207.978C440.851 192.507 415.493 188.193 415.493 188.193Z" fill="#B155B5"/>
<path d="M281.881 199.811C281.881 199.811 309.667 184.249 296.702 163.132C296.702 163.132 286.327 150.164 275.211 146.829C275.211 146.829 281.14 178.32 275.211 179.061C269.286 179.802 271.135 143.494 271.135 143.494C271.135 143.494 241.867 129.417 230.384 130.526C230.384 130.526 248.537 161.279 242.608 160.538C236.68 159.797 216.304 128.673 216.304 128.673C216.304 128.673 186.295 123.118 181.478 140.901C176.661 158.686 184.442 167.575 188.888 168.687C193.335 169.798 221.862 169.428 221.121 173.133C220.38 176.838 201.113 182.767 190.37 179.432C190.37 179.432 202.224 208.7 217.786 207.218C233.348 205.736 238.162 196.106 247.796 195.364C257.429 194.623 264.469 197.217 259.652 199.811C254.835 202.401 238.532 200.659 230.754 207.273C222.973 213.888 216.675 217.963 231.125 220.928C245.572 223.892 271.506 222.039 276.693 210.923C281.881 199.811 281.881 199.811 281.881 199.811Z" fill="#C378DD"/>
<path d="M289.291 226.856C281.51 212.405 281.881 199.811 281.881 199.811C272.988 171.651 195.187 146.458 195.187 146.458C294.108 186.472 276.693 210.923 276.693 210.923C279.36 212.479 283.357 219.896 286.131 225.582C286.526 226.553 287.151 227.891 288.081 229.71C288.458 230.534 288.758 231.204 288.966 231.676C294.062 244.421 291.361 266.425 291.361 266.425L294.448 267.255C301.289 245.076 289.291 226.856 289.291 226.856Z" fill="#82B378"/>
<path d="M326.089 178.348C326.089 178.348 289.46 157.837 306.553 129.999C306.553 129.999 320.228 112.906 334.878 108.512C334.878 108.512 327.066 150.023 334.878 151C342.693 151.976 340.252 104.114 340.252 104.114C340.252 104.114 378.832 85.5576 393.972 87.0214C393.972 87.0214 370.041 127.559 377.856 126.582C385.67 125.605 412.532 84.5808 412.532 84.5808C412.532 84.5808 452.089 77.2561 458.437 100.697C464.788 124.138 454.533 135.86 448.672 137.327C442.811 138.791 405.204 138.301 406.181 143.185C407.158 148.069 432.555 155.884 446.718 151.489C446.718 151.489 431.089 190.07 410.578 188.116C390.065 186.163 383.717 173.464 371.018 172.49C358.322 171.513 349.04 174.93 355.391 178.348C361.739 181.768 383.23 179.469 393.485 188.19C403.74 196.908 412.042 202.279 392.995 206.186C373.948 210.094 339.762 207.653 332.924 193C326.089 178.348 326.089 178.348 326.089 178.348Z" fill="#C378DD"/>
<path d="M440.37 108.022C440.37 108.022 337.808 141.231 326.089 178.348C326.089 178.348 326.576 194.954 316.321 214.001C316.321 214.001 300.505 238.018 309.52 267.255L313.589 266.162C313.589 266.162 310.034 237.154 316.747 220.355C317.022 219.736 317.417 218.848 317.916 217.764C319.141 215.367 319.965 213.6 320.486 212.326C324.142 204.824 329.412 195.049 332.924 193C332.924 193 309.97 160.768 440.37 108.022Z" fill="#DBAEEB"/>
<path d="M265.026 174.894C265.026 174.894 325.648 157.577 340.877 174.052C354.216 188.484 390.389 245.612 392.294 279.421C394.143 312.275 359.366 333.879 323.594 333.879H260.06L265.026 174.894Z" fill="#F1A34F"/>
<path d="M223.071 191.73C223.071 191.73 308.779 152.794 325.014 178.228C333.635 191.733 357.354 245.612 359.106 279.421C360.808 312.275 328.827 333.879 295.93 333.879H237.503L223.071 191.73Z" fill="#D16E24"/>
<path d="M54.0773 71.9524C54.0773 71.9524 160.689 69.0648 201.382 69.1566C222.318 69.2026 221.801 85.0494 231.86 103.41C252.006 140.187 285.457 203.443 282.796 213.327C279.005 227.398 136.295 237.139 126.19 233.893C116.088 230.647 54.0773 71.9524 54.0773 71.9524Z" fill="#E78B37"/>
<path d="M109.875 186.6C107.018 178.091 104.17 169.615 101.385 161.331C103.079 106.659 129.411 82.9517 133.947 81.3318C134.155 81.2583 134.351 81.2216 134.538 81.2216C138.88 81.2216 137.554 100.452 137.554 100.452L229.551 175.136L201.706 179.763C201.29 179.046 200.898 178.4 200.534 177.827C196.534 171.547 188.325 169.177 178.223 169.177C161.264 169.177 138.975 175.843 122.289 181.869C117.634 183.547 113.418 185.18 109.875 186.6Z" fill="#D97321"/>
<path d="M281.106 185.262L243.071 204.052C243.071 204.052 210.48 84.2195 208.315 75.0789C207.35 71.0062 204.377 69.5333 201.382 69.1566C206.655 68.6759 210.489 68.6391 210.489 68.6391C220.867 68.6391 230.087 75.2504 233.415 85.0739C240.679 106.5 254.055 146.014 267.602 186.258C271.145 184.84 275.361 183.214 280.016 181.539L281.106 185.262Z" fill="#F1A34F"/>
<path d="M204.98 191.754C204.98 191.754 327.893 180.868 343.048 195.38C350.081 202.12 354.032 232.631 356.246 263.388C359.008 301.757 327.914 334.587 289.668 334.035L156.42 334.097L204.98 191.754Z" fill="#DF812F"/>
<path d="M158.974 43.4526C155.452 42.6626 151.802 43.5751 149.334 44.4907C149.775 43.6241 150.975 42.9933 150.975 42.9933C149.346 43.2383 146.339 45.8472 146.339 45.8472C122.099 44.111 128.444 77.0845 131.163 84.3634C133.882 91.6422 136.543 100.164 127.749 110.122C110.447 129.72 135.398 147.083 135.398 147.083C135.597 147.132 150.384 160.682 150.384 160.682C148.008 154.855 166.008 114.771 177.543 100.89C179.478 94.6462 177.935 85.1289 177.809 84.3817C179.417 91.8106 179.417 96.2507 179.01 98.8781C187.792 83.901 168.301 45.541 158.974 43.4526Z" fill="#B5453C"/>
<path d="M251.92 100.994C252.282 100.452 255.347 91.0727 258.596 91.2533C261.842 91.434 266.894 91.976 268.156 91.6147C269.417 91.2534 273.652 88.0564 274.378 88.8189C276.182 90.7113 272.124 96.5754 269.237 97.4757C266.352 98.379 261.661 97.0256 260.58 98.1096C259.496 99.1905 259.677 103.07 259.677 103.07L251.92 100.994Z" fill="#FFB27D"/>
<path d="M337.778 308.613C337.422 312.441 342.754 313.372 348.924 313.678C355.094 313.987 353.229 315.252 361.687 316.783C370.145 318.314 373.535 315.999 374.147 314.857C374.692 313.843 370.76 312.257 366.568 310.466C366.041 310.242 365.515 310.009 364.985 309.78C360.269 307.707 357.624 303.478 353.946 299.555C350.464 295.841 347.157 283.947 347.157 283.947L335.662 281.494C335.662 281.494 338.889 292.197 340.01 296.766C340.668 299.454 339.698 302.461 338.834 304.749C338.369 305.992 337.9 307.266 337.778 308.613Z" fill="#FFB27D"/>
<path d="M348.924 313.678C355.094 313.987 353.229 315.252 361.687 316.783C370.145 318.314 373.535 315.999 374.147 314.857C374.692 313.843 370.76 312.257 366.568 310.466L366.504 310.536C366.504 310.536 360.557 312.557 353.692 310.689C348.097 309.17 342.689 305.827 338.834 304.749C338.369 305.992 337.9 307.266 337.778 308.613C337.422 312.441 342.754 313.372 348.924 313.678Z" fill="#C65447"/>
<path d="M223.329 172.328C223.329 172.328 299.7 166.58 314.08 175.653C328.456 184.726 351.515 290.421 351.515 290.421C351.515 290.421 350.091 291.563 346.912 291.906C343.957 292.224 337.447 290.488 337.447 290.488C337.447 290.488 304.308 243.196 301.972 231.284C299.638 219.369 300.208 208.737 294.892 208.452C289.579 208.167 223.32 216.509 213.297 198.852C203.274 181.196 211.561 163.717 211.561 163.717L223.329 172.328Z" fill="#AA413E"/>
<path d="M259.545 112.33C254.352 125.476 241.812 146.905 238.572 147.717C235.841 148.397 222.49 145.35 211.64 141.648C205.289 139.48 199.802 137.088 197.802 135.089C192.391 129.678 174.579 97.883 174.579 97.883C174.579 97.883 191.31 95.764 199.248 100.452C207.185 105.143 226.305 126.79 229.193 126.07C232.077 125.348 245.787 101.175 251.201 99.0099C251.201 99.0099 259.496 97.2063 261.661 102.978C262.206 104.43 261.29 107.912 259.545 112.33Z" fill="#699DEE"/>
<path d="M308.555 320.88C308.2 324.708 313.528 325.639 319.702 325.945C325.872 326.254 324.007 327.516 332.465 329.05C340.923 330.581 344.312 328.266 344.922 327.124C345.467 326.11 341.535 324.524 337.346 322.733C336.819 322.509 336.289 322.277 335.763 322.047C331.047 319.974 328.401 315.742 324.724 311.822C321.239 308.108 317.932 296.214 317.932 296.214L306.439 293.759C306.439 293.759 309.667 304.464 310.788 309.033C311.446 311.721 310.475 314.725 309.612 317.013C309.146 318.259 308.678 319.533 308.555 320.88Z" fill="#FFB27D"/>
<path d="M319.701 325.945C325.872 326.254 324.007 327.516 332.465 329.05C340.922 330.581 344.312 328.266 344.922 327.124C345.467 326.11 341.535 324.524 337.346 322.733L337.282 322.803C337.282 322.803 331.335 324.824 324.469 322.956C318.875 321.438 313.464 318.094 309.612 317.013C309.146 318.259 308.678 319.533 308.555 320.88C308.2 324.708 313.528 325.639 319.701 325.945Z" fill="#C65447"/>
<path d="M259.545 112.33C254.352 125.476 241.812 146.905 238.572 147.717C235.841 148.397 222.49 145.35 211.64 141.648C207.148 137.817 204.392 134.504 203.942 133.83C204.297 133.962 229.588 143.552 234.604 141.403C239.148 139.455 252.015 117.499 259.545 112.33Z" fill="#4A75CB"/>
<path d="M176.833 101.622C176.915 101.634 170.993 107.437 165.254 107.605C159.859 107.771 154.632 102.305 154.696 102.271C156.677 101.205 156.402 98.1218 152.552 85.6802L153.563 85.5761L170.567 83.8551C170.567 83.8551 171.743 89.0118 173.182 93.7705C174.392 97.7635 175.788 101.475 176.833 101.622Z" fill="#FFB27D"/>
<path d="M170.567 83.8552C170.567 83.8552 171.743 89.0119 173.182 93.7705C164.134 96.257 156.892 89.5202 153.563 85.5761L170.567 83.8552Z" fill="#E2915A"/>
<path d="M208.37 177.059C208.37 177.059 276.216 180.271 290.228 189.898C304.241 199.523 323.171 306.035 323.171 306.035C323.171 306.035 321.704 307.119 318.513 307.339C315.546 307.544 309.109 305.554 309.109 305.554C309.109 305.554 277.835 257.009 275.967 245.015C274.1 233.017 275.083 222.419 269.782 221.926C264.481 221.436 197.946 227.19 188.619 209.156C179.291 191.123 208.37 177.059 208.37 177.059Z" fill="#C65447"/>
<path d="M151.374 84.3358C151.374 84.3358 144.404 78.3431 141.336 72.3351C139.143 68.045 136.32 50.5293 153.955 47.7917C153.955 47.7917 159.008 46.7751 164.572 48.4838C168.996 49.8403 175.923 53.5731 174.484 70.0477L174.459 75.4739L151.374 84.3358Z" fill="#B5453C"/>
<path d="M208.747 182.831C208.152 182.834 207.313 182.794 206.334 182.718C202.368 182.415 196.048 181.566 193.837 180.908C175.17 175.329 157.235 168.451 149.597 144.281C148.673 141.36 147.901 138.184 147.295 134.727L150.207 123.63L155.884 100.204C155.884 100.204 162.872 103.94 169.361 102.498C172.683 101.76 174.579 97.8861 174.579 97.8861C174.579 97.8861 209.711 111.638 221.617 140.138C233.523 168.641 237.611 164.311 241.218 170.444C244.825 176.578 228.831 182.712 208.747 182.831Z" fill="#699DEE"/>
<path d="M174.937 87.441C174.937 87.441 153.817 94.2727 149.763 81.0563C145.712 67.8369 140.255 59.817 153.569 54.893C166.883 49.9721 171.063 54.2102 173.489 58.2921C175.914 62.377 180.326 85.3219 174.937 87.441Z" fill="#FFB27D"/>
<path d="M163.138 51.6165C163.138 51.6165 162.064 68.9056 153.845 73.9245C145.626 78.9434 141.026 77.7338 141.026 77.7338C141.026 77.7338 146.208 70.21 144.732 60.2855C144.732 60.2855 156.5 45.5717 163.138 51.6165Z" fill="#B5453C"/>
<path d="M162.082 53.3161C162.082 53.3161 167.481 55.4565 169.569 58.5003C171.654 61.5442 174.248 68.33 176.196 67.4787C176.196 67.4787 177.353 55.5943 170.613 51.1327C163.463 46.4017 162.082 53.3161 162.082 53.3161Z" fill="#B5453C"/>
<path d="M206.333 182.718C202.368 182.414 196.048 181.566 193.837 180.908C175.17 175.329 157.234 168.451 149.597 144.281C149.57 144.104 149.536 143.926 149.502 143.748L152.093 141.709C157.391 137.541 164.535 136.589 170.742 139.207C185.486 145.436 205.742 156.723 206.333 182.718Z" fill="#4A75CB"/>
<path d="M155.884 100.204C155.884 100.204 134.066 103.484 130.459 117.178C126.852 130.869 123.642 175.604 126.891 179.138C130.137 182.672 139.838 178.571 142.003 176.805C144.168 175.038 155.351 129.543 155.351 129.543C155.351 129.543 160.823 108.98 155.884 100.204Z" fill="#699DEE"/>
<path d="M189.106 163.077C189.106 163.077 201.658 160.649 203.072 161.255C204.49 161.864 212.384 168.947 211.576 170.365C210.765 171.783 207.528 172.793 203.884 171.581C200.24 170.365 192.346 169.759 190.928 167.937C189.51 166.115 189.106 163.077 189.106 163.077Z" fill="#FFB27D"/>
<path d="M192.48 161.322C192.48 161.322 143.491 160.514 131.748 168.206C131.748 168.206 124.867 175.292 126.891 179.138C128.915 182.984 135.19 182.375 138.025 182.173C140.858 181.97 190.456 170.634 190.456 170.634C190.456 170.634 196.124 166.384 192.48 161.322Z" fill="#699DEE"/>
<path d="M150.783 174.894C150.783 174.894 206.53 157.577 220.533 174.052C232.8 188.484 266.064 245.612 267.816 279.421C269.519 312.275 237.537 333.879 204.64 333.879H146.211L150.783 174.894Z" fill="#F1A34F"/>
<path d="M234.625 279.421C232.873 245.612 209.154 191.733 200.534 178.228C187.957 158.526 133.692 177.451 109.875 186.98C96.3271 146.734 82.9521 107.223 75.6905 85.7965C72.3603 75.97 63.1392 69.3618 52.7639 69.3618C52.7639 69.3618 14.0279 63.6385 8.0334 115.245C-11.1548 280.438 4.26324 333.708 73.094 334.118C81.7263 334.17 98.5983 334.017 113.017 333.855L113.02 333.879H171.449C204.346 333.879 236.325 312.275 234.625 279.421Z" fill="#F1A34F"/>
<path d="M234.625 279.314C232.874 245.404 209.154 191.371 200.534 177.827C189.828 161.004 148.915 172.254 122.289 181.869C117.634 183.548 113.418 185.18 109.875 186.601C96.3281 146.238 82.954 106.61 75.6914 85.1229C72.3613 75.2688 63.1398 68.6391 52.7639 68.6391C52.7639 68.6391 48.9289 68.6759 43.6579 69.1566H43.6509C35.1579 69.9314 22.9493 71.8636 17.0972 76.6651C13.1286 79.9233 10.4014 94.2115 8.03434 114.658C2.43881 162.96 -0.213041 201.722 0.541174 232.411C0.927009 248.15 2.21129 261.762 4.45556 273.453C6.02493 281.641 8.06342 288.883 10.5998 295.25C21.5854 322.861 41.8286 333.983 73.0938 334.17C76.727 334.195 81.8213 334.179 87.5794 334.143C95.4982 334.09 104.669 333.999 113.017 333.904L113.023 333.928H171.449C204.346 333.928 236.328 312.263 234.625 279.314Z" fill="#D16E24"/>
<path d="M109.232 184.344C100.44 187.798 90.6964 191.623 82.8113 194.718C75.1038 166.36 52.3824 82.6579 50.5879 75.0789C49.6264 71.0062 46.653 69.5333 43.6582 69.1567C48.9282 68.6759 52.7651 68.6392 52.7651 68.6392C63.1398 68.6392 72.36 75.2504 75.6917 85.0739C82.8388 106.16 95.9051 144.765 109.232 184.344Z" fill="#F1A34F"/>
<path d="M23.1052 315.874C17.9197 310.254 13.6721 303.211 10.3157 294.588H10.3399C10.4259 294.809 10.5126 295.029 10.5998 295.25C13.9107 303.57 18.0642 310.395 23.1052 315.874Z" fill="#DF812F"/>
<path d="M587.055 195.398V240.109C587.055 247.967 584.835 254.321 582.091 254.321H494.534C491.79 254.321 489.57 247.967 489.57 240.109V195.398C489.57 187.544 497.308 180.268 520.005 180.519L582.091 181.187C584.835 181.187 587.055 187.544 587.055 195.398Z" fill="#F1A34F"/>
<path d="M598.654 195.398V240.109C598.654 247.967 596.437 254.321 593.69 254.321H506.133C503.39 254.321 501.173 247.967 501.173 240.109V195.398C501.173 187.544 509.413 180.014 522.023 180.268L593.69 181.187C596.437 181.187 598.654 187.544 598.654 195.398Z" fill="#E78B37"/>
<path d="M577.066 141.773C578.257 139.137 576.469 29.0758 603.302 30.3956C630.139 31.7123 680.231 33.0321 680.231 33.0321C680.231 33.0321 702.891 35.0072 689.175 89.0486C675.46 143.09 678.442 228.767 678.442 228.767H579.451L577.066 141.773Z" fill="#F1A34F"/>
<path d="M670.083 89.0578C668.429 95.5129 667.057 102.412 665.848 109.556C661.006 138.484 659.512 171.449 659.151 195.377C658.866 215.149 659.35 228.745 659.35 228.745H560.374L557.995 141.755C559.164 139.131 557.388 29.0574 584.222 30.3895C597.941 31.0754 617.75 31.7215 633.811 32.2451C635.829 32.288 637.804 32.3676 639.7 32.4075C652.129 32.7719 661.166 33.0138 661.166 33.0138C661.166 33.0138 683.801 34.9889 670.083 89.0578Z" fill="#E78B37"/>
<path d="M607.914 309.832V251.779C607.914 249.317 605.856 247.259 603.394 247.259H603.355C602.549 247.259 601.781 247.501 601.137 247.905C599.766 248.671 598.838 250.122 598.838 251.779V309.911C598.66 309.939 598.486 309.97 598.311 310C585.318 312.018 574.748 321.542 571.198 334.011H636.037C632.387 321.226 621.397 311.553 607.914 309.832Z" fill="#D16E24"/>
<path d="M630.556 31.5042C620.711 31.1551 611.041 30.7753 603.303 30.3956C603.143 30.3864 602.987 30.3834 602.828 30.3834C601.618 30.3834 600.467 30.613 599.374 31.0509C597.585 30.9805 595.825 30.9101 594.113 30.8397C595.984 28.987 597.172 28.2031 597.172 28.2031L630.556 31.5042Z" fill="#E7B999"/>
<path d="M639.7 32.4075C637.804 32.3677 635.829 32.288 633.811 32.2452C623.029 31.893 610.557 31.4888 599.374 31.0509C600.467 30.613 601.618 30.3834 602.828 30.3834C602.987 30.3834 603.143 30.3864 603.303 30.3956C611.041 30.7753 620.711 31.155 630.556 31.5041L639.7 32.4075Z" fill="#DF812F"/>
<path d="M659.151 195.377C646.844 194.571 607.262 191.867 607.262 191.867L610.588 110.805C600.173 134.828 589.128 155.045 581.454 155.045C577.179 155.045 573.949 148.764 572.46 133.361C565.926 65.7913 586.167 38.7063 594.113 30.8396C595.825 30.91 597.586 30.9804 599.374 31.0509C610.557 31.4888 623.029 31.893 633.811 32.2451C635.829 32.288 637.804 32.3676 639.7 32.4074C643.938 38.9452 663.346 70.7 665.768 107.82C665.808 108.386 665.848 108.99 665.848 109.556C661.006 138.484 659.512 171.449 659.151 195.377Z" fill="#D97321"/>
<path d="M601.138 247.905C599.766 248.671 598.838 250.122 598.838 251.779V322.914C598.838 324.607 599.766 326.061 601.138 326.787C602.467 326.022 603.395 324.567 603.395 322.914V251.779C603.395 250.122 602.467 248.671 601.138 247.905Z" fill="#F1A34F"/>
<path d="M598.311 310C585.318 312.018 574.748 321.542 571.198 334.011H625.427C621.875 321.542 611.344 312.018 598.311 310Z" fill="#F1A34F"/>
<path d="M679.857 233.743L677.618 246.592C677.618 249.335 677.637 254.321 674.893 254.321H520.761C518.018 254.321 515.797 252.101 515.797 249.357V233.743C515.797 230.999 518.018 228.779 520.761 228.779H674.893C677.637 228.779 679.857 230.999 679.857 233.743Z" fill="#F1A34F"/>
<path d="M494.454 324.656C494.736 326.028 495.018 327.439 494.938 328.894C494.736 329.699 494.212 330.306 493.444 330.789L492.718 332.161C491.953 332.526 490.097 332.807 487.714 333.049L487.675 331.919C487.353 331.919 487.029 331.919 486.707 331.959V331.919C483.884 331.959 480.371 332.201 476.093 333.898C476.054 333.898 476.014 333.937 475.974 333.937C475.208 333.977 474.44 334.017 473.754 334.057H463.346C458.342 333.331 456.364 331.316 455.999 330.306C455.999 330.024 459.754 328.168 462.862 327.28C462.902 327.28 462.981 327.24 463.104 327.24C463.545 327.078 464.393 326.754 464.595 326.714C465.161 326.512 465.805 326.352 466.371 326.19C471.577 324.656 475.086 321.186 479.202 317.353C483.923 312.955 490.339 293.345 489.491 292.984L500.104 294.356C500.104 294.356 491.588 311.381 492.274 316.667C492.556 319.009 493.404 320.984 493.97 323.002C494.01 323.082 494.01 323.204 494.05 323.284C494.173 323.569 494.252 323.851 494.332 324.132C494.372 324.334 494.414 324.497 494.454 324.656Z" fill="#EF9A60"/>
<path d="M627.996 177.399L582.354 175.534C582.354 175.534 512.944 180.014 507.055 190.104L480.88 312.536C480.88 312.536 482.328 314.493 487.246 315.335C489.846 315.779 495.505 314.493 495.505 314.493C495.505 314.493 529.403 271.147 533.76 243.931C537.401 221.188 538.844 218.812 551.31 219.283C563.779 219.755 602.038 222.768 620.218 219.246C638.398 215.728 627.996 177.399 627.996 177.399Z" fill="#471C8A"/>
<path d="M495.14 327.764C495.14 328.168 495.1 328.569 494.938 328.894C494.736 329.699 494.212 330.306 493.444 330.789C493.364 330.869 493.284 330.912 493.202 330.952C493.202 330.952 493.202 330.952 493.162 330.952C493.122 330.992 493.082 330.992 493.043 331.031C491.711 331.84 489.934 331.84 487.675 331.919H486.707C483.884 331.959 480.371 332.201 476.093 333.898C476.054 333.898 476.014 333.937 475.974 333.937C475.851 333.977 475.772 334.017 475.649 334.057H458.017C455.598 333.089 455.114 331.558 454.872 330.992C454.67 330.548 455.234 330.064 456.324 329.54C456.404 329.497 456.526 329.457 456.606 329.378C458.14 328.692 460.44 327.966 462.902 327.158C462.941 327.198 463.021 327.198 463.104 327.24C464.757 327.804 470.526 329.62 477.306 328.331C482.956 327.24 488.563 324.576 492.88 323.284C493.242 323.204 493.606 323.082 493.97 323.002C494.05 322.963 494.13 322.963 494.212 322.923C494.292 323.082 494.332 323.284 494.372 323.446C494.776 324.818 495.14 326.27 495.14 327.764Z" fill="#365DA4"/>
<path d="M493.686 330.345L493.444 330.789L492.718 332.161L491.711 334.057H486.747V333.049L486.707 331.959V331.475L493.404 330.385L493.686 330.345Z" fill="#365DA4"/>
<path d="M509.921 324.656C510.203 326.028 510.485 327.439 510.405 328.894C510.203 329.699 509.679 330.306 508.911 330.789L508.185 332.161C507.42 332.526 505.564 332.807 503.182 333.049L503.142 331.919C502.82 331.919 502.496 331.919 502.174 331.959V331.919C499.351 331.959 495.838 332.201 491.561 333.898C491.521 333.898 491.481 333.937 491.441 333.937C490.676 333.977 489.907 334.017 489.221 334.057H478.813C473.809 333.331 471.831 331.316 471.47 330.306C471.47 330.024 475.221 328.168 478.326 327.28C478.369 327.28 478.448 327.24 478.571 327.24C479.015 327.078 479.86 326.754 480.062 326.714C480.629 326.512 481.275 326.352 481.838 326.19C487.044 324.656 490.553 321.186 494.669 317.353C499.391 312.955 505.806 293.345 504.958 292.984L515.571 294.356C515.571 294.356 507.055 311.381 507.741 316.667C508.023 319.009 508.871 320.984 509.438 323.002C509.477 323.082 509.477 323.204 509.517 323.284C509.637 323.569 509.719 323.851 509.799 324.132C509.839 324.334 509.882 324.497 509.921 324.656Z" fill="#FFB27D"/>
<path d="M600.308 64.1591L596.756 78.2574L578.104 151.955C577.39 153.067 571.453 155.415 564.881 157.62C557.058 160.235 548.321 162.7 546.668 162.556C543.642 162.311 541.97 155.991 542.831 154.209C543.388 153.033 553.361 147.741 561.161 142.998C565.515 140.352 569.184 137.881 570.2 136.408C572.032 133.68 576.591 108.588 580.306 90.2214C582.198 80.8021 583.891 73.1466 584.868 71.1378C587.355 65.8984 597.025 64.4837 599.643 64.2142C600.063 64.1591 600.308 64.1591 600.308 64.1591Z" fill="#471C8A"/>
<path d="M640.067 177.442L594.428 175.574C594.428 175.574 525.015 180.057 519.126 190.146L494.938 314.995C494.938 314.995 499.161 316.437 501.81 316.636C506.032 316.951 508.935 315.564 508.935 315.564C508.935 315.564 541.474 271.187 545.835 243.974C549.476 221.231 550.915 218.854 563.384 219.326C575.853 219.798 614.112 222.811 632.292 219.289C650.472 215.768 640.067 177.442 640.067 177.442Z" fill="#A25DCF"/>
<path d="M510.607 327.764C510.607 328.168 510.567 328.569 510.405 328.894C510.203 329.699 509.679 330.306 508.911 330.789C508.831 330.869 508.752 330.912 508.669 330.952C508.669 330.952 508.669 330.952 508.629 330.952C508.589 330.992 508.549 330.992 508.51 331.031C507.178 331.84 505.401 331.84 503.142 331.919H502.174C499.351 331.959 495.838 332.201 491.56 333.898C491.521 333.898 491.481 333.937 491.441 333.937C491.319 333.977 491.239 334.017 491.116 334.057H473.484C471.065 333.089 470.581 331.558 470.34 330.992C470.137 330.548 470.701 330.064 471.791 329.54C471.871 329.497 471.993 329.457 472.073 329.378C473.607 328.692 475.907 327.966 478.369 327.158C478.408 327.198 478.488 327.198 478.571 327.24C480.224 327.804 485.993 329.62 492.773 328.331C498.423 327.24 504.03 324.576 508.347 323.284C508.709 323.204 509.073 323.082 509.437 323.002C509.517 322.963 509.597 322.963 509.679 322.923C509.759 323.082 509.799 323.284 509.839 323.446C510.243 324.818 510.607 326.27 510.607 327.764Z" fill="#466AA5"/>
<path d="M509.153 330.345L508.911 330.789L508.185 332.161L507.178 334.057H502.214V333.049L502.174 331.959V331.475L508.871 330.385L509.153 330.345Z" fill="#466AA5"/>
<path d="M623.136 44.3438C645.025 42.6811 649.306 -2.24114 623.265 3.22792C623.265 3.22792 619.615 0.842472 617.811 0.817974C617.811 0.817974 619.208 1.32936 619.814 2.20209C617.003 1.57434 612.639 0.554626 609.204 2.50217C573.988 22.4768 614.654 44.9869 623.136 44.3438Z" fill="#163560"/>
<path d="M598.44 68.2595C598.351 68.2839 605.639 73.7071 611.889 73.0395C617.765 72.4179 622.628 65.7148 622.555 65.6841C620.246 64.8237 620.09 61.4369 622.423 47.3662L621.311 47.406L602.608 48.0552C602.608 48.0552 602.096 53.8243 601.236 59.1984C600.516 63.7121 599.552 67.9471 598.44 68.2595Z" fill="#FFB27D"/>
<path d="M596.756 78.2575L578.104 151.955C577.39 153.067 571.453 155.415 564.881 157.62C564.324 156.264 563.801 154.705 563.301 152.99C562.306 149.557 561.58 146.21 561.161 142.998C565.515 140.352 569.184 137.881 570.2 136.408C572.032 133.68 576.591 108.588 580.306 90.2214C588.665 82.0148 596.554 77.9788 596.554 77.9788L596.756 78.2575Z" fill="#FC8460"/>
<path d="M602.607 48.0551C602.607 48.0551 602.096 53.8242 601.236 59.1984C611.423 60.558 618.283 52.1768 621.311 47.4059L602.607 48.0551Z" fill="#EF9A60"/>
<path d="M623.501 45.737C623.501 45.737 630.176 38.201 632.617 31.2284C634.359 26.2493 634.828 6.82584 615.291 6.46757C615.291 6.46757 609.656 6.11235 603.872 8.7887C599.273 10.9169 592.312 15.991 596.311 33.6567L597.141 39.5391L623.501 45.737Z" fill="#163560"/>
<path d="M598.397 52.5933C598.397 52.5933 622.325 56.8804 624.763 41.9369C627.203 26.9935 631.934 17.4854 616.761 14.117C601.585 10.7486 597.678 15.9635 595.65 20.7528C593.623 25.542 592.236 51.0928 598.397 52.5933Z" fill="#FFB27D"/>
<path d="M605.893 11.9796C605.893 11.9796 609.617 30.5763 619.278 34.8051C628.939 39.0309 633.75 37.0375 633.75 37.0375C633.75 37.0375 627.013 29.6423 627.148 18.6583C627.148 18.6583 612.201 4.43747 605.893 11.9796Z" fill="#163560"/>
<path d="M607.29 13.667C607.29 13.667 601.75 16.7843 599.934 20.3977C598.122 24.008 596.315 31.7553 594.073 31.1184C594.073 31.1184 591.057 18.4012 597.711 12.5585C604.77 6.36679 607.29 13.667 607.29 13.667Z" fill="#163560"/>
<path d="M641.95 200.117C640.049 203.528 635.918 203.801 630.724 202.303C628.219 201.611 625.5 200.475 622.649 199.155C622.389 198.99 622.083 198.858 621.82 198.733C613.408 194.633 604.028 188.453 596.697 183.747C581.331 173.899 580.315 179.417 575.758 173.975C575.758 173.975 580.44 169.054 574.435 111.55C572.73 95.0842 600.308 64.1592 600.308 64.1592C600.308 64.1592 600.491 74.3654 622.542 65.678C623.323 65.3963 629.352 78.3922 634.616 94.0828C635.477 96.5908 636.288 99.1354 637.057 101.714C640.725 113.877 643.448 126.579 642.713 135.413C642.535 137.508 642.186 139.415 641.601 140.995C641.537 141.149 641.473 141.302 641.405 141.455C633.839 159.644 647.386 190.29 641.95 200.117Z" fill="#A25DCF"/>
<path d="M566.088 128.263L525.447 125.357L542.849 172.741L580.906 176.688L566.088 128.263Z" fill="#B64C41"/>
<path d="M565.726 128.774L525.085 125.871L542.488 173.252L580.544 177.203L565.726 128.774Z" fill="#FF928E"/>
<path d="M562.067 127.975C562.067 127.975 563.044 121.835 559.584 121.71C556.124 121.584 554.099 127.586 554.099 127.586L562.067 127.975Z" fill="#B2CBFD"/>
<path d="M555.563 133.536C556.531 137.903 562.119 145.05 561.785 148.666L535.809 148.329C535.809 148.329 535.977 146.648 530.429 134.712C528.147 129.803 530.848 120.935 533.188 120.733L559.578 121.701C559.578 121.701 553.68 125.023 555.563 133.536Z" fill="#D2E9FF"/>
<path d="M525.447 125.357L525.085 125.871L525.982 125.927L525.903 125.611L525.447 125.357Z" fill="#B64C41"/>
<path d="M580.544 177.203L580.906 176.688L580.22 176.158L580.544 177.203Z" fill="#B64C41"/>
<path d="M641.95 200.117C640.049 203.528 635.918 203.801 630.724 202.303C628.219 201.611 625.5 200.475 622.649 199.155C612.55 192.612 601.738 182.154 595.668 165.392C582.03 127.739 634.479 100.477 634.479 100.477L637.057 101.714C640.725 113.877 643.448 126.579 642.713 135.413C642.535 137.508 642.186 139.415 641.601 140.995C641.537 141.149 641.473 141.302 641.405 141.455C633.839 159.644 647.386 190.29 641.95 200.117Z" fill="#A25DCF"/>
<path d="M581.607 161.215L579.963 160.045L595.727 137.838L597.371 139.005L581.607 161.215Z" fill="#D16E24"/>
<path d="M579.963 160.045L579.834 162.023L581.607 161.215L579.963 160.045Z" fill="#F1A34F"/>
<path d="M600.991 150.473C600.991 150.473 593.877 147.521 590.27 148.351C586.66 149.181 579.319 151.594 579.644 153.575C579.966 155.559 587.826 157.862 591.516 156.53C595.206 155.198 597.328 157.988 601.689 157.28C606.052 156.57 600.991 150.473 600.991 150.473Z" fill="#FFB27D"/>
<path d="M622.554 65.6841C622.554 65.6841 644.951 69.4873 647.741 75.3912C650.531 81.292 648.678 143.157 646.939 149.689C645.196 156.218 609.017 159.295 598.183 158.9C598.183 158.9 596.477 151.557 598.504 147.457C600.531 143.356 627.307 138.925 629.506 135.875C631.704 132.826 625.111 95.225 625.963 87.8696C626.814 80.5143 622.554 65.6841 622.554 65.6841Z" fill="#471C8A"/>
<path d="M534.786 152.837C534.786 152.837 542.182 152.12 541.18 155.152C540.179 158.183 537.386 159.647 537.386 159.647C537.386 159.647 531.666 155.525 534.786 152.837Z" fill="#FFB27D"/>
<path d="M668.258 195.398V240.109C668.258 247.967 666.038 254.321 663.294 254.321H575.737C572.993 254.321 570.773 247.967 570.773 240.109V195.398C570.773 187.544 577.755 179.763 601.713 181.187H663.294C666.038 181.187 668.258 187.544 668.258 195.398Z" fill="#F1A34F"/>
<path d="M679.857 195.398V240.109C679.857 247.967 677.637 254.321 674.893 254.321H587.336C584.593 254.321 582.373 247.967 582.373 240.109V195.398C582.373 187.544 589.86 180.519 607.513 181.187L670.055 180.77C679.888 180.77 679.857 187.544 679.857 195.398Z" fill="#DF812F"/>
</svg>
