<svg width="193" height="170" viewBox="0 0 193 170" fill="none" xmlns="http://www.w3.org/2000/svg">
<path fill-rule="evenodd" clip-rule="evenodd" d="M102.498 11.7352C89.8425 13.7543 80.8686 19.8518 76.495 29.4065C75.0167 32.6324 73.444 32.6371 71.8665 29.4183C65.514 16.4677 42.5292 14.9233 30.8326 26.6577C23.3441 34.1721 22.0217 42.1493 26.5794 52.3275C26.7188 52.6392 26.1331 52.6605 24.4895 52.4031C2.23679 48.8915 -8.40662 79.9857 11.2767 91.0023C11.7608 91.2738 11.6901 91.6422 10.8281 93.3449C6.79227 101.308 8.37918 111.316 14.6608 117.513C21.0866 123.856 31.9543 125.488 37.1851 120.894L38.5123 119.73L38.7579 120.84C39.9859 126.392 42.1018 129.939 45.9109 132.832C55.4303 140.061 70.929 137.463 76.24 127.75L77.3712 125.679L78.9888 128.943C83.1074 137.25 91.5994 141.966 100.075 140.651L102.819 140.226L106.848 142.193C116.119 146.72 123.357 154.19 127.686 163.692C132.062 173.302 139.685 171.665 142.101 160.599C143.048 156.258 142.634 156.627 145.428 157.635C162.918 163.95 180.088 148.25 172.945 132.475L172.007 130.407L173.913 128.624C176.485 126.217 177.62 123.57 177.651 119.912L177.675 117.085L179.052 116.826C190.597 114.644 196.38 98.2923 190.028 85.7904C187.159 80.1416 179.462 73.3428 175.941 73.3428C175.722 73.3428 175.986 72.4548 176.532 71.3732C179.807 64.8483 179.011 56.191 174.562 49.9565C172.406 46.9314 172.083 46.6882 171.287 47.484C170.741 48.0272 170.822 48.2586 172.078 49.7936C176.962 55.7541 177.972 63.3063 174.827 70.3271C173.894 72.4076 173.7 72.606 172.784 72.4241C166.62 71.1938 157.396 72.6012 157.082 74.8187C156.926 75.9168 157.29 75.9215 160.554 74.8659C168.413 72.3226 178.218 74.7904 184.086 80.791C194.853 91.8028 192.094 110.955 179.186 114.79L177.193 115.38L176.515 113.956C175.438 111.703 173.66 109.684 171.528 108.303C169.917 107.261 169.605 106.879 169.823 106.222C171.289 101.778 169.421 93.4323 167.409 95.4443C166.892 95.9591 166.918 96.2307 167.617 97.7704C171.129 105.511 164.075 113.671 155.535 111.746C154.163 111.437 153.32 112.315 154.168 113.165C156.341 115.338 163.77 113.708 167.119 110.327L168.67 108.759L170.557 110.1C181.373 117.789 173.66 134.398 161.937 128.662C160.377 127.899 159.574 127.691 159.286 127.979C157.415 129.852 164.623 132.405 169.043 131.434C172.527 130.669 173.837 141.343 170.975 147.19C164.757 159.897 143.145 160.422 136.946 148.014C135.125 144.373 135.271 143.683 138.065 142.665C144.429 140.344 147.971 132.99 145.438 127.356C144.058 124.286 142.519 125.455 143.825 128.581C147.017 136.221 137.588 143.754 127.929 141.279C119.654 139.156 115.082 133.64 115.104 125.797C115.12 120.021 113.647 119.737 112.867 125.365C110.154 144.932 83.438 142.75 78.7409 122.581C77.9168 119.038 77.7987 118.802 76.9863 119.114C76.6439 119.244 76.3322 120.221 76.1668 121.69C74.0911 140.028 43.795 139.159 40.7179 120.67L40.4392 118.998H43.3534C47.871 118.998 54.2849 116.677 54.2849 115.043C54.2849 114.006 53.345 113.864 52.0769 114.707C47.1531 117.99 39.5655 117.68 35.9359 114.051C33.4799 111.597 33.0737 109.628 34.0419 104.893C34.4646 102.826 32.7218 103.266 31.9543 105.419C30.4665 109.609 32.6864 115.038 36.8427 117.362C38.5572 118.32 34.2474 121.074 30.2753 121.556C20.6449 122.722 11.0689 114.136 10.6604 103.969C10.4148 97.8908 12.5922 91.876 14.8474 92.3932C20.7701 93.7511 30.1406 92.0744 29.8029 89.7176C29.6612 88.7234 29.3755 88.7494 25.5522 90.1025C15.4779 93.6637 4.42834 86.6878 2.73985 75.6972C0.876601 63.5802 12.1293 52.4999 24.3407 54.4245C25.982 54.6843 27.6776 54.9276 28.1097 54.9677C29.4723 55.0929 29.2999 53.2036 27.6445 49.855C22.494 39.4336 29.3165 25.9658 41.6838 22.1448C53.2624 18.5695 65.9438 21.9819 69.871 29.7301C71.0919 32.1412 71.1132 32.0562 69.0374 33.1566C65.4904 35.0364 62.6235 39.4241 62.2504 43.5379C61.9434 46.9173 63.7333 46.896 64.2174 43.5143C66.0335 30.8352 82.9232 29.9733 87.0889 42.3477C87.3747 43.1978 88.468 43.2522 88.7821 42.4303C89.833 39.6957 84.2432 33.3597 79.5721 31.9877C77.5719 31.402 77.5696 31.3689 79.1258 28.4454C85.8893 15.7592 105.679 9.63344 122.146 15.1287C124.904 16.0497 125.723 16.1914 125.976 15.7947C126.529 14.9233 126.359 14.6895 124.637 13.9527C118.899 11.4943 109.75 10.5781 102.498 11.7352ZM125.773 44.6148C123.577 45.7105 121.588 47.314 121.588 47.987C121.588 49.0261 122.698 49.0332 124.049 48.0012C124.777 47.4486 126.217 46.6221 127.249 46.1639C129.065 45.361 129.105 45.3067 128.446 44.577C127.622 43.6678 127.669 43.6678 125.773 44.6148ZM99.35 51.0665C94.3152 52.6629 88.7727 57.7496 91.0988 58.6422C91.4932 58.7934 92.3787 58.1676 93.6539 56.838C102.328 47.791 117.007 53.6358 117.05 66.1543C117.059 68.5819 117.201 69.451 117.619 69.6115C118.644 70.0035 119.029 68.9975 119.029 65.9417C119.029 55.6053 108.983 48.0106 99.35 51.0665ZM145.284 58.4533C145.388 61.0368 145.482 61.3367 146.186 61.3367C147.487 61.3367 147.374 55.884 146.07 55.6998C145.19 55.5746 145.171 55.6455 145.284 58.4533ZM62.6778 61.6815C58.1649 63.1622 54.2518 67.531 53.8197 71.5716C53.5599 73.9993 55.2885 73.3664 56.0466 70.7545C58.7458 61.4737 72.0838 60.6708 75.9732 69.5572C76.9839 71.8668 77.1871 76.0986 76.3605 77.6195C75.9331 78.4059 75.9519 78.6467 76.4832 79.1781C77.4255 80.1227 78.1954 79.1356 78.7149 76.3159C80.4105 67.1532 71.3092 58.85 62.6778 61.6815ZM98.3699 73.142C96.7971 75.036 99.2153 82.4063 102.436 85.5424C103.617 86.6925 104.186 87.5426 104.052 87.9653C99.4066 102.713 116.837 114.53 128.616 104.619C131.162 102.477 129.641 101.339 126.966 103.381C117.635 110.504 105.06 103.929 105.516 92.1689C105.672 88.1094 105.66 88.1283 107.799 88.884C113.866 91.0235 121.593 88.1424 123.544 83.0156C124.068 81.6364 124.066 79.3647 123.539 79.0388C122.885 78.6349 121.98 79.6386 121.978 80.7698C121.973 84.2648 117.494 87.5568 112.711 87.5851C105.738 87.6253 100.646 82.8101 99.9899 75.5508C99.7373 72.7524 99.2696 72.0557 98.3699 73.142ZM131.578 84.5411C131.181 85.5731 131.764 85.8329 134.893 86.0124C152.857 87.0538 154.185 112.844 136.348 114.254C133.816 114.455 133.58 114.549 133.46 115.411C133.328 116.344 133.344 116.346 136.419 116.169C154.255 115.137 156.52 90.086 139.265 84.7135C136.327 83.7996 131.899 83.7004 131.578 84.5411ZM65.403 99.2133C62.999 100.052 67.0041 105.089 71.798 107.257C75.6804 109.011 84.0142 107.963 85.5279 105.528C86.456 104.038 85.1902 103.84 82.5406 105.058C76.7713 107.715 66.8789 104.619 66.8789 100.158C66.8789 99.355 66.2154 98.9299 65.403 99.2133ZM118.313 138.28C121.976 141.629 127.32 143.768 132.067 143.787C133.665 143.794 133.691 143.818 133.951 145.443C134.364 148.017 136.457 151.521 138.927 153.765L141.163 155.798L140.467 159.22C139.146 165.69 137.708 167.804 134.615 167.804C132.395 167.804 131.254 166.656 129.001 162.153C124.066 152.291 117.916 145.868 108.695 140.939L105.492 139.229L107.972 137.43C109.561 136.277 110.992 134.794 111.956 133.302L113.458 130.971L114.783 133.616C115.649 135.349 116.865 136.958 118.313 138.28Z" fill="#481B8B"/>
<path fill-rule="evenodd" clip-rule="evenodd" d="M102.925 13.5323C92.0765 15.2397 83.1995 20.8035 79.1259 28.4454C77.5696 31.3689 77.5719 31.402 79.5722 31.9877C84.2433 33.3597 89.833 39.6957 88.7821 42.4303C88.468 43.2522 87.3747 43.1978 87.0889 42.3477C82.9232 29.9733 66.0335 30.8352 64.2175 43.5143C63.7333 46.896 61.9434 46.9173 62.2504 43.5379C62.6235 39.4241 65.4904 35.0364 69.0374 33.1566C71.1132 32.0562 71.0919 32.1412 69.871 29.73C65.9438 21.9819 53.2623 18.5695 41.6838 22.1448C29.3164 25.9658 22.494 39.4336 27.6445 49.855C29.2999 53.2036 29.4724 55.0929 28.1098 54.9677C27.6776 54.9276 25.982 54.6843 24.3407 54.4245C12.1269 52.4975 0.864765 63.5944 2.73982 75.709C4.44012 86.6948 15.4826 93.6613 25.5522 90.1025C29.3755 88.7494 29.6612 88.7234 29.8029 89.7176C30.1406 92.0744 20.7701 93.7511 14.8474 92.3932C12.5922 91.876 10.4148 97.8908 10.6604 103.969C11.069 114.136 20.645 122.722 30.2753 121.556C34.2474 121.074 38.5571 118.32 36.8427 117.362C32.6864 115.038 30.4665 109.609 31.9543 105.419C32.7218 103.266 34.4646 102.826 34.0419 104.893C33.0737 109.628 33.4798 111.597 35.9358 114.051C39.5655 117.68 47.1531 117.99 52.0769 114.707C53.345 113.864 54.2849 114.006 54.2849 115.043C54.2849 116.677 47.871 118.998 43.3534 118.998H40.4392L40.7179 120.67C43.795 139.159 74.0911 140.028 76.1669 121.69C76.3322 120.221 76.6438 119.244 76.9863 119.114C77.7986 118.802 77.9168 119.038 78.7409 122.581C83.438 142.75 110.154 144.932 112.867 125.365C113.647 119.737 115.12 120.021 115.104 125.797C115.082 133.64 119.654 139.156 127.929 141.279C137.588 143.754 147.017 136.221 143.825 128.581C142.519 125.455 144.058 124.286 145.438 127.356C147.971 132.99 144.429 140.344 138.065 142.665C135.271 143.683 135.125 144.373 136.946 148.014C143.145 160.422 164.757 159.897 170.975 147.19C173.837 141.343 172.527 130.669 169.043 131.434C164.623 132.405 157.415 129.852 159.286 127.979C159.574 127.691 160.377 127.899 161.938 128.662C173.66 134.398 181.373 117.789 170.557 110.1L168.67 108.759L167.119 110.327C163.77 113.708 156.341 115.338 154.168 113.165C153.32 112.315 154.163 111.437 155.535 111.746C164.075 113.671 171.129 105.511 167.617 97.7704C166.918 96.2307 166.892 95.9591 167.409 95.4443C169.421 93.4323 171.289 101.778 169.823 106.222C169.605 106.879 169.917 107.261 171.528 108.303C173.66 109.684 175.438 111.703 176.515 113.956L177.193 115.38L179.186 114.79C192.094 110.955 194.853 91.8028 184.086 80.791C178.218 74.7904 168.413 72.3226 160.554 74.8659C157.29 75.9215 156.926 75.9168 157.082 74.8187C157.396 72.6012 166.62 71.1937 172.784 72.4241C173.7 72.6059 173.894 72.4076 174.827 70.3271C177.925 63.4125 176.926 55.5675 172.234 49.9778L170.956 48.457L168.009 50.5729C162.526 54.5072 157.611 56.1532 151.221 56.1933L147.202 56.2217L147.088 58.7792C146.909 62.7844 145.452 62.6049 145.286 58.5572L145.171 55.7753L142.531 54.9228C138.766 53.709 134.284 50.9484 131.309 48.0177L128.744 45.4909L127.046 46.2513C126.113 46.6693 124.76 47.4604 124.04 48.0106C122.689 49.0403 121.588 49.0237 121.588 47.9705C121.588 47.2856 124.288 45.2099 126.248 44.3857C126.97 44.0834 127.492 43.6985 127.407 43.5332C122.623 34.1579 121.81 25.7178 124.928 17.7713L125.499 16.3189L123.275 15.4877C118.051 13.5323 108.652 12.6302 102.925 13.5323ZM108.454 51.0972C114.502 52.8943 119.029 59.2491 119.029 65.9417C119.029 68.9975 118.644 70.0035 117.619 69.6115C117.201 69.4509 117.059 68.5819 117.05 66.1543C117.007 53.6358 102.328 47.791 93.654 56.838C92.3787 58.1676 91.4932 58.7934 91.0988 58.6422C88.7727 57.7496 94.3152 52.6628 99.35 51.0665C101.518 50.3792 106.087 50.3958 108.454 51.0972ZM71.7507 62.5128C77.7089 65.3324 81.3527 75.5673 77.6995 79.2206C76.736 80.1841 75.6638 78.8994 76.3605 77.6195C77.187 76.0986 76.984 71.8668 75.9732 69.5572C72.0838 60.6708 58.7458 61.4737 56.0466 70.7545C55.2885 73.3664 53.5599 73.9992 53.8197 71.5716C54.6462 63.8423 64.2765 58.9776 71.7507 62.5128ZM0.475153 73.1444C0.477515 74.2283 0.555438 74.6227 0.645176 74.0252C0.734914 73.4278 0.732528 72.5422 0.640428 72.0581C0.545967 71.574 0.472792 72.0628 0.475153 73.1444ZM99.9899 75.5508C100.646 82.8101 105.738 87.6253 112.711 87.5851C117.494 87.5568 121.973 84.2648 121.978 80.7697C121.98 79.6386 122.885 78.6349 123.539 79.0387C124.066 79.3646 124.068 81.6364 123.544 83.0156C121.593 88.1424 113.866 91.0235 107.8 88.884C105.66 88.1283 105.672 88.1094 105.516 92.1689C105.06 103.929 117.635 110.504 126.966 103.381C129.641 101.339 131.162 102.477 128.616 104.619C116.837 114.53 99.4066 102.713 104.052 87.9653C104.186 87.5426 103.617 86.6925 102.436 85.5424C99.2154 82.4063 96.7971 75.036 98.3699 73.142C99.2697 72.0557 99.7372 72.7524 99.9899 75.5508ZM139.265 84.7135C156.52 90.086 154.255 115.137 136.419 116.169C133.344 116.346 133.328 116.344 133.46 115.411C133.58 114.549 133.816 114.455 136.348 114.254C154.185 112.844 152.857 87.0538 134.893 86.0123C131.764 85.8329 131.181 85.5731 131.578 84.5411C131.899 83.7004 136.327 83.7996 139.265 84.7135ZM66.8789 100.158C66.8789 104.619 76.7714 107.715 82.5406 105.058C85.1902 103.84 86.456 104.038 85.5279 105.528C84.0142 107.963 75.6804 109.011 71.798 107.257C67.0041 105.089 62.999 100.052 65.403 99.2133C66.2154 98.9299 66.8789 99.355 66.8789 100.158ZM152.98 159.028C153.471 159.123 154.18 159.121 154.555 159.021C154.931 158.922 154.532 158.847 153.665 158.849C152.798 158.854 152.491 158.934 152.98 159.028Z" fill="#B155B5"/>
<path fill-rule="evenodd" clip-rule="evenodd" d="M146.385 0.404598C130.673 3.007 119.98 19.4503 123.936 34.9183C129.386 56.224 156.317 63.2638 171.398 47.3258C189.721 27.9613 172.706 -3.95714 146.385 0.404598ZM156.145 8.87304C156.475 9.2013 156.617 11.3385 156.617 15.9576V22.5699H163.229C171.282 22.5699 170.786 22.2086 170.786 28.0793C170.786 33.9501 171.282 33.5888 163.229 33.5888H156.617V40.2011C156.617 48.2539 156.979 47.758 151.108 47.758C145.235 47.758 145.596 48.2539 145.596 40.2011V33.5888H138.984C130.933 33.5888 131.427 33.9501 131.427 28.0793C131.427 22.2086 130.933 22.5699 138.984 22.5699H145.596V15.9576C145.596 7.90482 145.235 8.40074 151.108 8.40074C154.133 8.40074 155.831 8.55896 156.145 8.87304Z" fill="#F6A532"/>
<path fill-rule="evenodd" clip-rule="evenodd" d="M23.6749 42.2486C23.6749 43.0066 23.7576 43.316 23.8567 42.9381C23.9536 42.5579 23.9536 41.9392 23.8567 41.559C23.7576 41.1811 23.6749 41.4905 23.6749 42.2486ZM129.854 46.7C129.854 46.7685 130.428 47.3447 131.132 47.98L132.411 49.1371L131.254 47.8572C130.177 46.6646 129.854 46.3978 129.854 46.7ZM149.828 56.3091C150.531 56.3965 151.682 56.3965 152.385 56.3091C153.089 56.2217 152.513 56.1509 151.108 56.1509C149.7 56.1509 149.124 56.2217 149.828 56.3091ZM6.63885 58.2881L5.28333 59.764L6.7593 58.4061C7.5693 57.6599 8.23523 56.9963 8.23523 56.9302C8.23523 56.6303 7.90227 56.9136 6.63885 58.2881ZM8.35332 103.254C8.35332 104.444 8.42655 104.933 8.51629 104.338C8.60603 103.743 8.60603 102.767 8.51629 102.172C8.42655 101.577 8.35332 102.064 8.35332 103.254ZM136.938 152.182C136.938 152.251 137.512 152.827 138.216 153.462L139.496 154.617L138.339 153.34C137.262 152.147 136.938 151.878 136.938 152.182Z" fill="#CCD3DB"/>
</svg>
