<svg width="159" height="171" viewBox="0 0 159 171" fill="none" xmlns="http://www.w3.org/2000/svg">
<path fill-rule="evenodd" clip-rule="evenodd" d="M45.5818 43.896C33.8907 49.2012 23.1077 60.7732 18.6363 72.8113C16.0571 79.7565 14.7399 81.4018 8.41957 85.5658C-0.806259 91.6462 -1.44845 95.0713 5.68326 100.169C6.89001 101.033 6.38936 102.583 4.23137 104.665C2.45319 106.383 2.19598 107.496 3.218 109.046L3.77387 109.889L3.07125 110.723C2.54643 111.346 2.37035 111.893 2.37207 112.9C2.3738 114.184 2.54297 114.581 3.91027 116.504C4.68369 117.594 4.56285 118.797 3.36819 121.87C-0.398796 131.564 3.40613 136.094 18.1443 139.459C25.718 141.188 28.6028 142.59 31.9537 146.172C36.1195 150.627 38.7367 159.027 38.2412 166.357L38.0824 168.693L41.8788 169.32C43.966 169.663 46.0618 170.004 46.5365 170.076C57.1901 171.676 72.7483 170.206 85.1317 166.425L88.0459 165.536L87.2241 163.721C83.9111 156.415 84.2547 146.977 88.0976 139.788C90.0536 136.13 93.8948 131.899 103.839 122.445C109.32 117.236 112.842 112.102 115.435 105.545C116.075 103.926 116.6 102.567 116.6 102.524C116.6 101.715 115.098 102.678 114.7 103.743C112.112 110.652 108.685 115.786 102.979 121.295C91.2051 132.663 88.6777 135.515 86.5249 139.852C83.1153 146.725 82.6146 155.3 85.2076 162.404L86.0449 164.702L84.1269 165.285C71.3724 169.159 56.6687 170.221 43.5637 168.213C39.1976 167.545 39.5913 168.03 39.4117 163.095C38.8783 148.47 32.9153 141.466 18.0511 138.005C4.47823 134.844 1.44496 131.32 4.66295 122.445C6.14764 118.35 6.13213 117.257 4.55939 114.971C3.1213 112.879 3.3923 111.61 5.46397 110.743C6.63619 110.253 6.66381 109.561 5.52957 109.164C3.62537 108.501 3.66338 107.27 5.65218 105.186C8.03805 102.685 8.39542 100.33 6.57753 99.0869C0.257218 94.7675 0.747515 92.2884 8.98757 86.9003C15.4184 82.6965 17.0843 80.7008 19.5116 74.2942C24.2471 61.7917 32.7133 52.3052 44.9155 45.8278C47.3548 44.5313 47.7398 44.2326 47.5033 43.8131C47.1615 43.2019 47.108 43.2037 45.5818 43.896Z" fill="#481B8B"/>
<path fill-rule="evenodd" clip-rule="evenodd" d="M101.819 3.29474C101.56 4.70174 101.349 6.05175 101.349 6.29517C101.349 7.70045 99.9748 7.76785 98.1932 6.45061C96.4599 5.16963 94.4434 6.03448 94.4434 8.05953C94.4434 9.82218 95.4326 10.2244 98.6834 9.78594C100.719 9.51144 100.784 10.0328 99.4776 16.1512C99.3584 16.7036 99.5811 16.7899 102.292 17.263C106.64 18.0191 106.993 18.4455 105.211 20.7848C104.325 21.9501 104.313 23.1758 105.18 23.9907C106.68 25.3994 109.094 24.1582 108.707 22.1745C107.944 18.2539 107.902 18.2901 112.267 19.0722L115.405 19.6333L115.875 17.0178C116.132 15.5797 116.41 14.1762 116.491 13.8982C116.667 13.2975 115.757 13.218 114.349 13.7083C112.353 14.404 110.558 13.0609 110.558 10.8718C110.558 8.16312 113.004 7.32414 115.713 9.10577C117.272 10.1295 117.137 10.2849 117.784 6.73888C118.423 3.24985 118.76 3.72287 115.151 3.03576C111.719 2.38146 111.773 2.36248 112.227 4.0578C112.981 6.87872 112.02 8.50328 109.598 8.50328C106.979 8.50328 106.045 6.02586 107.716 3.50533C108.21 2.75953 108.534 2.07073 108.439 1.97405C108.28 1.81522 103.379 0.786304 102.609 0.75005C102.426 0.741418 102.083 1.84457 101.819 3.29474ZM77.8252 21.1732C76.1333 21.8534 76.3025 23.8077 78.1877 25.3528C80.2024 27.0032 80.035 27.4366 76.6771 29.2355C75.1337 30.0607 73.8407 30.7599 73.8044 30.7892C73.7682 30.8169 74.3966 32.0857 75.2011 33.6067C76.8067 36.6451 76.9913 36.7315 78.1497 34.9809C79.5982 32.7901 82.4519 32.885 83.3997 35.1535C84.3112 37.3339 82.6297 39.2899 79.8416 39.2899C79.1217 39.2916 78.6193 39.4246 78.6193 39.6179C78.6193 40.0288 81.2866 45.0457 81.5059 45.0457C81.5939 45.0457 82.8852 44.3983 84.3734 43.6076C88.0523 41.6516 88.092 41.6603 88.439 44.6055C88.6652 46.5218 89.3419 47.3539 90.6626 47.3384C93.1106 47.309 93.5889 44.3707 91.3705 42.9982C89.0709 41.5774 89.3351 40.9041 92.9415 38.9947L95.7987 37.4824L94.4158 34.8618C92.8189 31.8354 92.4563 31.6351 91.4188 33.2044C90.0687 35.2433 87.9643 35.4746 86.5089 33.7448C84.8585 31.7836 86.0791 29.5411 88.9829 29.1975C89.9497 29.0836 90.8128 28.9195 90.8991 28.8315C91.0442 28.6882 88.6169 23.9078 88.1369 23.3882C88.023 23.2673 86.7351 23.8181 85.2746 24.6122C81.606 26.6044 80.9206 26.3749 80.9206 23.1569C80.9206 21.4374 79.4739 20.512 77.8252 21.1732ZM124.685 26.7063C123.5 27.3157 123.354 27.8371 123.771 29.9433C124.332 32.766 124.191 32.8505 120.104 32.1565L116.897 31.611L116.752 32.5018C116.674 32.9921 116.477 34.1609 116.317 35.1C115.828 37.9486 115.833 37.9624 117.247 37.7103C119.661 37.2805 120.367 37.3995 121.247 38.3836C123.854 41.3012 120.189 44.5192 116.916 42.1886C115.462 41.1545 115.283 41.3322 114.842 44.255C114.621 45.719 114.442 47.1053 114.442 47.3384C114.442 47.7544 120.256 48.9663 120.6 48.6228C120.678 48.5434 120.586 47.8994 120.396 47.1899C119.657 44.4225 120.657 42.6133 122.929 42.6133C125.518 42.6133 126.563 45.2097 124.938 47.606C123.713 49.4169 123.561 49.3237 129.014 50.0937C130.53 50.306 130.363 50.5891 130.982 46.7721C131.5 43.5904 131.493 43.6076 132.374 43.6076C132.816 43.6076 133.615 43.9305 134.15 44.3259C135.395 45.2443 136.723 45.265 137.553 44.3794C138.908 42.9379 137.683 40.4829 135.789 40.8454C132.956 41.3892 132.44 41.391 132.236 40.8593C132.06 40.4018 132.49 36.4431 132.892 34.803C133.03 34.2402 132.838 34.1695 129.955 33.7224C125.771 33.0767 125.346 32.5536 127.117 30.2333C128.736 28.1081 126.962 25.5358 124.685 26.7063ZM61.1172 28.4482C60.38 29.232 60.3162 30.349 60.9394 31.5557C61.1863 32.0322 61.3485 32.835 61.3002 33.3391L61.2104 34.2558L57.8302 34.3369L54.4499 34.4181V37.5532C54.4499 41.7104 54.0684 42.1368 51.515 40.8368C48.979 39.5472 46.6017 42.1161 48.537 44.0514C49.395 44.9094 50.0907 44.9387 51.572 44.1825C54.0304 42.9292 54.4499 43.3987 54.4499 47.4057V50.5132H57.6333C61.1776 50.5132 61.1086 50.5736 60.0244 48.4415C58.4827 45.4117 62.1772 42.6581 64.57 45.0526C65.5626 46.0436 65.6058 47.4298 64.7081 49.4342L64.2247 50.5132H67.3926H70.5623V47.6163C70.5623 43.5006 71.0232 42.9499 73.4402 44.1825C74.9214 44.9387 75.6172 44.9094 76.4735 44.0514C78.4881 42.0367 75.9883 39.4177 73.4402 40.8731C71.1492 42.1834 70.5623 41.4721 70.5623 37.3979V34.3991H67.5653C63.2855 34.3991 62.9661 34.1091 64.2782 31.4107C65.4987 28.8971 62.9454 26.5026 61.1172 28.4482ZM61.2501 45.3547C60.3593 46.0539 60.2212 47.5317 60.9429 48.6314C61.1932 49.0147 61.3537 49.7449 61.3019 50.2767L61.2104 51.2314L57.8302 51.3125L54.4499 51.3937V54.6841C54.4499 58.6617 54.1996 58.9949 51.9639 58.0057C49.6022 56.9612 47.8309 57.657 47.8309 59.6285C47.8309 61.5275 49.4693 62.0368 52.1901 60.982C54.2548 60.1827 54.4499 60.4866 54.4499 64.4935V67.7581L57.8302 67.8392L61.2104 67.9204L61.3002 68.692C61.3485 69.1167 61.188 69.8557 60.9411 70.3322C59.8897 72.3658 60.6459 74.106 62.5795 74.106C64.5044 74.106 65.2174 72.5868 64.2143 70.6204C63.8898 69.9817 63.6619 69.1133 63.712 68.6904L63.8 67.9204L67.182 67.8392L70.5623 67.7581V64.6023C70.5623 61.1443 70.4449 60.9578 68.8359 61.878C66.7504 63.0692 64.2316 61.7934 64.2316 59.5439C64.2316 57.203 66.3102 56.0462 68.6253 57.0993C70.6003 58.0005 70.5623 58.0506 70.5623 54.5495V51.3937L67.182 51.3125C63.251 51.2193 63.0491 51.0225 64.2472 48.4657C65.4574 45.883 63.3529 43.6991 61.2501 45.3547ZM71.3633 54.7256C71.2649 58.774 71.0578 59.064 68.9844 58.0575C66.7659 56.9785 65.2864 57.4464 64.9204 59.3419C64.5493 61.2651 66.4621 62.2233 68.5476 61.1581C71.0267 59.8944 71.4255 60.3605 71.4255 64.5246V67.7771H74.4294C77.8597 67.7771 77.9927 67.689 77.1916 65.9315C76.0039 63.323 77.076 61.1788 79.5758 61.165C81.9582 61.1512 82.9905 63.4283 81.8028 66.0783C81.0553 67.7495 81.0967 67.7771 84.5339 67.7771H87.5379V64.5246C87.5379 60.3605 87.9367 59.8944 90.4158 61.1581C93.1003 62.5289 95.5552 59.9824 93.4525 58.0092C92.6687 57.272 92.0472 57.2996 89.7977 58.1697C87.7329 58.969 87.5379 58.6669 87.5379 54.6496V51.3764H84.5339C81.0967 51.3764 81.0553 51.4023 81.8028 53.0752C82.4882 54.603 82.5054 55.9289 81.8494 56.7368C79.3876 59.777 75.448 56.8318 77.1795 53.2461C78.0893 51.366 78.1031 51.3764 74.6003 51.3764H71.4444L71.3633 54.7256ZM88.4011 54.5408C88.4011 58.1127 88.3286 58.0299 90.6264 57.0769C92.5427 56.2828 93.9082 56.7541 94.6178 58.4528C95.7296 61.1149 92.7585 63.3817 90.1275 61.878C88.5185 60.9578 88.4011 61.1426 88.4011 64.6109V67.7771H91.405C94.8474 67.7771 94.9751 67.689 94.1706 65.8729C93.2556 63.8029 93.5578 62.3459 95.0615 61.569C98.0171 60.0411 100.263 62.7654 98.7801 66.0783C98.0309 67.7495 98.074 67.7771 101.511 67.7771H104.515V64.7369C104.515 60.4675 104.957 59.9168 107.391 61.1581C109.384 62.175 111.132 61.4481 111.132 59.6061C111.132 57.6397 109.415 56.9457 107.203 58.0161C104.911 59.1244 104.526 58.5737 104.519 54.1817L104.515 51.3764H101.33C97.7857 51.3764 97.8565 51.316 98.9406 53.448C100.598 56.7075 96.648 59.5802 94.3174 56.811C93.4438 55.7735 93.4007 54.8102 94.1568 53.2461C95.0649 51.3643 95.0804 51.3764 91.5672 51.3764H88.4011V54.5408ZM146.527 56.3139C143.447 57.0096 143.437 57.0217 144.65 58.7291C146.423 61.2237 145.444 63.7252 142.689 63.7425C140.642 63.7546 139.794 62.4995 140.044 59.8253C140.234 57.7968 140.212 57.6604 139.716 57.8089C139.424 57.8952 138.28 58.1663 137.172 58.4114C136.065 58.6566 134.886 58.919 134.554 58.9949L133.95 59.1331L134.663 62.3303C135.547 66.2958 135.386 66.6549 132.989 66.1025C130.974 65.6363 130.774 65.6622 129.966 66.4685C127.697 68.7387 130.884 71.2385 133.449 69.2014C135.454 67.6096 135.899 67.9445 136.721 71.6614C137.106 73.4016 137.446 74.8656 137.479 74.914C137.62 75.1194 143.646 73.6952 143.646 73.4569C143.646 73.3119 143.233 72.6179 142.725 71.9135C141.494 70.1975 141.507 68.8336 142.762 67.7132C145.177 65.5535 148.036 67.6355 147.323 71.0347C147.136 71.9221 147.043 72.7059 147.114 72.7767C147.24 72.901 153.097 71.658 153.284 71.4681C153.334 71.4163 153.077 70.0145 152.711 68.352C151.78 64.1223 151.913 63.9583 155.64 64.7645C157.502 65.1685 158.831 62.5323 157.457 61.1581C156.597 60.2984 155.162 60.4123 153.861 61.4464C152.699 62.37 151.948 62.5289 151.487 61.9505C151.262 61.6708 149.976 56.452 149.976 55.827C149.976 55.606 149.115 55.7286 146.527 56.3139ZM78.7523 62.0109C77.3815 62.5599 77.0518 63.8754 77.8597 65.5742C78.1394 66.1629 78.3276 66.9967 78.2775 67.4266L78.1877 68.2087L74.8057 68.2898L71.4255 68.3709V71.5268C71.4255 75.0158 71.4894 75.1108 73.2071 74.2217C75.997 72.7784 78.7782 74.9554 77.637 77.6883C76.9482 79.337 75.4963 79.817 73.5904 79.0263C71.3616 78.1026 71.4255 78.0267 71.4255 81.5779V84.7337L74.8057 84.8148L78.1877 84.896L78.2758 85.8023C78.3241 86.3047 78.117 87.1679 77.8114 87.7393C76.653 89.9008 78.3397 92.0104 80.4562 91.0453C81.7009 90.4791 81.9754 89.2672 81.2227 87.6616C80.0211 85.0962 80.218 84.9097 84.2301 84.8165L87.6829 84.7371L87.5931 81.5796C87.4964 78.1837 87.3134 77.8765 85.9478 78.8104C82.9336 80.8752 79.5982 77.3568 82.01 74.6585C82.937 73.6192 84.2871 73.4621 85.7562 74.2217C87.4394 75.0918 87.5344 74.9727 87.5741 71.9481C87.5949 70.4444 87.6276 69.0529 87.6466 68.8561C87.6742 68.5919 86.7523 68.4573 84.2301 68.352L80.7773 68.2087L80.6875 67.4387C80.6392 67.0158 80.8654 66.1474 81.1917 65.5086C82.2914 63.3541 80.7859 61.1961 78.7523 62.0109ZM112.933 61.9609C111.429 62.1957 111.098 63.6804 112.042 65.9592C112.964 68.1828 112.724 68.352 108.652 68.352H105.378V71.6027C105.378 75.7616 105.031 76.1863 102.644 74.9692C100.674 73.9645 99.2272 74.4824 98.8733 76.3175C98.4797 78.3495 100.379 79.1678 102.984 78.0871C105.209 77.1652 105.378 77.4052 105.378 81.4794V84.7527H108.543C112.084 84.7527 112.037 84.7889 111.108 82.738C110.361 81.0927 110.561 79.8635 111.74 78.8708C114.38 76.6507 117.8 79.993 115.835 82.8743C114.751 84.4661 115.174 84.7527 118.613 84.7527H121.779V81.5882C121.779 77.999 121.788 78.0111 119.581 79.0159C117.969 79.7513 116.885 79.5632 115.889 78.3789C113.779 75.8739 116.438 72.7784 119.514 74.1561C121.739 75.1522 121.779 75.1056 121.779 71.5251V68.3693L118.254 68.2881C114.212 68.1966 113.964 67.9929 115.139 65.7399C116.303 63.5043 115.196 61.607 112.933 61.9609ZM94.8923 62.6618C94.2915 63.5181 94.326 64.1741 95.0666 65.9592C95.9885 68.1828 95.7486 68.352 91.676 68.352H88.4011V71.6252C88.4011 75.6442 88.2077 75.9446 86.1429 75.1453C83.2529 74.0266 81.9565 74.4617 81.9565 76.5523C81.9565 78.5308 83.5551 79.2127 85.6682 78.1354C88.0558 76.9183 88.4011 77.343 88.4011 81.5019V84.7527H91.676C95.7486 84.7527 95.9885 84.9218 95.0666 87.1454C94.3122 88.965 94.2777 89.9836 94.9475 90.5723C97.1245 92.4834 99.4051 90.4048 98.2018 87.6081C97.0883 85.0202 97.2039 84.9098 101.133 84.8148L104.515 84.7337V81.5779C104.515 78.0785 104.553 78.1285 102.578 79.028C100.213 80.1052 98.1845 78.9244 98.1845 76.4729C98.1845 74.2631 100.961 72.9096 102.82 74.2113C104.332 75.2713 104.515 74.983 104.515 71.5268V68.3709L101.133 68.2898L97.7529 68.2087L97.6631 67.4387C97.6148 67.0158 97.8478 66.1336 98.181 65.481C99.4534 62.9881 96.4598 60.4227 94.8923 62.6618ZM111.996 79.5735C111.391 80.1777 111.193 81.9887 111.697 82.3012C112.08 82.5377 112.57 84.4178 112.379 84.9184C112.255 85.2412 111.497 85.3276 108.8 85.3276H105.378V88.6025C105.378 92.6198 105.183 92.922 103.119 92.1226C100.399 91.0695 99.2428 91.3768 98.882 93.2448C98.4693 95.3907 100.294 96.1399 103.219 95.0281C105.187 94.2789 105.378 94.581 105.378 98.4309V101.728H108.543C112.122 101.728 112.12 101.73 111.093 99.6134C109.767 96.8875 112.239 94.1805 114.829 95.5202C116.308 96.285 116.852 98.5448 115.871 99.8413C114.694 101.398 115.174 101.728 118.613 101.728H121.779V98.5638C121.779 95.0022 121.748 94.9625 119.764 95.9742C117.378 97.1913 115.16 95.9259 115.16 93.3484C115.16 91.3544 117.833 90.1217 119.764 91.2266C121.575 92.2625 121.779 91.9879 121.779 88.5024V85.3465L118.254 85.2654C114.216 85.1722 114.005 85.0047 115.143 82.7725C116.515 80.0811 114.022 77.5467 111.996 79.5735ZM39.5857 165.173C39.5874 166.44 39.6375 166.922 39.6979 166.245C39.7583 165.568 39.7583 164.533 39.6962 163.944C39.634 163.353 39.5857 163.908 39.5857 165.173ZM58.8367 169.256C59.1146 169.328 59.5669 169.328 59.8448 169.256C60.1211 169.183 59.8949 169.125 59.3408 169.125C58.7866 169.125 58.5604 169.183 58.8367 169.256ZM53.6575 170.696C53.9354 170.767 54.3877 170.767 54.6657 170.696C54.9419 170.623 54.7157 170.563 54.1616 170.563C53.6074 170.563 53.3813 170.623 53.6575 170.696ZM60.1349 170.701C60.494 170.768 61.0119 170.767 61.2864 170.694C61.5609 170.622 61.2691 170.566 60.6355 170.57C60.002 170.573 59.7775 170.632 60.1349 170.701Z" fill="#B155B5"/>
<path fill-rule="evenodd" clip-rule="evenodd" d="M70.6712 37.5653C70.6712 39.3849 70.7179 40.129 70.7748 39.2192C70.8318 38.3094 70.8318 36.8195 70.7748 35.9097C70.7179 34.9999 70.6712 35.7439 70.6712 37.5653ZM79.8419 39.2019C80.1181 39.2744 80.5721 39.2744 80.8484 39.2019C81.1263 39.1294 80.8984 39.0707 80.346 39.0707C79.7918 39.0707 79.5656 39.1294 79.8419 39.2019ZM70.5625 47.4817V50.4925L67.4688 50.5858L64.3768 50.6789L67.6138 50.7394L70.8508 50.7998V47.6353C70.8508 45.8951 70.7852 44.4708 70.7058 44.4708C70.6264 44.4708 70.5625 45.8261 70.5625 47.4817ZM55.9607 50.7256C56.8705 50.7825 58.3587 50.7825 59.2685 50.7256C60.1783 50.6686 59.4342 50.622 57.6146 50.622C55.795 50.622 55.0509 50.6686 55.9607 50.7256ZM70.6712 54.5409C70.6712 56.3605 70.7179 57.1046 70.7748 56.1948C70.8318 55.285 70.8318 53.7968 70.7748 52.887C70.7179 51.9772 70.6712 52.7213 70.6712 54.5409ZM87.6486 54.6842C87.6486 56.5832 87.6952 57.3238 87.7522 56.3277C87.8091 55.3333 87.8074 53.7796 87.7504 52.8749C87.6935 51.972 87.6486 52.7852 87.6486 54.6842ZM88.2218 54.3976C88.2218 56.1378 88.2701 56.8129 88.3271 55.8979C88.384 54.9812 88.384 53.5569 88.3253 52.7316C88.2683 51.9064 88.2218 52.6557 88.2218 54.3976ZM104.622 54.3976C104.622 56.1378 104.671 56.8129 104.728 55.8979C104.785 54.9812 104.785 53.5569 104.726 52.7316C104.669 51.9064 104.622 52.6557 104.622 54.3976ZM30.2806 54.3976C29.5814 55.1089 29.0739 55.6924 29.1534 55.6924C29.2328 55.6924 29.8681 55.1089 30.5673 54.3976C31.2664 53.6846 31.774 53.1028 31.6946 53.1028C31.6152 53.1028 30.9798 53.6846 30.2806 54.3976ZM70.1931 61.3636C70.4192 61.5241 70.5763 62.7223 70.6402 64.7663L70.7386 67.9204L70.723 64.6351C70.7092 61.9678 70.6247 61.3274 70.2742 61.2324C69.9669 61.1478 69.9427 61.1858 70.1931 61.3636ZM87.6468 64.3243C87.6468 66.144 87.6935 66.888 87.7504 65.9782C87.8091 65.0684 87.8091 63.5786 87.7504 62.6688C87.6935 61.759 87.6468 62.503 87.6468 64.3243ZM104.624 64.611C104.624 66.4306 104.671 67.1763 104.728 66.2665C104.785 65.3567 104.785 63.8669 104.728 62.9571C104.671 62.0473 104.624 62.7913 104.624 64.611ZM88.2218 64.756C88.2218 66.4962 88.2701 67.1712 88.3271 66.2562C88.384 65.3395 88.384 63.9152 88.3253 63.09C88.2683 62.2648 88.2218 63.014 88.2218 64.756ZM71.2461 71.3732C71.2461 73.1134 71.2945 73.7884 71.3515 72.8734C71.4084 71.9567 71.4084 70.5325 71.3497 69.709C71.291 68.8838 71.2444 69.633 71.2461 71.3732ZM104.514 71.5752C104.434 73.4276 104.472 74.8415 104.597 74.7155C104.721 74.5912 104.785 73.0754 104.74 71.349L104.655 68.2087L104.514 71.5752ZM87.5985 71.8532C87.5571 73.7608 87.4259 74.6792 87.179 74.7794C86.8976 74.8933 86.8993 74.9296 87.1877 74.9468C87.7591 74.9831 87.8575 74.4082 87.7539 71.6374L87.6572 69.0719L87.5985 71.8532ZM104.514 81.5296L104.655 84.896L104.74 81.7557C104.785 80.0293 104.721 78.5135 104.597 78.3892C104.472 78.2632 104.434 79.6771 104.514 81.5296ZM87.6468 81.4433C87.6468 83.1852 87.6952 83.8602 87.7522 82.9435C87.8091 82.0285 87.8091 80.6042 87.7504 79.779C87.6917 78.9538 87.6451 79.7031 87.6468 81.4433ZM71.2461 81.7315C71.2461 83.4717 71.2945 84.1467 71.3515 83.2318C71.4084 82.315 71.4084 80.8908 71.3497 80.0673C71.291 79.2421 71.2444 79.9913 71.2461 81.7315ZM5.5191 105.397L4.52815 106.476L5.60712 105.485C6.201 104.939 6.68613 104.454 6.68613 104.406C6.68613 104.187 6.44272 104.394 5.5191 105.397ZM1.87292 127.624C1.87292 128.337 1.92989 128.629 1.99722 128.272C2.06628 127.916 2.06628 127.334 1.99722 126.977C1.92989 126.621 1.87292 126.913 1.87292 127.624ZM98.4575 127.553L97.4648 128.632L98.5438 127.64C99.1377 127.094 99.6228 126.609 99.6228 126.561C99.6228 126.341 99.3794 126.549 98.4575 127.553ZM94.858 131.149L94.0121 132.085L94.9478 131.239C95.8196 130.452 96.0147 130.214 95.7937 130.214C95.7436 130.214 95.3224 130.635 94.858 131.149ZM32.4386 144.601C33.0567 145.233 33.6264 145.751 33.7058 145.751C33.7852 145.751 33.3433 145.233 32.7252 144.601C32.1072 143.968 31.5375 143.45 31.458 143.45C31.3786 143.45 31.8206 143.968 32.4386 144.601ZM38.1409 165.03C38.1409 166.059 38.1927 166.48 38.2566 165.966C38.3204 165.451 38.3204 164.609 38.2566 164.094C38.1927 163.58 38.1409 164.001 38.1409 165.03ZM56.5391 169.265C56.9776 169.33 57.6249 169.329 57.9789 169.261C58.3328 169.192 57.9737 169.139 57.183 169.14C56.3923 169.142 56.1023 169.199 56.5391 169.265Z" fill="#CCD3DB"/>
</svg>
