<svg width="395" height="558" viewBox="0 0 395 558" fill="none" xmlns="http://www.w3.org/2000/svg">
<path opacity="0.3" d="M111.762 549.278C230.683 549.278 327.088 541.262 327.088 531.374C327.088 521.486 230.683 513.47 111.762 513.47C-7.15878 513.47 -103.563 521.486 -103.563 531.374C-103.563 541.262 -7.15878 549.278 111.762 549.278Z" fill="#471C8A"/>
<path d="M123.352 401.155V394.713H-45.3052L-45.2335 392.14H-81.4836L-67.1939 523.102C-66.5965 528.652 -64.0874 532.565 -61.196 532.565H-55.461C-52.2111 532.565 -49.5348 527.674 -49.3436 521.359L-46.3328 426.927H91.7854L95.083 530.375C95.2741 536.711 97.9744 541.58 101.2 541.58H106.935C109.827 541.58 112.336 537.668 112.933 532.139L127.223 401.177H123.352V401.155Z" fill="#C378DD"/>
<path opacity="0.3" d="M123.352 394.713H-45.3052L-45.2335 392.14H-81.4836L-79.5241 410.044C-77.8275 410.597 -76.0831 410.916 -74.3148 410.979L125.311 419.123L127.271 401.177H123.376V394.713H123.352Z" fill="#471C8A"/>
<path d="M157.427 344.382C154.966 340.065 151.382 337.662 147.917 337.684L-45.5681 339.555C-51.0163 339.619 -56.1062 334.324 -58.6869 325.84L-124.018 110.78C-128.272 96.7881 -137.615 90.2176 -146.146 95.2571L-147.89 96.2777C-152.789 99.1696 -156.779 105.527 -158.882 113.841C-161.009 122.156 -161.057 131.66 -159.05 140.038L-104.376 367.261C-99.2382 388.652 -87.4814 402.75 -74.3387 403.282L140.509 412.042C145.838 412.255 151.525 408.683 155.324 402.091C159.124 395.521 161.824 386.505 161.824 377.085V360.691C161.824 354.567 159.889 348.698 157.427 344.382Z" fill="#FFA969"/>
<path d="M190.236 110.609L187.56 106.676C186.811 105.561 185.787 104.613 184.566 103.902C183.345 103.191 181.958 102.736 180.511 102.572L152.003 99.3822C152.003 99.3822 150.736 96.4904 155.97 93.0669C161.203 89.6435 158.12 84.0512 158.12 84.0512C158.12 84.0512 151.119 89.2395 140.987 97.2559C135.18 101.828 132.982 107.994 132.169 112.438L127.605 121.475C130.162 124.197 134.081 126.345 140.079 125.643L141.106 118.711C158.24 119.242 174.537 116.202 190.236 110.609Z" fill="url(#paint0_linear_658_679)"/>
<path d="M127.581 120.816C124.523 126.897 121.464 133 118.405 139.081C114.463 146.906 111.165 156.9 104.832 163.45C97.3531 171.147 85.1184 169.807 77.4478 163.067C69.0604 155.688 60.0755 148.884 51.4013 141.782C49.1073 139.911 46.7655 138.103 44.4476 136.232L43.8024 184.033C64.9742 192.751 88.2726 207.508 112.527 200.023C119.194 197.96 125.885 194.112 129.684 188.604C131.954 185.309 133.89 180.737 134.344 176.846L140.174 125.069C133.245 125.855 130.521 123.942 127.581 120.816Z" fill="#FC8460"/>
<path d="M154.249 517.149C133.292 517.149 124.021 515.533 119.863 514.044C120.675 517.149 123.734 519.615 127.605 519.615H201.754C204.263 519.615 205.816 517.446 205.219 515.49C196.784 516.107 178.838 517.149 154.249 517.149Z" fill="#A25DCF"/>
<path d="M205.243 515.49C205.123 515.086 204.956 514.703 204.645 514.342C199.006 507.814 187.656 497.565 172.219 497.777C149.613 498.075 141.728 500.287 124.14 497.905L120.006 510.344C119.576 511.62 119.576 512.875 119.887 514.044C124.045 515.533 133.316 517.149 154.273 517.149C178.838 517.149 196.784 516.107 205.243 515.49Z" fill="#471C8A"/>
<path d="M129.23 484.509L124.14 500.159C124.14 500.159 135.419 504.794 145.336 501.073L147.272 487.507L129.23 484.509Z" fill="url(#paint1_linear_658_679)"/>
<path d="M20.3845 306.15C20.3845 306.15 145.886 315.421 171.621 326.371C197.357 337.343 150.617 490.973 150.617 490.973C150.617 490.973 143.615 494.014 128.011 489.633C128.011 489.633 143.998 376.256 132.098 351.654L-3.77423 331.56L20.3845 306.15Z" fill="#471C8A"/>
<path d="M-55.222 305.214C-55.222 305.214 -59.3082 314.124 -59.1409 325.946C-58.902 342.298 -44.3733 355.588 -26.308 356.396L122.038 362.52C125.168 362.647 127.82 364.603 128.609 367.368C132.098 379.573 167.105 349.038 167.105 349.038C162.565 342.255 155.277 337.365 146.794 335.408L20.3845 306.15L-55.222 305.214ZM234.754 521.869C217.979 533.245 209.496 536.988 205.195 538.051C207.895 540.092 211.982 540.39 215.064 538.285L274.374 498.033C276.381 496.672 276.214 494.099 274.445 492.866C268.089 497.948 254.421 508.516 234.754 521.869Z" fill="#A25DCF"/>
<path d="M274.445 492.866C274.083 492.596 273.659 492.4 273.203 492.291C264.385 490.165 248.542 488.166 236.308 496.714C218.41 509.217 213.583 515.277 197.955 522.911L202.853 535.053C203.355 536.286 204.191 537.307 205.195 538.072C209.496 537.009 217.979 533.266 234.754 521.89C254.421 508.516 268.089 497.948 274.445 492.866Z" fill="#471C8A"/>
<path d="M186.293 500.946C187.417 501.945 197.955 522.89 197.955 522.89C197.955 522.89 210.619 520.806 213.439 513.683L202.805 494.737L186.293 500.946Z" fill="url(#paint2_linear_658_679)"/>
<path d="M-15.9372 311.891L124.116 356.608C127.08 357.544 128.991 360.117 128.848 362.966C128.274 375.554 132.6 415.87 188.42 509.217C189.127 510.421 190.277 511.371 191.678 511.909C193.079 512.447 194.646 512.541 196.115 512.173L209.64 508.792C211.05 508.43 211.91 507.133 211.575 505.836L171.598 355.503C171.526 355.226 171.43 354.95 171.359 354.695C168.228 344.828 158.981 337.535 147.821 335.749C110.783 329.752 -30.7527 307.085 -15.9372 311.891Z" fill="#A25DCF"/>
<path d="M-55.6043 304.81C-55.6043 304.81 -57.0859 238.297 -42.366 175.697C-36.9417 152.584 -22.8192 131.894 -2.29266 117.265L4.56546 112.374L38.9516 125.005L56.6107 152.626C66.3363 170.233 63.9467 208.443 56.6107 226.964C44.3521 257.924 34.5309 290.032 30.3491 305.788C30.3491 305.788 -26.5948 312.593 -55.6043 304.81Z" fill="#FF8F67"/>
<path d="M28.1984 62.8088L1.33948 119.179C1.33948 119.179 9.94198 136.679 40.0269 129.874L50.78 91.0044L28.1984 62.8088Z" fill="url(#paint3_linear_658_679)"/>
<path d="M81.4145 37.1011C81.7491 37.8878 82.4421 93.4284 82.4421 93.4284L47.3868 93.1095L38.0674 40.5671C38.0674 40.5671 76.0141 23.9176 81.4145 37.1011Z" fill="url(#paint4_linear_658_679)"/>
<path d="M48.3666 50.6673L50.8756 78.6715C50.8995 79.0329 50.9951 79.3732 51.1385 79.7134C51.9748 81.7759 55.4875 88.7079 63.0864 85.0505C69.9923 81.7334 76.3486 78.7778 81.319 79.1605C83.5413 79.3306 85.2618 81.0105 85.2857 83.0305C85.3574 88.07 85.2618 99.446 83.5174 109.312C83.159 111.311 81.1517 112.715 78.9294 112.587C72.1907 112.162 57.9966 110.886 46.8611 107.441C46.116 107.213 45.454 106.81 44.9451 106.275C44.4361 105.74 44.0991 105.092 43.9697 104.4C42.6555 97.4685 38.5454 76.3963 36.3948 70.6763C34.3875 65.3179 26.1434 63.4892 22.6068 62.9364C21.4598 62.7663 20.4323 62.1709 19.7871 61.2778C17.4692 58.1733 13.5264 50.7098 23.7299 45.3301C25.8567 44.2031 26.5497 41.7366 25.2354 39.8441C22.6307 36.0804 20.4562 29.9565 28.1268 24.8745C35.9168 19.6862 43.3484 22.5993 47.6258 25.2998C49.3463 26.3842 51.6642 26.1503 53.1696 24.8107C54.0299 24.0452 55.2725 23.62 57.0169 24.1728C59.3826 24.9383 61.9394 23.5987 62.5368 21.3873C63.6838 17.1558 66.9098 12.2227 75.6557 11.8824C91.188 11.2658 96.4689 25.9589 94.629 35.5276C92.789 45.0962 75.8946 44.8836 66.7664 42.0342C59.8366 39.8654 52.7156 44.9474 49.7047 47.5203C48.7489 48.3283 48.2471 49.4978 48.3666 50.6673Z" fill="#471C8A"/>
<path d="M37.3983 80.8616C37.3983 80.8616 39.8357 64.0634 32.5953 61.4692C25.3548 58.8963 16.4656 62.7025 21.2208 73.5895C27.147 87.1556 37.3983 80.8616 37.3983 80.8616Z" fill="url(#paint5_linear_658_679)"/>
<path d="M110.95 251.396C22.3917 276.551 27.0992 163.811 26.5257 163.003C-8.57733 114.479 -28.2914 179.142 -24.8982 188.264C6.23811 290.223 84.736 285.184 115.323 265.153C111.523 259.795 110.663 255.074 110.95 251.396Z" fill="#FFA969"/>
<path d="M163.091 227.857C163.091 227.857 161.657 229.941 151.286 237.192C140.915 244.464 130.473 248.653 138.406 238.659C146.34 228.665 142.468 223.519 133.436 234.279C124.379 245.038 117.927 249.184 117.927 249.184C115.538 250.014 113.22 250.737 110.974 251.375C110.687 255.053 111.547 259.774 115.347 265.132C118.931 264.069 120.962 263.261 120.962 263.261C120.962 263.261 148.395 258.753 154.249 248.185C160.128 237.638 163.091 227.857 163.091 227.857Z" fill="url(#paint6_linear_658_679)"/>
<defs>
<linearGradient id="paint0_linear_658_679" x1="159.47" y1="119.407" x2="170.02" y2="178.458" gradientUnits="userSpaceOnUse">
<stop stop-color="#FEBBBA"/>
<stop offset="1" stop-color="#FF928E"/>
</linearGradient>
<linearGradient id="paint1_linear_658_679" x1="124.138" y1="493.52" x2="147.272" y2="493.52" gradientUnits="userSpaceOnUse">
<stop stop-color="#FEBBBA"/>
<stop offset="1" stop-color="#FF928E"/>
</linearGradient>
<linearGradient id="paint2_linear_658_679" x1="3458.71" y1="2162.25" x2="3439.79" y2="2150.13" gradientUnits="userSpaceOnUse">
<stop stop-color="#FEBBBA"/>
<stop offset="1" stop-color="#FF928E"/>
</linearGradient>
<linearGradient id="paint3_linear_658_679" x1="1.3347" y1="97.1219" x2="50.7585" y2="97.1219" gradientUnits="userSpaceOnUse">
<stop stop-color="#FEBBBA"/>
<stop offset="1" stop-color="#FF928E"/>
</linearGradient>
<linearGradient id="paint4_linear_658_679" x1="68.9399" y1="41.7738" x2="41.5345" y2="144.575" gradientUnits="userSpaceOnUse">
<stop stop-color="#FEBBBA"/>
<stop offset="1" stop-color="#FF928E"/>
</linearGradient>
<linearGradient id="paint5_linear_658_679" x1="-2.62362" y1="136.762" x2="24.6225" y2="67.5263" gradientUnits="userSpaceOnUse">
<stop stop-color="#FEBBBA"/>
<stop offset="1" stop-color="#FF928E"/>
</linearGradient>
<linearGradient id="paint6_linear_658_679" x1="147.291" y1="238.753" x2="52.3141" y2="331.909" gradientUnits="userSpaceOnUse">
<stop stop-color="#FEBBBA"/>
<stop offset="1" stop-color="#FF928E"/>
</linearGradient>
</defs>
</svg>
