<svg width="229" height="170" viewBox="0 0 229 170" fill="none" xmlns="http://www.w3.org/2000/svg">
<path fill-rule="evenodd" clip-rule="evenodd" d="M77.4458 0.379869C60.6882 2.50502 44.5086 12.2366 33.5692 26.7654C27.9117 34.2811 26.5148 36.8365 23.0057 46.0861C20.2741 53.2831 18.3148 55.5145 9.77277 61.1539C1.09335 66.8892 0.518013 67.563 0.81346 71.663C1.04671 74.8637 2.13779 76.4783 6.16261 79.5649C13.6836 85.3365 13.7535 87.0522 7.03599 101.405C-2.20321 121.153 0.683879 126.917 22.3267 131.921C41.821 136.428 48.8496 144.781 49.8473 164.63C50.0832 169.324 50.1687 169.707 50.9618 169.707C52.2343 169.707 51.804 160.046 50.2724 154.134C46.727 140.466 39.7814 134.085 24.7032 130.644C3.0319 125.696 -0.344999 120.383 7.83163 104.105C15.2982 89.2369 15.5262 84.7275 9.07303 79.6142C-0.14285 72.3135 -0.0521464 69.9318 9.68984 63.4164C19.8802 56.6056 21.7721 54.4985 24.7162 46.7132C31.8588 27.8124 45.3405 13.4573 63.0181 5.93377C73.3302 1.54612 90.4299 0.571658 104.456 3.57796C112.218 5.23921 112.125 4.97228 106.024 8.05633C74.8774 23.8083 62.8548 61.9288 79.1588 93.2281C82.782 100.181 86.107 104.258 95.5665 113.339C105.226 122.612 110.077 127.964 111.925 131.385L113.192 133.728L112.073 137.141C109.18 145.965 109.383 155.764 112.625 163.892C113.913 167.118 114.877 166.89 116.274 163.026C119.41 154.355 119.443 145.214 116.375 136.796L115.32 133.906L116.543 131.67C118.547 128.011 120.382 125.966 132.028 114.417C144.022 102.527 146.904 98.896 150.579 91.0563C165.152 59.9566 152.891 23.5362 122.641 8.07705L117.344 5.36879L118.961 4.80897C128.454 1.52277 148.029 0.931875 158.6 3.61423C176.688 8.20143 195.635 25.2596 202.441 43.0772C206.753 54.3638 208.547 56.6548 217.781 62.6648C227.968 69.2968 228.723 72.1503 221.751 77.7041C218.221 80.5135 218.76 85.1395 222.938 87.8763C224.762 89.071 224.164 91.248 221.777 92.0929C220.585 92.5154 220.893 93.6868 222.326 94.1844C224.794 95.0448 225.149 97.3513 223.218 99.9741C221.196 102.726 221.16 104.082 222.987 108.804C227.717 121.031 223.762 125.883 205.527 130.211C189.721 133.961 183.338 138.937 179.37 150.607C177.017 157.529 176.032 169.707 177.825 169.707C178.626 169.707 178.691 169.42 178.691 165.874C178.691 155.308 182.617 144.649 188.373 139.598C192.935 135.591 196.006 134.326 208.062 131.486C224.293 127.661 229.391 121.329 225.281 110.1C223.267 104.6 223.21 103.113 224.921 100.731C226.628 98.3518 226.781 96.1411 225.372 94.161C224.493 92.9274 224.472 92.7564 225.097 91.8648C226.216 90.2684 225.973 87.8556 224.584 86.7827C221.992 84.7793 219.794 80.2958 221.406 80.2958C222.194 80.2958 226.276 76.232 227.09 74.6382C229.531 69.8514 227.917 67.1691 219.076 61.3353C210.073 55.3952 207.969 52.8425 204.796 44.0128C197.452 23.5621 177.219 5.72645 156.229 1.19366C146.619 -0.879652 129.753 -0.0606695 118.801 3.01561L114.289 4.2829L110.531 3.18145C101.818 0.631276 86.0163 -0.70603 77.4458 0.379869ZM118.179 7.92673C147.765 20.5921 162.789 56.4863 150.807 85.8885C146.51 96.4339 142.353 102.2 132.529 111.237C125.521 117.685 118.37 125.341 116.149 128.778C114.182 131.82 114.47 131.851 112.166 128.347C110.411 125.681 101.634 116.537 92.3503 107.713C61.2946 78.1836 70.6297 25.5344 110.012 8.10299C114.509 6.11261 113.965 6.12553 118.179 7.92673ZM110.012 15.9608C95.1985 24.7698 83.7875 40.5218 81.0922 55.8903C80.8019 57.5541 80.4754 59.2361 80.3691 59.6274C80.2292 60.1483 82.7508 62.2424 89.7431 67.4023C95.0041 71.2872 102.683 76.9551 106.806 79.9977L114.304 85.5335L130.406 73.6171C139.264 67.0628 146.941 61.3638 147.467 60.9543L148.426 60.2105L147.573 56.3231C143.743 38.8502 132.583 23.5388 117.834 15.5228C113.874 13.3718 114.416 13.3407 110.012 15.9608ZM122.001 29.2456C137.642 35.1882 141.82 54.8484 129.914 66.4719C115.566 80.4771 91.8449 70.3879 91.876 50.2923C91.8993 34.6803 107.543 23.7513 122.001 29.2456ZM31.3793 55.2527C30.366 55.8799 32.5818 59.8658 35.7177 63.0484C40.9373 68.3483 46.9214 69.994 54.1754 68.1306C58.8533 66.9281 57.4486 65.1424 52.7059 66.2594C45.3405 67.9958 37.0524 63.9762 33.774 57.0772C32.8358 55.1076 32.2916 54.6903 31.3793 55.2527ZM196.146 55.175C195.928 55.3305 195.363 56.2194 194.889 57.1498C192.678 61.483 188.023 65.1528 183.234 66.3346C180.184 67.0862 180.51 67.1069 173.362 65.7359C171.452 65.3679 171.909 67.3064 173.889 67.9699L175.348 68.4598L174.319 69.118C173.754 69.4808 172.935 69.9084 172.499 70.0691C171.481 70.4449 171.823 71.4842 172.904 71.3002C173.355 71.2224 174.464 70.5719 175.368 69.8567C176.584 68.8926 177.289 68.6204 178.066 68.8174C179.497 69.175 179.396 69.6156 177.574 71.0073C176.566 71.7744 176.172 72.3343 176.447 72.609C177.043 73.205 178.325 72.4327 180.057 70.4294C181.174 69.1387 181.925 68.6956 183.39 68.4675C188.85 67.6148 197.695 59.9591 197.695 56.0846C197.695 55.2657 196.77 54.7214 196.146 55.175ZM115.657 140.443C117.406 146.753 116.802 159.136 114.597 162.153C113.762 163.293 112.112 156.928 111.839 151.517C111.575 146.302 113.169 136.879 114.314 136.879C114.509 136.879 115.113 138.483 115.657 140.443Z" fill="#481B8B"/>
<path fill-rule="evenodd" clip-rule="evenodd" d="M83.5591 1.9867C84.0982 2.09036 84.8757 2.08775 85.2877 1.9789C85.6998 1.87006 85.2618 1.78714 84.3107 1.78973C83.3595 1.79492 83.0226 1.88303 83.5591 1.9867ZM87.0112 1.9867C87.545 2.09036 88.4184 2.09036 88.9549 1.9867C89.4888 1.88303 89.0508 1.80008 87.983 1.80008C86.9127 1.80008 86.4747 1.88303 87.0112 1.9867ZM139.707 1.9867C140.241 2.09036 141.117 2.09036 141.651 1.9867C142.185 1.88303 141.747 1.80008 140.679 1.80008C139.609 1.80008 139.173 1.88303 139.707 1.9867ZM143.6 1.9867C144.136 2.09036 144.914 2.08775 145.328 1.9789C145.74 1.87006 145.3 1.78714 144.351 1.78973C143.4 1.79492 143.063 1.88303 143.6 1.9867ZM83.09 8.61611C69.6342 10.1815 52.4749 17.8216 49.8107 23.4377C47.6882 27.9135 50.0906 35.2893 55.5875 41.149C58.0444 43.7717 71.8423 54.693 72.2077 54.3068C72.2829 54.2265 72.8375 52.1091 73.4413 49.6004C77.0126 34.7243 87.1407 19.9001 99.1141 12.0215L102.685 9.67353L101.273 9.38067C95.9886 8.28958 88.5765 7.97857 83.09 8.61611ZM134.2 8.40361C133.606 8.50728 131.411 8.81306 129.325 9.08778L125.531 9.58538L127.27 10.5728C140.295 17.972 153.417 36.8832 155.63 51.4404C156.125 54.7033 156.047 54.7215 162.729 49.7818C176.98 39.2494 182.226 30.4766 178.582 23.2667C174.645 15.4736 146.958 6.20071 134.2 8.40361ZM103.1 11.7339C90.9375 19.1848 81.8149 30.5803 77.0463 44.2771C75.6572 48.2709 73.8975 55.556 74.2395 55.8981C74.3225 55.981 75.639 56.9943 77.1655 58.1528L79.9386 60.2572L80.0034 66.713C80.2211 88.9 94.812 98.8675 111.041 87.9152C114.641 85.4868 114.122 85.492 117.51 87.8608C134.257 99.5672 152.105 85.1007 148.596 62.6623L148.239 60.3609L143.703 63.7715C141.208 65.6452 133.573 71.308 126.733 76.3539L114.296 85.5283L106.804 79.9952C102.68 76.9526 95.0038 71.2872 89.7428 67.4024C82.7505 62.2424 80.2288 60.1483 80.3688 59.6274C80.475 59.2361 80.8016 57.5541 81.0919 55.8903C83.9038 39.8713 96.8516 22.7276 112.236 14.6624L114.242 13.6076L116.986 15.0564C132.334 23.1604 144.39 39.493 147.609 56.5382C148.329 60.3557 148.423 60.3894 151.657 57.9947C154.91 55.5871 154.811 56.2738 152.963 48.8851C149.226 33.9598 139.383 20.4599 126.269 12.2885L123.092 10.3085L119.899 11.428C113.643 13.6231 114.28 13.5532 111.259 12.3662C109.742 11.7675 108.014 11.1326 107.42 10.9564C106.827 10.7802 106.241 10.4977 106.125 10.3266C106.005 10.1556 104.645 10.7879 103.1 11.7339ZM156.791 63.8803C156.791 65.1891 156.872 65.723 156.97 65.0699C157.068 64.4168 157.068 63.3464 156.97 62.6933C156.872 62.0402 156.791 62.5741 156.791 63.8803ZM89.9268 108.371C90.8546 109.322 91.7098 110.1 91.829 110.1C91.9483 110.1 91.2848 109.322 90.357 108.371C89.4292 107.42 88.5739 106.642 88.4547 106.642C88.3355 106.642 88.999 107.42 89.9268 108.371ZM102.237 117.227C103.043 118.056 103.8 118.738 103.916 118.738C104.036 118.738 103.473 118.056 102.667 117.227C101.861 116.395 101.105 115.713 100.988 115.713C100.869 115.713 101.431 116.395 102.237 117.227Z" fill="#B155B5"/>
<path fill-rule="evenodd" clip-rule="evenodd" d="M108.581 28.678C91.9146 33.2601 86.3192 53.8014 98.3807 66.1247C111.336 79.3576 133.777 71.9507 136.457 53.5552C138.727 37.9794 123.66 24.534 108.581 28.678ZM118.132 35.0276C118.476 35.3722 118.65 37.2771 118.65 40.7499L118.647 45.9565L123.66 45.8218C130.095 45.6481 130.312 45.801 130.312 50.4712C130.312 54.8381 130.354 54.8096 123.963 54.8096H118.65V60.195C118.65 66.529 118.691 66.4719 113.951 66.4719C109.818 66.4719 109.579 66.1039 109.579 59.6818V54.8096H104.481C98.2848 54.8096 98.3496 54.8588 98.3496 50.2042C98.3496 45.7622 98.3833 45.7388 104.8 45.7388H109.579V40.9598C109.579 34.5429 109.603 34.5092 114.045 34.5092C116.245 34.5092 117.813 34.7088 118.132 35.0276Z" fill="#F6A532"/>
<path fill-rule="evenodd" clip-rule="evenodd" d="M188.84 19.3922C189.767 20.3408 190.625 21.1182 190.744 21.1182C190.861 21.1182 190.2 20.3408 189.272 19.3922C188.345 18.4411 187.489 17.6636 187.37 17.6636C187.251 17.6636 187.912 18.4411 188.84 19.3922ZM109.67 40.6514L109.579 45.7129L104.505 45.8503L99.4279 45.9851L104.518 46.0784C110.515 46.1872 110.09 46.6459 109.903 40.3119L109.763 35.59L109.67 40.6514ZM121.584 46.0602C123.077 46.1458 125.409 46.1431 126.767 46.0576C128.123 45.9721 126.899 45.9047 124.049 45.9047C121.198 45.9047 120.088 45.9747 121.584 46.0602ZM209.79 54.0814C209.79 54.1565 210.42 54.7888 211.193 55.486L212.597 56.7533L211.327 55.3513C210.145 54.0425 209.79 53.747 209.79 54.0814ZM109.745 59.7778C109.745 62.6286 109.815 63.7378 109.901 62.245C109.984 60.7496 109.984 58.4172 109.898 57.0617C109.813 55.7037 109.743 56.927 109.745 59.7778ZM192.701 63.5564L191.431 64.9611L192.836 63.6912C194.145 62.5094 194.438 62.1543 194.106 62.1543C194.031 62.1543 193.398 62.7841 192.701 63.5564ZM112.917 66.3528C113.685 66.4487 115.045 66.4487 115.942 66.3554C116.836 66.2621 116.209 66.1843 114.548 66.1817C112.884 66.1817 112.15 66.2569 112.917 66.3528ZM156.76 67.3376C156.76 68.167 156.851 68.509 156.96 68.0918C157.066 67.6771 157.066 66.9955 156.96 66.5808C156.851 66.1662 156.76 66.5057 156.76 67.3376ZM48.3518 66.77C48.7665 66.8789 49.4481 66.8789 49.8627 66.77C50.28 66.6612 49.9379 66.5731 49.1086 66.5731C48.2766 66.5731 47.9371 66.6612 48.3518 66.77ZM179.02 66.7778C179.556 66.8815 180.334 66.8789 180.746 66.77C181.161 66.6612 180.72 66.5783 179.769 66.5808C178.82 66.586 178.481 66.6741 179.02 66.7778ZM224.664 77.8104L223.397 79.2151L224.799 77.9452C225.571 77.248 226.203 76.6183 226.203 76.5431C226.203 76.2088 225.846 76.5016 224.664 77.8104ZM8.93809 82.2396C9.74409 83.0689 10.5008 83.7505 10.6175 83.7505C10.7367 83.7505 10.1743 83.0689 9.3683 82.2396C8.5623 81.4076 7.80554 80.726 7.68892 80.726C7.5697 80.726 8.13209 81.4076 8.93809 82.2396ZM98.2461 92.6942C98.7826 92.7979 99.5601 92.7953 99.9747 92.6864C100.387 92.5776 99.9462 92.4947 98.9977 92.4973C98.0466 92.5025 97.7096 92.5906 98.2461 92.6942ZM128.913 92.6942C129.452 92.7979 130.23 92.7953 130.642 92.6864C131.054 92.5776 130.616 92.4947 129.665 92.4973C128.713 92.5025 128.377 92.5906 128.913 92.6942ZM137.201 109.558L135.711 111.178L137.331 109.69C138.839 108.304 139.15 107.938 138.821 107.938C138.748 107.938 138.02 108.669 137.201 109.558ZM98.3498 113.256C98.3498 113.331 98.9796 113.964 99.7519 114.661L101.157 115.931L99.8866 114.526C98.7048 113.217 98.3498 112.925 98.3498 113.256ZM226.735 116.579C226.735 117.408 226.825 117.75 226.934 117.333C227.04 116.918 227.04 116.237 226.934 115.822C226.825 115.407 226.735 115.747 226.735 116.579ZM103.963 118.872C103.963 118.948 104.596 119.58 105.368 120.277L106.773 121.544L105.503 120.142C104.321 118.834 103.963 118.538 103.963 118.872ZM187.305 140.658L185.818 142.278L187.438 140.79C188.943 139.403 189.254 139.038 188.925 139.038C188.853 139.038 188.124 139.769 187.305 140.658ZM109.714 149.622C109.717 151.048 109.797 151.579 109.893 150.801C109.989 150.024 109.986 148.858 109.888 148.21C109.789 147.562 109.712 148.197 109.714 149.622ZM116.629 149.837C116.629 151.382 116.706 152.014 116.802 151.242C116.898 150.47 116.898 149.205 116.802 148.433C116.706 147.66 116.629 148.293 116.629 149.837ZM49.7306 166.468C49.7539 169.612 49.8342 169.925 50.6195 169.964C51.2415 169.995 51.2778 169.959 50.7439 169.829C50.1452 169.684 49.9768 169.029 49.855 166.331L49.702 163.011L49.7306 166.468ZM176.716 166.574C176.744 169.739 176.799 169.925 177.724 169.98C178.504 170.026 178.53 169.998 177.851 169.845C177.112 169.676 176.978 169.215 176.843 166.437L176.687 163.226L176.716 166.574Z" fill="#CCD3DB"/>
</svg>
