<svg width="65" height="66" viewBox="0 0 65 66" fill="none" xmlns="http://www.w3.org/2000/svg">
<path fill-rule="evenodd" clip-rule="evenodd" d="M20.044 0.524176C19.7277 0.562694 18.4514 1.01112 18.3056 1.13524C18.2483 1.18374 18.0441 1.32878 17.8509 1.45718C17.6577 1.58605 17.4546 1.74678 17.3993 1.81383C17.3441 1.88135 17.1962 2.04303 17.0714 2.17381C16.7914 2.46531 16.3599 3.18764 16.1614 3.69647C16.0104 4.08355 15.8662 27.3201 16.0109 28.04C16.1409 28.6891 17.1625 28.9407 17.7183 28.4604L17.9793 28.235L18.0025 16.3143L18.0262 4.3936L18.2793 3.94279C18.6114 3.35028 19.1467 2.86333 19.7872 2.5704L20.3072 2.33263H33.7718H47.2364L47.7491 2.56707C48.4385 2.88235 48.8754 3.28418 49.2017 3.9019L49.4733 4.41595V16.0856C49.4733 28.4961 49.4643 28.2255 49.8959 28.5322C50.2591 28.7904 50.9564 28.7452 51.2769 28.4423L51.5348 28.1993V16.1773V4.15583L51.2801 3.52147C50.7601 2.22707 49.7991 1.32022 48.3259 0.733888L47.7628 0.509911L34.035 0.50135C26.4845 0.496119 20.1888 0.506581 20.044 0.524176ZM33.1576 7.93062C31.7982 8.26302 31.0108 9.17415 31.0097 10.4167C31.0061 13.5557 35.8381 13.9861 36.5707 10.9122C36.806 9.92502 36.3676 9.00723 35.2939 8.23925C34.8866 7.94774 33.7555 7.78416 33.1576 7.93062ZM21.2525 32.0987C20.7614 32.3208 20.6298 33.0978 20.9561 33.8539C20.9993 33.9533 21.0825 34.1953 21.1414 34.3917C21.2004 34.5877 21.2788 34.8378 21.3156 34.9467C21.353 35.0556 21.4261 35.2872 21.4788 35.4617C21.5314 35.6362 21.6998 36.1888 21.853 36.69C22.0067 37.1917 22.183 37.7975 22.2446 38.0377C22.3067 38.2773 22.3972 38.5983 22.4456 38.751C22.6245 39.313 22.7114 39.5893 22.7935 39.8604C23.0193 40.6074 23.3345 41.6422 23.553 42.3569C23.6866 42.793 23.8145 43.2657 23.8372 43.4079C23.8603 43.5501 23.914 43.6856 23.9572 43.7098C23.9998 43.7336 24.0351 43.8558 24.0351 43.9818C24.0351 44.1074 24.0745 44.232 24.123 44.2591C24.1709 44.2862 24.2103 44.3837 24.2103 44.4759C24.2103 44.5686 24.2493 44.7536 24.2972 44.8877C24.3445 45.0214 24.5424 45.6657 24.7366 46.3196C24.9308 46.9734 25.1235 47.6154 25.1645 47.7462C25.2056 47.8769 25.2887 48.1447 25.3493 48.3406C25.4093 48.537 25.4893 48.7866 25.5261 48.8955C25.6219 49.1766 25.7566 49.6302 25.9629 50.3616C26.1693 51.0963 26.6282 52.6251 26.8371 53.2742C27.134 54.1987 27.365 55.0195 27.4292 55.379C27.6256 56.4751 29.2682 56.456 29.4976 55.3547C29.5245 55.2239 29.5898 54.9833 29.6419 54.8197C29.8545 54.1535 29.9292 53.9081 30.044 53.4925C30.1098 53.2524 30.2061 52.9228 30.2576 52.7592C30.4234 52.2305 30.5066 51.958 30.6866 51.3526C30.784 51.0255 30.9292 50.5442 31.0092 50.2827C31.0897 50.0211 31.1882 49.7001 31.2287 49.5694C31.2687 49.4386 31.4061 48.9749 31.5339 48.5389C31.6618 48.1028 31.8055 47.6216 31.8529 47.4689C31.9008 47.3163 31.9792 47.049 32.0271 46.8745C32.0755 46.7 32.2687 46.0761 32.456 45.4874C32.6434 44.8991 32.836 44.2748 32.8834 44.1007C32.9313 43.9262 33.0497 43.5163 33.1466 43.1891C33.2434 42.8624 33.3487 42.5058 33.3802 42.3964C33.4329 42.2157 34.1692 39.7838 34.4002 39.0282C34.5476 38.547 34.666 38.1775 34.7434 37.9582C34.7818 37.8493 34.8397 37.6354 34.8713 37.4827C34.9034 37.3301 35.1044 36.6348 35.3187 35.9372C35.5323 35.2396 35.7513 34.5263 35.8044 34.3523C36.0018 33.7041 36.0771 33.4759 36.1513 33.298C36.3597 32.802 36.1829 32.3474 35.6829 32.0935C35.0776 31.7858 34.4076 32.0944 34.2208 32.7668C34.1723 32.9414 34.0881 33.2267 34.0339 33.4012C33.9797 33.5752 33.915 33.8073 33.8908 33.9162C33.866 34.0251 33.8129 34.1858 33.7718 34.2729C33.7308 34.3599 33.6792 34.5206 33.6566 34.6295C33.6345 34.7384 33.5181 35.1488 33.3981 35.5411C33.2787 35.9334 33.0729 36.6111 32.9413 37.0466C32.655 37.9944 32.5718 38.2654 32.456 38.6321C32.2229 39.3687 32.1734 39.5342 32.0639 39.9398C31.9992 40.1795 31.8803 40.5894 31.7997 40.8509C31.7187 41.1125 31.5734 41.5942 31.4761 41.9209C31.3061 42.4929 31.2545 42.6608 31.0624 43.2685C30.8634 43.8981 30.7718 44.202 30.6576 44.6157C30.5918 44.8554 30.4955 45.1854 30.444 45.349C30.315 45.7603 30.2282 46.0442 29.9655 46.914C29.8408 47.3282 29.6555 47.9345 29.5534 48.2616C29.4519 48.5883 29.3161 49.052 29.2513 49.2916C29.1866 49.5313 29.094 49.8523 29.0455 50.0049C28.9971 50.1576 28.9219 50.4082 28.8782 50.5618C28.7798 50.9094 28.615 51.1938 28.5119 51.1938C28.3729 51.1938 28.1598 50.9508 28.1066 50.7325C28.0787 50.616 28.034 50.4667 28.0082 50.4016C27.9819 50.3359 27.9092 50.0863 27.8456 49.8466C27.7824 49.6069 27.6919 49.2859 27.645 49.1333C27.5982 48.9807 27.4792 48.5883 27.3808 48.2616C27.0661 47.2145 26.9166 46.7219 26.8393 46.4784C26.6529 45.8892 26.5592 45.5763 26.4471 45.1707C26.3814 44.9305 26.2871 44.6095 26.2387 44.4574C26.0771 43.9509 25.9561 43.5496 25.8672 43.2286C25.8193 43.0545 25.6277 42.4302 25.4419 41.8419C25.2561 41.2532 25.0782 40.6469 25.0466 40.4943C25.0151 40.3421 24.9566 40.1281 24.9172 40.0187C24.8772 39.9098 24.7956 39.6602 24.7351 39.4643C24.6745 39.2679 24.5919 39.0006 24.5508 38.8698C24.5098 38.7391 24.2777 37.972 24.0351 37.1655C23.7924 36.3595 23.5551 35.5901 23.5077 35.456C23.4598 35.3224 23.4209 35.1369 23.4209 35.0446C23.4209 34.9524 23.3814 34.8544 23.3335 34.8278C23.2851 34.8007 23.2456 34.6913 23.2456 34.5843C23.2456 34.4773 23.2114 34.3275 23.1698 34.2519C23.1282 34.1763 23.0072 33.7935 22.9003 33.4012C22.544 32.0892 22.0814 31.7235 21.2525 32.0987ZM0.526311 32.0664C0.454207 32.0944 0.306313 32.2028 0.197367 32.3075L0 32.4977V44.1126V55.7271L0.272632 55.9572C0.744207 56.3552 2.85314 56.2525 4.78102 55.738C5.88312 55.4436 7.34889 54.7413 8.2352 54.0831C8.53467 53.8606 9.40203 53.1501 9.48887 53.0565C9.52887 53.0127 9.73887 52.7987 9.95571 52.5809C10.172 52.3631 10.3494 52.1606 10.3499 52.1311C10.3504 52.1011 10.4015 52.0298 10.4636 51.9722C10.9936 51.4791 11.981 49.7363 12.4083 48.5389C12.7494 47.584 12.7846 47.4689 12.8946 46.9539C12.9509 46.6924 13.042 46.3177 13.0983 46.1217C13.2425 45.6158 13.2336 42.579 13.0862 41.9209C12.7478 40.4101 12.3604 39.2897 11.8267 38.2754C11.4094 37.4813 10.8225 36.5573 10.5978 36.339C10.5104 36.2544 10.4389 36.1579 10.4389 36.1255C10.4389 36.0927 10.262 35.8944 10.0462 35.6847C9.83045 35.475 9.65308 35.2786 9.6515 35.2486C9.64993 35.2044 8.24204 34.0988 7.71941 33.7307C7.20363 33.3674 5.76259 32.677 5.04418 32.4487C4.11313 32.1524 0.984202 31.8876 0.526311 32.0664ZM16.5788 32.0678C16.5067 32.0949 16.3588 32.2028 16.2499 32.3075L16.0525 32.4977V44.1335V55.7694L16.2783 55.9729C16.7183 56.3705 17.4025 56.3443 17.7641 55.9154L17.9825 55.6572V44.114V32.5714L17.7383 32.3246C17.4914 32.0749 16.9051 31.9451 16.5788 32.0678ZM40.3039 32.0897C40.0586 32.1791 39.9081 32.3584 39.8207 32.6655C39.7797 32.8087 39.7081 33.0503 39.6618 33.2029C39.6149 33.3555 39.5107 33.6941 39.4302 33.9557C39.3502 34.2172 39.2049 34.6989 39.1076 35.0256C38.8907 35.756 38.7881 36.0927 38.6734 36.4522C38.6249 36.6049 38.5307 36.9259 38.4649 37.1655C38.3528 37.5716 38.3002 37.7462 38.0702 38.4732C37.8655 39.1204 37.4634 40.4567 37.1997 41.3664C36.8255 42.6556 36.7644 42.8577 36.5765 43.4269C36.5013 43.6556 36.4471 43.8354 35.966 45.4479C35.7713 46.1018 35.5729 46.7461 35.525 46.8802C35.4776 47.0138 35.4387 47.1993 35.4387 47.2916C35.4387 47.3838 35.3992 47.4818 35.3508 47.5084C35.3023 47.5355 35.2629 47.6601 35.2629 47.7861C35.2629 47.9117 35.2281 48.0339 35.185 48.0581C35.1423 48.0819 35.0881 48.2179 35.0655 48.3596C35.0423 48.5018 34.925 48.9393 34.8039 49.3316C34.6829 49.7239 34.4766 50.4015 34.3444 50.8371C34.2129 51.2732 34.0676 51.7544 34.0213 51.9071C33.9397 52.1762 33.8576 52.4397 33.6734 53.017C33.625 53.1692 33.5302 53.5082 33.4634 53.7698C33.3966 54.0313 33.2808 54.4236 33.2066 54.6414C32.8734 55.621 33.1602 56.1869 33.9892 56.1869C34.7729 56.1869 34.8397 56.077 35.5834 53.5715C35.865 52.6232 35.9523 52.3336 36.0629 51.9865C36.1118 51.8339 36.2055 51.5129 36.2718 51.2732C36.3381 51.0335 36.4307 50.7125 36.4781 50.5599C36.7192 49.78 36.8723 49.276 37.0323 48.7372C37.1297 48.41 37.2428 48.0358 37.2839 47.905C37.4865 47.2592 37.5644 46.9977 37.6755 46.5973C37.7413 46.3571 37.8355 46.0361 37.8839 45.884C37.9328 45.7313 38.0165 45.4636 38.0702 45.2896C38.1239 45.115 38.2018 44.8654 38.2434 44.7346C38.2849 44.6038 38.4234 44.1402 38.5513 43.7041C38.6791 43.2685 38.8234 42.7868 38.8713 42.6342C38.9191 42.4815 39.0128 42.1605 39.0786 41.9209C39.1997 41.4834 39.3286 41.0559 39.4734 40.6132C39.5618 40.3435 39.627 40.13 39.9439 39.0677C40.7118 36.4984 40.8486 36.4204 41.3718 38.2578C41.4923 38.6815 41.6302 39.1533 41.6781 39.3054C41.726 39.4581 41.8197 39.7791 41.886 40.0187C41.9518 40.2584 42.0481 40.5884 42.0996 40.752C42.1507 40.9156 42.2344 41.1828 42.2854 41.3464C42.3365 41.51 42.4118 41.7506 42.4528 41.8814C42.4939 42.0122 42.607 42.3869 42.7038 42.7136C42.8012 43.0408 42.9454 43.522 43.0244 43.7835C43.1033 44.0451 43.2412 44.5087 43.3312 44.814C43.4212 45.1188 43.5607 45.5825 43.6407 45.844C43.7212 46.1056 43.8191 46.4266 43.8586 46.5573C43.8975 46.6881 44.0323 47.1342 44.158 47.5483C44.2833 47.9621 44.4902 48.6578 44.6165 49.0938C45.0075 50.4391 45.3549 50.7406 46.1959 50.4657C46.8738 50.2446 46.9317 49.8485 46.4891 48.4595C46.3165 47.9193 46.2101 47.5645 46.0965 47.1517C46.0301 46.9121 45.9338 46.5821 45.8828 46.419C45.7533 46.0071 45.6665 45.7232 45.4044 44.8535C45.2791 44.4393 45.0938 43.833 44.9923 43.5063C44.8902 43.1791 44.7544 42.7155 44.6896 42.4758C44.5828 42.0787 44.5323 41.908 44.3017 41.1681C44.2612 41.0373 44.1265 40.5913 44.0028 40.1776C43.8791 39.7634 43.6581 39.0501 43.5117 38.5926C43.3654 38.1347 43.2454 37.6824 43.2454 37.5869C43.2454 37.4908 43.206 37.3909 43.1575 37.3638C43.1096 37.3367 43.0702 37.2121 43.0702 37.0866C43.0702 36.9606 43.0307 36.836 42.9823 36.8089C42.9339 36.7822 42.8944 36.6843 42.8944 36.592C42.8944 36.4998 42.8554 36.3143 42.8081 36.1807C42.737 35.981 42.3596 34.7436 41.7454 32.6988C41.5749 32.131 40.9323 31.8595 40.3039 32.0897ZM3.15787 34.0303C5.75311 34.5506 7.57994 35.6956 9.17361 37.8023C9.56255 38.3158 10.4389 39.8309 10.4389 39.9893C10.4389 40.0506 10.4773 40.1623 10.5241 40.238C11.0362 41.0649 11.381 44.0294 11.1436 45.5668C11.0078 46.448 10.782 47.41 10.6883 47.5046C10.6473 47.546 10.6141 47.6596 10.6141 47.7576C10.6141 47.8551 10.5746 47.9573 10.5262 47.9839C10.4783 48.011 10.4389 48.0985 10.4389 48.1789C10.4389 49.0391 7.69468 52.2842 6.4768 52.8639C6.36416 52.9176 6.25206 52.9856 6.22838 53.0151C6.18627 53.0664 5.931 53.1925 5.26311 53.492C4.0347 54.0432 2.11367 54.3875 1.98314 54.0803C1.87262 53.8197 1.92367 34.1121 2.03525 34.0113C2.17367 33.8862 2.46366 33.8915 3.15787 34.0303Z" fill="white"/>
<path fill-rule="evenodd" clip-rule="evenodd" d="M50.0353 32.0511C49.4243 32.3017 49.4732 30.9969 49.4732 46.9387C49.4732 57.0514 49.4453 61.3945 49.3785 61.5837C49.0653 62.4696 48.4711 63.1159 47.6485 63.4645L47.149 63.6761H33.6839H20.2192L19.7829 63.4811C18.6572 62.9766 18.0624 62.1529 18.0066 61.0212C17.9377 59.6141 17.0998 59.0173 16.2272 59.7539L15.9451 59.9921L15.9893 61.0811C16.0351 62.2086 16.0851 62.404 16.5224 63.1563C16.9898 63.96 17.9577 64.804 18.7661 65.1136C19.8471 65.5283 18.7266 65.4993 33.6839 65.4993H47.4995L48.1322 65.2872C49.4785 64.8359 50.7995 63.667 51.1421 62.6242C51.4969 61.5438 51.4911 61.7611 51.4911 50.2708C51.4911 40.11 51.5021 39.2388 51.6353 39.1927C51.7858 39.1404 52.1048 39.3449 52.1048 39.4937C52.1048 39.5399 52.3469 40.15 52.6421 40.8485C52.9379 41.5471 53.3579 42.5467 53.5758 43.0697C53.7942 43.5928 54.0458 44.172 54.1353 44.357C54.2247 44.5415 54.2979 44.7294 54.2979 44.7741C54.2979 44.8188 54.3337 44.9172 54.3779 44.9928C54.4216 45.0684 54.5242 45.3086 54.6053 45.5268C54.6868 45.7446 54.8226 46.0656 54.9074 46.2401C54.9921 46.4142 55.131 46.7352 55.2153 46.9534C55.3 47.1712 55.401 47.4209 55.4405 47.5079C55.4795 47.5954 55.6184 47.934 55.7484 48.2612C55.8789 48.5878 56.0252 48.9445 56.0742 49.0534C56.1231 49.1628 56.1937 49.323 56.2305 49.41C56.6205 50.3292 56.8631 50.5594 57.441 50.5594C58.0379 50.5594 58.2968 50.2817 58.6815 49.2289C58.8726 48.7058 59.0868 48.1718 59.2136 47.9045C59.2952 47.7328 59.7121 46.6543 60.0415 45.7641C60.2557 45.1849 60.4889 44.6086 60.6178 44.338C60.6594 44.2505 60.7963 43.8938 60.922 43.5453C61.0478 43.1967 61.1863 42.8401 61.2299 42.7526C61.2736 42.6655 61.3873 42.3802 61.4831 42.1187C61.5784 41.8571 61.781 41.3397 61.9326 40.9693C62.0842 40.5989 62.2436 40.189 62.2873 40.0582C62.4657 39.5223 62.5636 39.3844 62.7631 39.3844C63.072 39.3844 63.0673 39.2612 63.0683 47.7247L63.0699 55.7085L63.3257 55.9672C63.7015 56.3471 64.3678 56.3471 64.7436 55.9672L64.9994 55.7085V44.1164C64.9994 31.3597 65.0415 32.3189 64.472 32.0526C63.7804 31.7297 63.2499 32.0635 62.8978 33.0441C62.7962 33.3275 62.6768 33.6304 62.632 33.7174C62.5878 33.8049 62.4331 34.1972 62.2884 34.5895C62.1441 34.9819 61.8431 35.7665 61.6205 36.3328C61.3978 36.8997 61.1231 37.613 61.0105 37.9183C60.8078 38.4666 60.5784 39.0363 60.4368 39.3449C60.3968 39.4319 60.2978 39.6816 60.2163 39.8994C60.1352 40.1176 60.0363 40.3673 59.9963 40.4543C59.9563 40.5413 59.8731 40.7553 59.8115 40.9298C59.75 41.1044 59.6742 41.2827 59.6426 41.326C59.611 41.3697 59.5584 41.5124 59.5263 41.6431C59.4715 41.8619 59.2094 42.5329 59.0305 42.9114C58.9889 42.9984 58.8368 43.3907 58.6926 43.783C57.4921 47.0419 57.4094 47.1327 56.8905 45.7613C56.7595 45.4141 56.6189 45.0589 56.5789 44.9719C56.5384 44.8849 56.3589 44.4569 56.1805 44.0208C56.0016 43.5847 55.8237 43.1568 55.7847 43.0697C55.7463 42.9827 55.57 42.5547 55.3931 42.1187C55.2163 41.6826 55.0395 41.2546 55.0005 41.1676C54.9611 41.0806 54.851 40.8129 54.7558 40.5732C54.5079 39.9507 53.8516 38.3434 53.7684 38.156C53.6853 37.9677 53.1458 36.6562 52.8069 35.8178C52.6748 35.4912 52.389 34.7954 52.1716 34.2724C51.9548 33.7493 51.6832 33.0935 51.5684 32.8148C51.2616 32.0706 50.6863 31.7844 50.0353 32.0511Z" fill="#F6A532"/>
</svg>
