<svg width="585" height="555" viewBox="0 0 585 555" fill="none" xmlns="http://www.w3.org/2000/svg">
<path d="M548.67 39.4915C556.717 36.2616 568.801 35.1478 576.57 41.552C585.452 48.9029 585.397 63.4377 582.779 72.3758C578.185 88.0801 561.061 102.197 559.167 103.729C557.942 104.759 554.016 108.184 550.368 113.892C549.756 114.866 549.199 115.952 548.642 117.317C545.635 124.751 548.28 133.077 550.062 140.873C551.844 148.67 552.234 158.081 546.275 163.427C543.546 165.878 539.899 167.019 536.613 168.634C528.677 172.56 522.44 179.772 519.712 188.181C517.206 195.894 517.4 204.748 512.472 211.153C510.941 213.157 509.019 214.745 506.931 216.165C495.71 223.655 493.343 222.903 488.776 228.388C485.602 232.203 483.709 237.131 481.398 243.257C479.671 247.768 479.281 249.968 478.446 249.94C476.525 249.912 474.214 237.967 474.548 226.356C475.077 207.561 482.038 205.806 483.291 188.32C484.572 170.555 479.476 169.386 481.203 154.684C482.428 144.187 488.414 134.358 497.13 128.399C500.582 126.06 504.481 124.25 507.293 121.187C513.279 114.672 512.333 105.539 512.277 102.253C511.915 81.3417 526.895 48.2068 548.67 39.4915Z" fill="#C378DD"/>
<path d="M474.437 264.224H478.919L481.008 242.7L475.439 241.058L474.437 264.224Z" fill="#C378DD"/>
<path opacity="0.4" d="M557.691 60.2635C554.377 63.9569 551.272 67.8333 548.391 71.8746C548.948 69.5357 549.143 67.1132 548.892 64.6629C548.809 63.6327 547.194 63.7162 547.305 64.7465C547.737 69.3018 546.629 73.8702 544.159 77.722C544.02 77.9447 544.02 78.1396 544.075 78.3346C543.574 79.142 543.073 79.9495 542.6 80.757C538.729 87.3005 535.36 94.1502 533.216 101.473C530.209 111.664 526.589 121.605 521.883 131.128C521.132 132.631 520.408 134.107 519.656 135.611C520.881 129.067 520.352 122.273 518.013 115.98C517.651 115.034 516.147 115.507 516.509 116.481C519.628 124.863 519.461 134.163 516.008 142.405C515.925 142.6 515.925 142.794 515.98 142.989C511.692 151.51 507.349 160.03 503.2 168.634C500.415 174.37 497.687 180.078 495.125 185.87C495.153 184.979 495.125 184.088 495.041 183.197C494.707 179.911 493.649 175.79 491.032 173.59C490.252 172.922 489.166 174.092 489.946 174.76C492.368 176.793 493.259 180.774 493.482 183.782C493.733 186.984 493.148 190.158 491.811 193.054C491.7 193.276 491.7 193.499 491.784 193.694C489.918 198.316 488.192 203.022 486.66 207.839C484.878 213.492 483.347 219.2 481.982 224.936C481.927 225.103 481.871 225.242 481.815 225.409C481.76 225.576 481.76 225.743 481.787 225.882C481.286 228.026 480.813 230.17 480.367 232.314C479.909 230.073 479.07 227.926 477.889 225.966C477.36 225.075 476.024 225.938 476.553 226.829C477.583 228.583 478.362 230.449 478.78 232.426C478.975 233.372 479.114 234.347 479.142 235.322C479.198 236.324 479.393 237.967 478.752 238.802C478.446 239.22 478.585 239.693 478.864 239.944C477.527 247.295 476.413 254.701 475.522 262.108C475.188 264.976 474.854 267.844 474.576 270.74C474.464 271.742 476.024 272.104 476.135 271.074C477.694 255.704 480.005 240.334 483.569 225.27C486.827 216.805 491.449 206.419 501.668 205.389C502.671 205.277 502.615 203.69 501.585 203.802C494.039 204.581 489.278 209.927 485.908 216.137C486.131 215.357 486.326 214.577 486.549 213.798C488.403 207.232 490.587 200.764 493.092 194.418C495.459 188.459 498.216 182.696 500.972 176.904C502.615 173.479 504.258 170.082 505.928 166.657C506.207 166.685 506.485 166.574 506.68 166.267C512.138 156.466 522.914 152.067 533.105 148.92C534.079 148.614 533.578 147.11 532.603 147.417C524.027 150.062 515.173 153.626 509.103 160.253C513.307 151.733 517.595 143.268 521.856 134.775C525.754 127.062 529.151 119.182 531.935 110.996C532.186 110.996 532.409 110.857 532.548 110.551C533.578 108.212 534.386 105.483 536.279 103.701C538.061 102.03 540.289 100.332 542.627 99.552C543.602 99.2179 543.101 97.7143 542.126 98.0484C539.648 98.8838 537.448 100.582 535.499 102.309C535.026 102.726 534.608 103.2 534.246 103.673C534.692 102.086 535.165 100.499 535.666 98.9395C536.752 95.626 538.228 92.4239 539.787 89.2774C544.855 79.1258 551.281 69.7114 558.889 61.2937C559.557 60.5698 558.387 59.4839 557.691 60.2635Z" fill="white"/>
<path opacity="0.3" d="M474.464 320.971C504.821 320.971 529.429 319.151 529.429 316.906C529.429 314.661 504.821 312.841 474.464 312.841C444.108 312.841 419.499 314.661 419.499 316.906C419.499 319.151 444.108 320.971 474.464 320.971Z" fill="#471C8A"/>
<path d="M426.126 6.38446C417.996 1.37246 405.048 -2.13594 395.414 3.37726C384.387 9.69795 381.687 25.4858 382.856 35.7047C384.889 53.6365 400.844 72.2087 402.57 74.2414C403.711 75.5779 407.331 80.0609 410.199 86.9663C410.673 88.1358 411.09 89.4166 411.424 91.0038C413.29 99.6355 408.835 108.184 405.438 116.342C402.041 124.501 399.813 134.636 405.299 141.569C407.805 144.744 411.536 146.665 414.821 149.059C422.701 154.823 428.103 163.845 429.495 173.507C430.748 182.334 428.883 191.94 433.032 199.848C434.313 202.326 436.095 204.414 438.099 206.335C448.875 216.61 451.576 216.22 455.502 223.042C458.231 227.776 459.345 233.512 460.737 240.584C460.988 241.809 461.155 242.867 461.322 243.786C461.823 246.821 461.99 248.269 462.686 248.381C464.774 248.687 469.536 236.157 471.374 223.488C474.353 202.966 467.113 199.736 469.035 180.524C471.012 160.977 476.747 160.671 477.639 144.382C478.279 132.743 473.657 120.909 465.276 112.806C461.962 109.604 458.092 106.903 455.586 103.033C450.323 94.8185 453.08 85.0729 453.748 81.5088C458.147 58.8156 448.151 19.9726 426.126 6.38446Z" fill="#C378DD"/>
<path d="M459.846 264.224H464.301L466.417 242.7L460.848 241.058L459.846 264.224Z" fill="#C378DD"/>
<path opacity="0.4" d="M467.865 222.402C466.222 224.323 464.886 226.467 463.967 228.834C463.883 226.411 463.772 223.989 463.633 221.566C463.689 221.427 463.716 221.26 463.689 221.065C463.661 220.898 463.633 220.703 463.577 220.536C463.187 214.021 462.575 207.533 461.712 201.045C460.975 195.568 460.009 190.124 458.816 184.728C458.927 184.533 458.983 184.311 458.927 184.032C458.036 180.607 457.98 177.071 458.844 173.618C459.651 170.388 461.377 166.212 464.385 164.458C465.359 163.901 464.412 162.397 463.438 162.982C460.152 164.875 458.231 169.163 457.256 172.672C456.978 173.618 456.783 174.593 456.644 175.567C454.945 168.801 453.052 162.063 451.131 155.325C448.235 145.189 445.144 135.137 442.081 125.058C442.165 124.891 442.22 124.668 442.165 124.417C439.965 114.811 441.58 104.675 446.536 96.1551C447.121 95.1805 445.562 94.3452 444.977 95.3197C441.246 101.724 439.38 109.019 439.464 116.342C438.935 114.588 438.406 112.806 437.905 111.052C434.591 99.8027 432.503 88.3308 431.194 76.664C430.247 68.3106 427.881 60.2357 424.901 52.3558C424.539 51.3812 424.149 50.4066 423.76 49.4321C423.871 49.2372 423.899 49.0144 423.787 48.7638C421.815 44.113 421.472 38.9324 422.813 34.0619C423.119 32.976 421.393 32.5862 421.114 33.6721C420.418 36.2895 420.14 38.9626 420.307 41.5799C417.94 36.6515 415.295 31.8344 412.399 27.2122C411.786 26.2655 410.311 27.2122 410.923 28.1589C411.926 29.7739 412.928 31.4167 413.875 33.0874C419.137 42.2761 423.37 52.0495 426.405 62.1848C427.519 65.8882 428.493 69.6193 429.05 73.4618C429.328 75.2439 429.523 77.0538 429.718 78.8637C429.412 78.2511 429.05 77.6942 428.604 77.1373C426.795 74.9098 424.734 72.6544 422.2 71.2621C421.198 70.7331 420.39 72.2645 421.365 72.8214C423.76 74.1301 425.848 76.3577 427.463 78.5295C429.189 80.8406 429.551 83.9592 430.219 86.688C430.303 87.0499 430.554 87.217 430.804 87.2727C432.28 96.6563 434.508 105.901 437.264 115.006C440.327 125.03 443.362 135.054 446.314 145.106C440.967 136.752 432.002 131.211 423.175 126.728C422.172 126.227 421.337 127.759 422.339 128.288C432.809 133.634 443.696 140.456 447.789 152.122C447.929 152.484 448.207 152.679 448.513 152.707C449.683 156.717 450.824 160.726 451.966 164.764C453.887 171.558 455.781 178.352 457.229 185.257C458.76 192.636 459.874 200.071 460.681 207.561C460.765 208.452 460.876 209.343 460.96 210.234C458.482 202.827 454.333 196.117 446.258 193.833C445.172 193.527 444.782 195.253 445.868 195.532C456.783 198.595 459.846 210.763 461.767 220.592C462.797 237.605 462.408 254.729 461.21 271.742C461.127 272.856 462.881 272.772 462.965 271.659C463.187 268.484 463.382 265.282 463.549 262.108C463.967 253.894 464.19 245.624 464.106 237.382C464.468 237.159 464.719 236.658 464.44 236.157C463.883 235.155 464.44 233.373 464.663 232.314C464.886 231.256 465.22 230.226 465.61 229.224C466.445 227.135 467.642 225.27 469.09 223.571C469.898 222.736 468.589 221.566 467.865 222.402Z" fill="white"/>
<path d="M471.513 316.906H474.854C488.804 316.906 500.109 305.601 500.109 291.651V260.187H446.23V291.651C446.23 305.601 457.535 316.906 471.513 316.906Z" fill="#FD8E63"/>
<path d="M464.663 316.906H467.392C478.724 316.906 487.941 307.717 487.941 296.356V260.187H444.114V296.356C444.114 307.717 453.302 316.906 464.663 316.906Z" fill="#FEA46F"/>
<path d="M448.068 316.906H496.127C496.127 314.817 494.429 313.119 492.34 313.119H451.882C449.766 313.119 448.068 314.817 448.068 316.906Z" fill="#FD8E63"/>
<path opacity="0.3" d="M286.723 481.733C171.825 481.733 78.6805 488.155 78.6805 496.08C78.6805 498.078 84.5103 500.727 95.2956 501.707C186.017 509.952 110.893 521.937 104.517 525.423L102.898 526.309C101.102 527.289 99.1185 527.878 97.0794 528.022C69.9402 529.915 50.485 535.037 50.485 541.064C50.485 548.701 81.7347 555.968 120.249 554.892C243.285 551.447 121.525 509.069 283.894 510.424C284.836 510.433 285.778 510.424 286.723 510.424C401.62 510.424 494.765 504.002 494.765 496.077C494.765 488.152 401.623 481.733 286.723 481.733Z" fill="#471C8A"/>
<path d="M307.451 34.5539C307.451 34.5539 311.198 32.5177 315.71 34.8884C320.223 37.2591 318.157 76.2604 309.746 77.789C301.334 79.3146 307.451 34.5539 307.451 34.5539Z" fill="#471C8A"/>
<path d="M195.441 416.757L208.292 455.128C208.901 456.271 209.111 457.584 208.889 458.861C208.667 460.137 208.025 461.302 207.065 462.172L187.161 471.314C187.161 471.314 184.817 468.888 169.736 432.577L195.441 416.757Z" fill="url(#paint0_linear_658_342)"/>
<path d="M210.09 469.213C210.616 469.871 217.865 467.245 220.007 470.469C220.891 471.801 221.388 473.353 221.443 474.951C221.498 476.549 221.109 478.131 220.318 479.521L216.328 486.533C216.328 486.533 206.693 502.15 198.663 504.665C190.632 507.179 156.451 506.739 156.451 506.739C156.451 506.739 153.47 501.795 161.269 496.458C169.068 491.121 177.098 487.909 177.098 487.909C177.098 487.909 209.172 468.066 210.09 469.213Z" fill="white"/>
<path d="M389.538 332.297C389.538 332.297 431.048 491.254 425.755 492.052C424.109 492.301 421.201 493.745 419.177 490.593C402.515 464.645 376.329 334.292 376.329 334.292L389.538 332.297ZM254.945 333.966C254.945 333.966 237.717 498.057 232.535 496.643C230.924 496.203 227.726 496.359 226.958 492.615C220.617 461.802 242.018 330.434 242.018 330.434L254.945 333.966ZM285.649 332.845C285.649 332.845 327.159 491.802 321.866 492.6C320.22 492.85 317.312 494.293 315.288 491.142C298.626 465.194 272.44 334.84 272.44 334.84L285.649 332.845Z" fill="#C378DD"/>
<path opacity="0.3" d="M390.712 337.014L377.503 339.009C377.503 339.009 378.8 345.47 381 355.798C386 354.739 390.565 353.474 394.579 351.981C392.202 342.721 390.712 337.014 390.712 337.014ZM287.116 339.887L273.907 341.882C273.907 341.882 275.339 349.011 277.748 360.269C282.612 360.803 287.626 361.272 292.734 361.666C289.36 348.474 287.116 339.887 287.116 339.887Z" fill="#471C8A"/>
<path d="M358.837 333.42C358.837 333.42 341.609 497.512 336.427 496.095C334.816 495.655 331.618 495.81 330.85 492.066C324.509 461.254 345.91 329.885 345.91 329.885L358.837 333.42Z" fill="#C378DD"/>
<path opacity="0.3" d="M254.065 341.301L241.138 337.765C241.138 337.765 240.087 344.208 238.523 354.571C242.698 355.557 247.337 356.49 252.342 357.353C253.419 347.451 254.065 341.301 254.065 341.301ZM356.223 358.726C357.655 345.681 358.541 337.234 358.541 337.234L345.614 333.699C345.614 333.699 343.929 344.044 341.644 359.609C346.629 359.421 351.508 359.128 356.223 358.726Z" fill="#471C8A"/>
<path d="M421.577 241.458C421.204 237.642 420.934 233.817 420.767 229.986C419.993 212.279 414.324 155.34 373.615 145.32C325.287 133.426 289.299 227.68 277.853 235.408C266.408 243.136 210.26 242.805 202.312 265.766C194.364 288.73 192.824 328.805 234.504 340.127C276.181 351.45 380.111 357.285 405.736 335.154C426.955 316.832 423.42 260.338 421.577 241.458ZM207.145 451.704C207.145 451.704 209.812 449.025 211.789 459.361C213.01 465.737 214.931 463.929 217.073 467.157C217.957 468.489 218.454 470.04 218.509 471.638C218.564 473.236 218.175 474.818 217.384 476.208L213.394 483.22C213.394 483.22 203.759 498.838 195.728 501.352C187.698 503.867 153.517 503.427 153.517 503.427C153.517 503.427 150.536 498.483 158.335 493.146C166.133 487.809 177.843 483.417 177.843 483.417C177.843 483.417 183.368 475.9 183.136 470.625C182.907 465.349 192.208 460.949 197.096 463.375C201.693 464.59 207.505 457.871 207.145 451.704Z" fill="#471C8A"/>
<path d="M160.327 477.109L149.128 515.993C148.98 517.279 148.407 518.48 147.5 519.405C146.593 520.329 145.403 520.925 144.12 521.098L120.249 524.302C120.249 524.302 121.992 513.998 130.186 475.542L160.327 477.109Z" fill="url(#paint1_linear_658_342)"/>
<path d="M244.33 181.529C244.33 181.529 233.324 198.631 230.875 210.528C228.422 222.428 244.779 229.388 255.147 228.097C265.516 226.803 277.167 194.55 270.821 185.841C264.477 177.133 244.33 181.529 244.33 181.529Z" fill="url(#paint2_linear_658_342)"/>
<path opacity="0.46" d="M244.33 181.529C244.33 181.529 233.324 198.631 230.875 210.528C228.422 222.428 244.779 229.388 255.147 228.097C265.516 226.803 277.167 194.55 270.821 185.841C264.477 177.133 244.33 181.529 244.33 181.529Z" fill="#E55F41"/>
<path opacity="0.46" d="M244.33 181.529C244.013 182.881 241.029 186.631 240.909 186.977C270.548 187.796 281.354 198.971 285.047 205.021C285.232 204.513 285.417 204.003 285.599 203.495C286.244 201.691 279.144 184.102 279.763 182.294C260.516 166.093 248.029 182.071 244.33 181.529Z" fill="#E55F41"/>
<path d="M277.132 105.779C277.132 105.779 260.05 117.673 253.592 135.172C249.288 146.84 235.921 181.672 235.921 181.672L284.176 182.875L277.132 105.779Z" fill="#E55F41"/>
<path d="M327.878 281.709C327.878 281.709 327.188 286.967 325.319 292.934C322.717 301.229 316.08 307.681 307.698 309.987C301.533 311.682 185.87 332.845 185.87 332.845C185.87 332.845 216.037 442.72 209.897 449.268C203.756 455.817 165.151 479.746 161.551 468.744C157.954 457.742 112.732 318.929 109.778 308.479C105.943 294.918 107.645 255.79 138.196 248.508C151.713 245.287 225.784 247.569 225.784 247.569C225.784 247.569 266.874 260.514 284.282 263.621C305.893 267.479 327.878 281.709 327.878 281.709Z" fill="#8A52BF"/>
<path d="M370.86 286.283C370.86 286.283 371.092 291.579 370.282 297.781C369.156 306.401 363.787 314.018 355.877 317.624C298.723 343.695 246.715 334.362 222.794 345.529C217.798 347.861 173.923 498.75 169.009 506.264C164.094 513.778 117.315 509.042 111.867 498.829C107.683 490.981 132.713 376.925 157.61 318.833C165.121 301.308 169.954 289.293 176.637 286.406C189.391 280.896 248.672 268.301 248.672 268.301C248.672 268.301 288.466 256.659 306.149 256.706C328.098 256.767 370.86 286.283 370.86 286.283Z" fill="#A25DCF"/>
<path d="M386.994 162.185C381.088 143.868 362.387 109.508 322.423 99.1074C321.138 97.259 319.258 95.5749 316.491 94.5392C307.331 91.1006 294.025 95.7098 291.537 97.5113C250.89 109.168 249.989 192.22 249.989 192.22C249.989 192.22 245.321 208.263 234.674 225.735C226.958 238.398 216.081 242.077 215.665 250.744C215.248 259.393 257.747 263.196 270.372 269.428C296.249 282.202 321.42 336.073 332.226 332.845C378.876 318.915 412.696 241.907 386.994 162.185Z" fill="#FF8F67"/>
<g opacity="0.45">
<mask id="mask0_658_342" style="mask-type:luminance" maskUnits="userSpaceOnUse" x="215" y="93" width="181" height="240">
<path d="M386.994 162.185C381.088 143.868 362.387 109.508 322.423 99.1074C321.138 97.259 319.258 95.5749 316.491 94.5392C307.331 91.1006 294.025 95.7098 291.537 97.5113C250.89 109.168 249.989 192.22 249.989 192.22C249.989 192.22 245.321 208.263 234.674 225.735C226.958 238.398 216.081 242.077 215.665 250.744C215.248 259.393 257.747 263.196 270.372 269.428C296.249 282.202 321.42 336.073 332.226 332.845C378.876 318.915 412.696 241.907 386.994 162.185Z" fill="white"/>
</mask>
<g mask="url(#mask0_658_342)">
<path d="M311.301 77.921C311.301 77.921 313.58 87.5034 315.945 89.6833C319.868 93.298 324.477 102.129 324.061 104.506C323.192 109.45 318.119 112.501 313.234 119.111C305.494 129.582 279.247 124.774 285.549 105.412C287.518 99.3625 291.121 99.9317 292.761 96.8393C295.102 92.4266 294.289 87.5298 294.289 87.5298C294.289 87.5298 305.395 77.1875 311.301 77.921Z" fill="#FFA969"/>
</g>
</g>
<path d="M305.7 62.547C305.714 67.0565 306.451 74.3064 304.165 77.6893C301.877 81.0721 301.789 82.1636 299.917 80.8257C298.045 79.4878 276.251 103.37 266.202 79.6726C266.164 74.8228 266.513 70.1636 266.643 67.3118C266.883 61.9896 264.02 52.818 268.365 44.1539C272.71 35.4899 292.579 31.6112 300.753 37.086C308.93 42.5579 308.434 53.7011 308.434 53.7011C308.51 54.6781 308.678 55.35 308.93 55.8312C307.683 57.0282 305.691 59.4399 305.7 62.547Z" fill="url(#paint3_linear_658_342)"/>
<path opacity="0.35" d="M267.875 61.1387C267.895 61.1182 269.993 58.9588 273.537 58.5891C275.835 58.3514 277.707 60.8101 279.268 66.1118C280.497 70.2898 278.648 74.3475 277.798 75.8995C277.44 76.5538 277.205 77.2316 277.093 77.9122C277.407 77.833 277.724 77.7567 278.047 77.6775C278.158 77.2198 278.332 76.7621 278.572 76.3279C279.479 74.6819 281.439 70.3631 280.115 65.8653C278.414 60.0883 276.228 57.4243 273.447 57.7148C269.565 58.1196 267.326 60.4375 267.235 60.5343C267.068 60.7103 267.074 60.9891 267.253 61.1592C267.429 61.3206 267.708 61.3147 267.875 61.1387Z" fill="#E55F41"/>
<path d="M309.587 82.1665C309.587 82.1665 311.615 89.4692 312.891 91.6228C313.921 93.3567 319.413 100.164 320.088 101.944C321.707 106.213 314.965 110.711 310.667 115.714C303.778 123.726 284.912 120.566 289.912 104.799C291.473 99.8702 294.16 100.281 295.434 97.7548C297.25 94.146 296.713 90.1939 296.713 90.1939C296.713 90.1939 305.177 81.659 309.587 82.1665Z" fill="url(#paint4_linear_658_342)"/>
<path d="M310.535 66.7044C310.318 65.3313 309.854 59.3724 309.713 56.6584C309.391 56.4824 309.13 56.2183 308.927 55.8281C307.686 57.0281 305.691 59.4369 305.703 62.5469C305.717 67.0564 306.454 74.3063 304.168 77.6892C301.883 81.072 301.792 82.1635 299.92 80.8256C298.048 79.4877 297.693 76.8882 293.154 75.964C291.373 75.6031 289.14 75.6647 286.749 75.9611C287.665 77.8887 287.841 80.0305 286.811 80.8491C284.346 82.809 279.599 83.5131 278.097 81.1689C277.539 80.3033 277.648 78.9889 278.006 77.6804C277.179 77.8828 276.375 78.0853 275.606 78.2789C272.543 79.0564 269.817 76.0168 266.681 77.2755C262.782 78.8452 266.883 87.6031 267.895 91.0388C270.072 98.4412 276.404 102.701 288.292 101.827C300.181 100.956 308.243 90.3287 309.675 85.1503C310.55 81.9698 310.872 68.852 310.535 66.7044Z" fill="#471C8A"/>
<path d="M309.711 56.6611C310.676 57.1863 312.181 56.9809 314.276 57.3976C317.938 58.1252 317.999 63.3594 317.031 66.7628C316.063 70.1662 311.025 72.0528 311.025 72.0528C311.025 72.0528 309.699 67.2821 309.494 66C308.223 58.0782 309.819 58.6738 309.711 56.6611Z" fill="url(#paint5_linear_658_342)"/>
<path opacity="0.18" d="M344.255 295.109C356.56 298.594 365.767 300.264 372.254 301.035C375.217 296.69 377.955 291.999 380.44 287.008L294.823 266.939C294.821 266.939 315.904 287.078 344.255 295.109Z" fill="#286175"/>
<path d="M351.511 112.841C351.511 112.841 377.655 127.576 396.932 175.711C402.518 189.659 404.181 210.842 405.681 230.679C378.019 248.118 345.033 231.6 337.9 229.22C335.764 202.389 343.63 131.498 351.511 112.841Z" fill="#FFA969"/>
<path d="M338.607 229.472C339.746 228.205 343.369 224.532 350.631 222.275C350.631 222.275 358.482 227.58 363.438 227.295C368.393 227.011 398.49 224.18 398.49 224.18C398.49 224.18 404.032 226.533 405.681 230.681C378.844 247.601 346.996 232.553 338.607 229.472Z" fill="#BC5240"/>
<path opacity="0.15" d="M306.064 61.262C305.97 58.24 307.897 55.843 309.106 54.643C308.842 54.1823 308.657 53.5339 308.555 52.5863C308.555 52.5863 308.748 41.7394 300.424 36.6489C292.104 31.5585 272.346 35.8831 268.242 44.4269C267.051 46.9061 266.47 49.4058 266.238 51.8381C267.878 52.8122 270.521 54.109 274.016 54.9334C280.218 56.3975 286.077 54.5814 290.798 54.464C297.053 54.3085 302.534 52.8063 303.734 54.7809C304.371 55.8254 305.424 60.241 306.093 62.019C306.081 61.7608 306.069 61.5085 306.064 61.262Z" fill="#286175"/>
<path d="M282.333 90.8188C280.024 90.8188 278.308 90.4344 278.2 90.411C277.844 90.3291 277.535 90.1096 277.341 89.8005C277.147 89.4915 277.083 89.118 277.164 88.7621C277.334 88.0227 278.07 87.5591 278.81 87.7264C278.857 87.7381 282.248 88.4833 285.622 87.7264C288.102 87.1689 288.838 86.5528 288.955 86.4384C289.138 86.1433 289.425 85.9281 289.759 85.8356C290.094 85.7432 290.451 85.7804 290.759 85.9399C291.067 86.0993 291.304 86.3692 291.421 86.6955C291.539 87.0219 291.529 87.3806 291.394 87.7C291.118 88.3425 290.082 89.5454 286.224 90.4139C284.865 90.7161 283.522 90.8188 282.333 90.8188Z" fill="url(#paint6_linear_658_342)"/>
<path d="M264.248 48.728C264.248 48.728 267.681 51.8644 273.843 53.5455C280.004 55.2267 285.91 53.5309 290.631 53.5455C296.886 53.5661 302.408 52.1783 303.555 54.2438C304.344 55.6697 305.688 63.0047 306.172 62.5088C307.04 61.6198 310.189 57.7294 310.15 57.1279C310.112 56.5294 310.007 41.4605 310.145 40.3896C310.283 39.3187 307.765 30.8307 304.247 28.4601C300.729 26.0894 288.078 25.0185 278.244 27.4654C272.261 28.953 268.685 31.749 265.032 29.531C262.823 28.196 255.165 38.1745 264.248 48.728Z" fill="#471C8A"/>
<path opacity="0.37" d="M134.496 385.988C134.455 385.988 134.417 385.983 134.376 385.971C134.141 385.903 134.003 385.66 134.071 385.425C134.089 385.361 135.943 378.824 137.627 373.041C139.276 367.378 149.973 335.096 152.549 328.198C152.781 327.576 153.074 326.76 153.426 325.792C156.853 316.286 165.96 291.03 175.575 286.506C185.788 281.7 199.24 278.561 213.485 275.234L214.433 275.011C228.598 271.701 248.704 267.764 248.904 267.723C249.144 267.676 249.376 267.831 249.423 268.072C249.47 268.313 249.315 268.544 249.074 268.591C248.872 268.629 228.783 272.567 214.632 275.871L213.684 276.094C199.487 279.409 186.076 282.539 175.948 287.304C166.667 291.673 157.648 316.676 154.254 326.088C153.902 327.063 153.608 327.881 153.374 328.506C150.8 335.395 140.121 367.631 138.472 373.287C136.791 379.067 134.936 385.601 134.919 385.666C134.866 385.862 134.69 385.988 134.496 385.988ZM182.901 465.963C182.832 465.963 182.763 465.946 182.701 465.915C182.639 465.884 182.585 465.838 182.544 465.782C182.503 465.726 182.476 465.661 182.464 465.593C182.453 465.524 182.458 465.454 182.479 465.388L182.784 464.419C188.672 445.733 193.466 429.801 195.197 425.524C197.662 419.436 202.324 402.284 202.336 402.169C202.353 401.926 202.562 401.741 202.811 401.762C203.055 401.779 203.237 401.993 203.219 402.237C203.184 402.718 198.58 419.917 195.96 425.976C194.558 429.221 191.932 438.336 183.629 464.686L183.324 465.658C183.262 465.842 183.089 465.963 182.901 465.963ZM165.447 295.126C165.294 295.126 165.148 295.047 165.065 294.909C165.004 294.806 158.954 284.763 151.845 282.997C144.616 281.199 140.335 281.175 140.291 281.175C140.047 281.175 139.848 280.976 139.848 280.732C139.848 280.489 140.045 280.289 140.291 280.289C140.467 280.289 144.713 280.31 152.056 282.138C155.204 282.921 158.482 285.236 161.797 289.021C162.809 290.177 163.663 291.286 164.317 292.198C163.288 289.094 160.911 283.86 155.947 280.483C148.518 275.43 138.58 275.964 138.481 275.97C138.24 275.979 138.029 275.8 138.014 275.557C138.007 275.44 138.046 275.324 138.124 275.236C138.202 275.148 138.311 275.095 138.428 275.087C138.847 275.061 148.761 274.527 156.443 279.752C164.156 284.998 165.814 294.217 165.878 294.607C165.913 294.818 165.796 295.024 165.597 295.097C165.55 295.117 165.5 295.126 165.447 295.126ZM168.363 289.76C168.134 289.76 167.941 289.584 167.923 289.352C166.961 277.138 157.502 267.069 157.408 266.969C157.241 266.793 157.246 266.511 157.422 266.344C157.599 266.177 157.88 266.183 158.047 266.359C158.144 266.461 167.818 276.751 168.806 289.285C168.824 289.528 168.645 289.739 168.401 289.76C168.387 289.757 168.375 289.76 168.363 289.76Z" fill="#471C8A"/>
<path opacity="0.37" d="M223.261 344.593C223.088 344.593 222.923 344.49 222.853 344.32C222.791 344.174 216.633 329.486 209.55 320.461C203.53 312.795 193.904 306.217 191.38 307.094C191.157 307.17 190.902 307.337 190.902 307.954C190.902 311.21 202.368 323.747 207.878 329.774C210.246 332.361 211.393 333.626 211.639 334.031C211.801 334.301 211.724 334.535 211.595 334.667C211.214 335.064 210.956 334.987 204.557 331.425C200.725 329.292 193.76 325.414 192.187 325.267C193.613 328.063 209.744 338.59 215.9 342.448C216.108 342.577 216.169 342.85 216.04 343.059C215.911 343.264 215.638 343.329 215.43 343.199C215.374 343.164 209.744 339.632 204.005 335.732C192.304 327.778 191.577 326.097 191.339 325.543C191.107 325.006 191.307 324.712 191.448 324.586C192.299 323.815 195.734 325.505 204.985 330.657C206.754 331.64 208.676 332.71 209.929 333.353C209.248 332.587 208.277 331.525 207.224 330.372C198.897 321.268 190.016 311.278 190.016 307.957C190.016 306.803 190.688 306.399 191.09 306.261C194.253 305.172 204.275 312.316 210.246 319.918C217.405 329.037 223.607 343.833 223.672 343.983C223.766 344.209 223.66 344.467 223.434 344.561C223.375 344.581 223.317 344.593 223.261 344.593Z" fill="#471C8A"/>
<path d="M124.43 539.676C145.628 539.025 154.94 536.551 159.074 534.427C158.388 538.64 155.389 542.044 151.469 542.164L76.4741 544.464C73.948 544.54 72.2639 541.683 72.7891 539.03C81.3621 539.591 99.5616 540.439 124.43 539.676Z" fill="white"/>
<path d="M72.7887 539.028C72.8943 538.494 73.0557 537.965 73.355 537.473C78.7975 528.521 89.8527 514.391 105.47 514.174C128.349 513.86 136.415 516.6 154.089 512.851L158.795 529.442C159.253 531.062 159.348 532.763 159.074 534.424C154.943 536.548 145.628 539.025 124.43 539.673C99.5612 540.439 81.3618 539.591 72.7887 539.028Z" fill="#471C8A"/>
<path d="M110.197 514.15C110.197 514.15 113.574 516.357 114.211 521.966C114.302 522.761 114.962 523.372 115.763 523.372C115.97 523.372 116.176 523.33 116.367 523.25C116.559 523.17 116.732 523.052 116.877 522.904C117.023 522.756 117.137 522.581 117.214 522.388C117.29 522.195 117.328 521.989 117.324 521.781C117.28 519.384 116.772 514.963 113.742 513.399C111.858 512.525 110.285 513.593 110.197 514.15ZM116.687 514.15C116.687 514.15 120.064 516.357 120.701 521.966C120.792 522.761 121.452 523.372 122.253 523.372C122.46 523.372 122.666 523.33 122.857 523.25C123.048 523.17 123.222 523.052 123.367 522.904C123.513 522.756 123.627 522.581 123.704 522.388C123.78 522.195 123.818 521.989 123.814 521.781C123.77 519.384 123.262 514.963 120.231 513.399C118.348 512.525 116.775 513.593 116.687 514.15ZM177.869 482.695C177.869 482.695 181.343 480.647 186.654 482.563C187.408 482.836 188.244 482.513 188.602 481.794C188.989 481.011 188.658 480.066 187.868 479.691C185.7 478.667 181.513 477.162 178.767 479.186C177.148 480.483 177.406 482.366 177.869 482.695ZM180.748 476.877C180.748 476.877 184.221 474.829 189.532 476.745C190.286 477.018 191.122 476.695 191.48 475.976C191.867 475.193 191.536 474.248 190.747 473.873C188.578 472.849 184.392 471.343 181.645 473.368C180.026 474.668 180.284 476.551 180.748 476.877Z" fill="white"/>
<path d="M300.064 67.5495C299.949 67.5495 299.835 67.5055 299.747 67.4174C299.576 67.2443 299.579 66.9627 299.753 66.7925L311.544 55.2062C311.717 55.0361 311.999 55.0361 312.169 55.2121C312.339 55.3852 312.339 55.6669 312.163 55.8371L300.372 67.4233C300.287 67.5084 300.175 67.5495 300.064 67.5495Z" fill="white"/>
<path opacity="0.1" d="M293.113 194.385C308.401 194.385 320.795 180.952 320.795 164.382C320.795 147.812 308.401 134.379 293.113 134.379C277.825 134.379 265.431 147.812 265.431 164.382C265.431 180.952 277.825 194.385 293.113 194.385Z" fill="#DCECEF"/>
<path d="M292.817 72.3318C288.897 72.3318 285.819 70.4599 285.725 67.9513C285.675 66.6663 286.429 65.4457 287.846 64.5098C289.196 63.6208 291.003 63.0897 292.94 63.0164C297.085 62.8609 300.407 64.7797 300.506 67.388C300.606 69.9963 297.438 72.1645 293.295 72.32C293.13 72.3288 292.972 72.3318 292.817 72.3318ZM293.4 63.8936C293.257 63.8936 293.113 63.8966 292.969 63.9024C291.194 63.9699 289.545 64.4482 288.33 65.2491C287.183 66.0061 286.57 66.9538 286.608 67.9161C286.687 69.9934 289.674 71.5748 293.257 71.4369C296.783 71.3019 299.697 69.4653 299.617 67.4203C299.544 65.4281 296.792 63.8936 293.4 63.8936ZM271.698 73.6315C269.932 73.6315 268.268 73.2442 266.968 72.5225C265.487 71.698 264.642 70.5391 264.592 69.254C264.542 67.9689 265.296 66.7484 266.713 65.8125C268.063 64.9235 269.87 64.3924 271.806 64.3191C273.743 64.2487 275.585 64.6359 276.997 65.4193C278.478 66.2438 279.323 67.4027 279.373 68.6878C279.423 69.9728 278.669 71.1934 277.252 72.1293C275.902 73.0183 274.095 73.5494 272.158 73.6227C272.006 73.6286 271.853 73.6315 271.698 73.6315ZM272.27 65.1963C272.126 65.1963 271.985 65.1993 271.842 65.2051C270.066 65.2726 268.418 65.7509 267.203 66.5518C266.056 67.3088 265.443 68.2565 265.481 69.2188C265.516 70.1841 266.2 71.0819 267.402 71.7479C268.676 72.455 270.354 72.81 272.129 72.7396C273.904 72.6721 275.553 72.1939 276.768 71.3929C277.915 70.6359 278.528 69.6882 278.49 68.7259C278.455 67.7606 277.771 66.8628 276.568 66.1968C275.398 65.5455 273.887 65.1963 272.27 65.1963Z" fill="white"/>
<path d="M278.335 67.5494C278.173 67.5494 278.018 67.4614 277.938 67.3088C277.827 67.0917 277.915 66.8247 278.132 66.7132C282.058 64.7211 286.391 66.188 286.573 66.2526C286.805 66.3318 286.925 66.5841 286.846 66.8159C286.807 66.9267 286.726 67.0177 286.621 67.0689C286.515 67.12 286.394 67.1272 286.283 67.0888C286.242 67.0741 282.116 65.6834 278.531 67.5025C278.469 67.5347 278.402 67.5494 278.335 67.5494Z" fill="white"/>
<path opacity="0.15" d="M174.501 182.042L276.483 11L403.099 64.3573L385.122 183.67L240.419 259.848L174.501 182.042Z" fill="url(#paint7_linear_658_342)"/>
<path opacity="0.09" d="M212.059 187.22L310.071 18.0913L436.69 71.4486L318.6 113.868L194.241 259.848L212.059 187.22Z" fill="url(#paint8_linear_658_342)"/>
<path d="M192.548 166.084C192.548 166.084 183.799 175.15 180.824 182.373C177.849 189.597 186.745 196.964 193.106 197.959C199.469 198.956 210.527 180.255 207.837 173.53C205.15 166.809 192.548 166.084 192.548 166.084Z" fill="url(#paint9_linear_658_342)"/>
<path d="M194.08 177.544L202.577 146.139L200.76 145.162L191.923 176.028L194.08 177.544Z" fill="#286175"/>
<path d="M236.473 262.348L195.629 263.868C193.463 263.947 191.301 262.116 190.77 259.76L174.466 187.291C173.791 184.286 175.111 181.276 177.456 180.584L222.454 167.261C225.541 166.348 228.489 168.54 228.988 172.137L240.8 257.266C241.179 259.977 239.222 262.245 236.473 262.348Z" fill="#FC8460"/>
<path d="M234.589 262.538L194.663 263.891C192.545 263.961 190.424 262.122 189.896 259.76L173.659 187.176C172.987 184.169 174.266 181.162 176.555 180.478L220.494 167.331C223.507 166.43 226.4 168.634 226.902 172.237L238.799 257.466C239.181 260.185 237.277 262.447 234.589 262.538Z" fill="#FFA969"/>
<path opacity="0.14" d="M240.853 256.586L238.28 238.143C230.461 236.643 216.434 232.732 217.443 235.062C218.599 237.735 229.654 242.288 229.167 243.16C228.824 243.776 217.053 237.342 216.789 239.434C216.524 241.525 217.408 242.52 217.413 243.036C217.419 243.553 216.827 244.239 216.879 245.674C216.932 247.109 223.39 251.498 225.274 252.408C232.908 256.096 237.825 257.407 240.859 257.856C240.912 257.448 240.915 257.026 240.853 256.586Z" fill="#286175"/>
<path d="M351.065 222.275C351.173 223.66 351.209 225.168 351.194 226.709C351.123 233.683 350.014 241.332 350.014 241.332C350.014 241.332 278.525 230.802 257.445 235.39C252.266 231.027 245.392 228.055 244.183 227.542C242.211 226.703 238.776 223.962 235.939 222.226L236.998 229.869C238.277 231.203 239.245 232.348 239.184 233.064C239.002 235.185 211.901 226.565 213.288 229.775C214.444 232.447 225.499 237.001 225.012 237.872C224.669 238.489 212.898 232.054 212.634 234.146C212.37 236.238 213.253 237.233 213.259 237.749C213.265 238.266 212.672 238.952 212.725 240.387C212.781 241.819 219.235 246.211 221.119 247.12C231.411 252.09 236.775 252.748 239.225 252.786C241.912 252.827 248.22 253.892 253.721 253.285C273.875 273.124 362.675 300.472 381.475 292.817C392.959 288.14 397.339 259.214 398.337 229.924C398.402 228.008 398.454 226.093 398.49 224.182C375.437 214.612 354.721 221.662 351.065 222.275Z" fill="url(#paint10_linear_658_342)"/>
<path opacity="0.3" d="M350.631 222.275C350.742 223.66 350.778 225.168 350.76 226.709C350.757 227.072 350.748 227.439 350.739 227.806C379.22 219.556 392.918 226.908 398.276 231.544C398.369 229.09 398.44 226.635 398.49 224.179C375.226 214.612 354.319 221.662 350.631 222.275Z" fill="#E55F41"/>
<path opacity="0.23" d="M205.032 220.298C207.309 220.298 209.154 218.297 209.154 215.83C209.154 213.362 207.309 211.361 205.032 211.361C202.755 211.361 200.91 213.362 200.91 215.83C200.91 218.297 202.755 220.298 205.032 220.298Z" fill="#DCECEF"/>
<g opacity="0.67">
<path opacity="0.46" d="M287.166 59.5251C286.981 59.5251 286.808 59.4077 286.746 59.2229C286.67 58.9911 286.796 58.7417 287.028 58.6654C290.695 57.4507 296.572 58.5187 296.819 58.5656C297.059 58.6097 297.218 58.8414 297.174 59.082C297.13 59.3226 296.898 59.4781 296.657 59.437C296.599 59.4253 290.754 58.3632 287.304 59.5075C287.26 59.5163 287.213 59.5251 287.166 59.5251Z" fill="#E55F41"/>
</g>
<g opacity="0.8">
<path opacity="0.46" d="M367.586 262.148C367.51 262.148 367.435 262.129 367.368 262.091C367.302 262.054 367.247 262 367.208 261.934C367.122 261.796 358.693 248.015 349.322 241.693C349.12 241.555 349.067 241.282 349.202 241.079C349.34 240.877 349.612 240.824 349.815 240.959C359.347 247.39 367.876 261.336 367.962 261.473C368.088 261.682 368.023 261.955 367.812 262.081C367.742 262.128 367.662 262.148 367.586 262.148Z" fill="#E55F41"/>
</g>
<defs>
<linearGradient id="paint0_linear_658_342" x1="176.365" y1="455.668" x2="207.477" y2="434.219" gradientUnits="userSpaceOnUse">
<stop stop-color="#FEBBBA"/>
<stop offset="1" stop-color="#FF928E"/>
</linearGradient>
<linearGradient id="paint1_linear_658_342" x1="120.249" y1="499.924" x2="160.327" y2="499.924" gradientUnits="userSpaceOnUse">
<stop stop-color="#FEBBBA"/>
<stop offset="1" stop-color="#FF928E"/>
</linearGradient>
<linearGradient id="paint2_linear_658_342" x1="229.546" y1="209.779" x2="274.567" y2="198.781" gradientUnits="userSpaceOnUse">
<stop stop-color="#FEBBBA"/>
<stop offset="1" stop-color="#FF928E"/>
</linearGradient>
<linearGradient id="paint3_linear_658_342" x1="265.935" y1="62.3804" x2="308.925" y2="62.3804" gradientUnits="userSpaceOnUse">
<stop stop-color="#FEBBBA"/>
<stop offset="1" stop-color="#FF928E"/>
</linearGradient>
<linearGradient id="paint4_linear_658_342" x1="289.079" y1="101.052" x2="320.333" y2="101.052" gradientUnits="userSpaceOnUse">
<stop stop-color="#FEBBBA"/>
<stop offset="1" stop-color="#FF928E"/>
</linearGradient>
<linearGradient id="paint5_linear_658_342" x1="309.002" y1="64.3564" x2="317.564" y2="64.3564" gradientUnits="userSpaceOnUse">
<stop stop-color="#FEBBBA"/>
<stop offset="1" stop-color="#FF928E"/>
</linearGradient>
<linearGradient id="paint6_linear_658_342" x1="277.132" y1="88.2979" x2="291.509" y2="88.2979" gradientUnits="userSpaceOnUse">
<stop stop-color="#FEBBBA"/>
<stop offset="1" stop-color="#FF928E"/>
</linearGradient>
<linearGradient id="paint7_linear_658_342" x1="214.796" y1="202.022" x2="447.707" y2="-8.16091" gradientUnits="userSpaceOnUse">
<stop stop-color="white"/>
<stop offset="0.294" stop-color="white" stop-opacity="0"/>
</linearGradient>
<linearGradient id="paint8_linear_658_342" x1="185.478" y1="214.336" x2="468.782" y2="-41.3226" gradientUnits="userSpaceOnUse">
<stop stop-color="white"/>
<stop offset="0.294" stop-color="white" stop-opacity="0"/>
</linearGradient>
<linearGradient id="paint9_linear_658_342" x1="180.232" y1="182.042" x2="208.251" y2="182.042" gradientUnits="userSpaceOnUse">
<stop stop-color="#FEBBBA"/>
<stop offset="1" stop-color="#FF928E"/>
</linearGradient>
<linearGradient id="paint10_linear_658_342" x1="212.586" y1="256.665" x2="398.492" y2="256.665" gradientUnits="userSpaceOnUse">
<stop stop-color="#FEBBBA"/>
<stop offset="1" stop-color="#FF928E"/>
</linearGradient>
</defs>
</svg>
